%FSLAX46Y46*%
G04 Gerber Fmt 4.6, Leading zero omitted, Abs format (unit mm)*
G04 Created by KiCad (PCBNEW (2014-jul-16 BZR unknown)-product) date ma. 13. okt. 2014 kl. 20.08 +0200*
%MOMM*%
G01*
G04 APERTURE LIST*
%ADD10C,0.100000*%
%ADD11C,1.501140*%
%ADD12R,1.998980X1.998980*%
%ADD13C,1.998980*%
%ADD14C,1.699260*%
%ADD15R,1.699260X1.699260*%
%ADD16R,2.235200X2.235200*%
%ADD17O,0.899160X1.501140*%
%ADD18O,1.501140X0.899160*%
%ADD19O,1.501140X2.499360*%
%ADD20O,2.499360X4.500880*%
%ADD21C,1.524000*%
%ADD22O,4.000000X2.500000*%
%ADD23C,1.800000*%
%ADD24O,2.500000X4.000000*%
%ADD25C,4.000000*%
%ADD26C,1.500000*%
%ADD27C,3.000000*%
%ADD28C,1.000000*%
%ADD29C,0.500000*%
%ADD30C,0.900000*%
%ADD31C,3.000000*%
%ADD32C,2.000000*%
%ADD33C,1.000000*%
G04 APERTURE END LIST*
D10*
D11*
X122250000Y-122750000D03*
X117170000Y-122750000D03*
X123750000Y-96250000D03*
X123750000Y-91170000D03*
D12*
X125730000Y-86000000D03*
D13*
X128270000Y-86000000D03*
D11*
X89500000Y-104000000D03*
X94580000Y-104000000D03*
D12*
X105000000Y-72960000D03*
D13*
X105000000Y-78040000D03*
D11*
X146000000Y-107000000D03*
X151080000Y-107000000D03*
D12*
X155000000Y-77540000D03*
D13*
X155000000Y-72460000D03*
X96580000Y-114000000D03*
D12*
X86420000Y-114000000D03*
D13*
X118500000Y-78580000D03*
D12*
X118500000Y-68420000D03*
D13*
X113500000Y-70420000D03*
D12*
X113500000Y-80580000D03*
D14*
X161920000Y-107500000D03*
D15*
X172080000Y-107500000D03*
D14*
X172080000Y-103500000D03*
D15*
X161920000Y-103500000D03*
D14*
X161920000Y-111500000D03*
D15*
X172080000Y-111500000D03*
D14*
X172080000Y-99500000D03*
D15*
X161920000Y-99500000D03*
D13*
X161920000Y-90500000D03*
D12*
X172080000Y-90500000D03*
D13*
X197500000Y-97420000D03*
D12*
X197500000Y-107580000D03*
D13*
X201750000Y-107580000D03*
D12*
X201750000Y-97420000D03*
D13*
X98920000Y-61000000D03*
X109080000Y-61000000D03*
X98920000Y-67000000D03*
X109080000Y-67000000D03*
D16*
X198000000Y-115500000D03*
D17*
X126000000Y-112500000D03*
X124730000Y-112500000D03*
X127270000Y-112500000D03*
X136750000Y-112750000D03*
X138020000Y-112750000D03*
X135480000Y-112750000D03*
X104250000Y-110500000D03*
X102980000Y-110500000D03*
X105520000Y-110500000D03*
X136750000Y-106750000D03*
X138020000Y-106750000D03*
X135480000Y-106750000D03*
X126000000Y-106500000D03*
X124730000Y-106500000D03*
X127270000Y-106500000D03*
D18*
X94750000Y-95750000D03*
X94750000Y-97020000D03*
X94750000Y-94480000D03*
D17*
X132750000Y-95250000D03*
X134020000Y-95250000D03*
X131480000Y-95250000D03*
D18*
X94750000Y-88250000D03*
X94750000Y-89520000D03*
X94750000Y-86980000D03*
D17*
X123250000Y-52500000D03*
X121980000Y-52500000D03*
X124520000Y-52500000D03*
X132750000Y-88750000D03*
X134020000Y-88750000D03*
X131480000Y-88750000D03*
D19*
X127500000Y-77500000D03*
X124960000Y-77500000D03*
X130040000Y-77500000D03*
X141500000Y-77500000D03*
X144040000Y-77500000D03*
X138960000Y-77500000D03*
D20*
X110000000Y-53000000D03*
X104412000Y-53000000D03*
X115588000Y-53000000D03*
X152000000Y-53000000D03*
X146412000Y-53000000D03*
X157588000Y-53000000D03*
D17*
X179000000Y-123000000D03*
X177730000Y-123000000D03*
X180270000Y-123000000D03*
X179000000Y-116000000D03*
X177730000Y-116000000D03*
X180270000Y-116000000D03*
X179000000Y-109000000D03*
X177730000Y-109000000D03*
X180270000Y-109000000D03*
X179000000Y-102000000D03*
X177730000Y-102000000D03*
X180270000Y-102000000D03*
D13*
X138750000Y-126830000D03*
X138750000Y-116670000D03*
X103670000Y-122750000D03*
X113830000Y-122750000D03*
X113670000Y-118250000D03*
X123830000Y-118250000D03*
X99670000Y-116750000D03*
X109830000Y-116750000D03*
X109920000Y-112000000D03*
X120080000Y-112000000D03*
X143000000Y-117080000D03*
X143000000Y-106920000D03*
X86420000Y-108500000D03*
X96580000Y-108500000D03*
X109920000Y-107000000D03*
X120080000Y-107000000D03*
X143000000Y-103580000D03*
X143000000Y-93420000D03*
X113670000Y-101750000D03*
X123830000Y-101750000D03*
X127670000Y-101750000D03*
X137830000Y-101750000D03*
X101250000Y-85670000D03*
X101250000Y-95830000D03*
X138420000Y-90000000D03*
X148580000Y-90000000D03*
X105750000Y-85670000D03*
X105750000Y-95830000D03*
X109670000Y-86750000D03*
X119830000Y-86750000D03*
X89750000Y-98330000D03*
X89750000Y-88170000D03*
X138420000Y-85500000D03*
X148580000Y-85500000D03*
X124670000Y-67500000D03*
X134830000Y-67500000D03*
X138670000Y-67500000D03*
X148830000Y-67500000D03*
X115250000Y-61500000D03*
X135250000Y-61500000D03*
X138250000Y-61500000D03*
X158250000Y-61500000D03*
X158000000Y-94170000D03*
X158000000Y-104330000D03*
X189000000Y-121330000D03*
X189000000Y-111170000D03*
X194330000Y-125750000D03*
X184170000Y-125750000D03*
X161920000Y-116000000D03*
X172080000Y-116000000D03*
X175420000Y-98000000D03*
X185580000Y-98000000D03*
X161920000Y-95500000D03*
X172080000Y-95500000D03*
D21*
X114290000Y-93750000D03*
X116830000Y-93750000D03*
X111750000Y-93750000D03*
D22*
X87000000Y-69000000D03*
X87000000Y-74000000D03*
X185000000Y-59000000D03*
X185000000Y-77000000D03*
D23*
X113000000Y-130750000D03*
X115540000Y-130750000D03*
D24*
X146000000Y-130000000D03*
X151000000Y-130000000D03*
X156000000Y-130000000D03*
D25*
X197000000Y-92000000D03*
X202000000Y-92000000D03*
X202000000Y-85000000D03*
X197000000Y-85000000D03*
D26*
X130750000Y-124750000D03*
X130750000Y-119750000D03*
X102750000Y-102500000D03*
X107750000Y-102500000D03*
X156750000Y-109000000D03*
X156750000Y-111500000D03*
D11*
X185000000Y-88250000D03*
X185000000Y-93330000D03*
D26*
X179500000Y-90500000D03*
X177000000Y-90500000D03*
D13*
X189750000Y-91250000D03*
X189750000Y-106250000D03*
X178250000Y-81750000D03*
X193250000Y-81750000D03*
D27*
X163500000Y-83750000D03*
X171000000Y-67250000D03*
X171000000Y-60250000D03*
X163500000Y-63750000D03*
X171000000Y-83750000D03*
D28*
X132250000Y-68750000D03*
X128250000Y-62250000D03*
X130000000Y-68750000D03*
D27*
X161500000Y-68750000D03*
D28*
X151750000Y-68250000D03*
X148250000Y-61250000D03*
D27*
X175000000Y-72500000D03*
D28*
X118750000Y-64000000D03*
D29*
X123750000Y-96250000D02*
X124000000Y-96250000D01*
D30*
X124000000Y-96250000D02*
X127500000Y-92750000D01*
X127500000Y-92750000D02*
X131750000Y-92750000D01*
X131750000Y-92750000D02*
X132750000Y-93750000D01*
X132750000Y-93750000D02*
X132750000Y-95250000D01*
X127270000Y-112500000D02*
X127750000Y-112500000D01*
X127750000Y-112500000D02*
X132750000Y-107500000D01*
X132750000Y-107500000D02*
X132750000Y-95250000D01*
X121980000Y-56480000D02*
X125750000Y-60250000D01*
X125750000Y-60250000D02*
X129750000Y-60250000D01*
X129750000Y-60250000D02*
X132250000Y-62750000D01*
X132250000Y-62750000D02*
X132250000Y-68750000D01*
X121980000Y-52500000D02*
X121980000Y-56480000D01*
X121980000Y-52500000D02*
X120250000Y-52500000D01*
X128250000Y-62250000D02*
X130000000Y-64000000D01*
X130000000Y-64000000D02*
X130000000Y-68750000D01*
X124520000Y-52500000D02*
X126250000Y-52500000D01*
D29*
X189000000Y-111170000D02*
X189000000Y-111000000D01*
D31*
X118500000Y-68420000D02*
X118500000Y-68500000D01*
D32*
X197500000Y-107580000D02*
X197080000Y-107580000D01*
X193000000Y-107580000D02*
X192590000Y-107580000D01*
X192590000Y-107580000D02*
X189000000Y-111170000D01*
X197500000Y-107580000D02*
X193000000Y-107580000D01*
X186750000Y-108920000D02*
X189000000Y-111170000D01*
X185000000Y-107170000D02*
X186750000Y-108920000D01*
X185000000Y-102250000D02*
X185000000Y-107170000D01*
X182000000Y-99250000D02*
X185000000Y-102250000D01*
X182000000Y-89250000D02*
X182000000Y-99250000D01*
X161500000Y-68750000D02*
X182000000Y-89250000D01*
D30*
X186830000Y-109000000D02*
X186750000Y-109000000D01*
X186750000Y-109000000D02*
X186750000Y-108920000D01*
X180270000Y-109000000D02*
X186830000Y-109000000D01*
D33*
X161920000Y-99500000D02*
X162000000Y-99500000D01*
D30*
X162000000Y-99500000D02*
X165000000Y-102500000D01*
X165000000Y-108420000D02*
X161920000Y-111500000D01*
X165000000Y-102500000D02*
X165000000Y-108420000D01*
X161920000Y-111500000D02*
X161920000Y-113500000D01*
X161920000Y-113500000D02*
X161920000Y-116000000D01*
D33*
X161920000Y-90500000D02*
X161920000Y-90670000D01*
D30*
X161920000Y-90670000D02*
X165000000Y-93750000D01*
X165000000Y-96420000D02*
X161920000Y-99500000D01*
X165000000Y-93750000D02*
X165000000Y-96420000D01*
D32*
X94580000Y-101580000D02*
X92500000Y-99500000D01*
X92500000Y-99500000D02*
X92500000Y-84500000D01*
X92500000Y-84500000D02*
X98960000Y-78040000D01*
X98960000Y-78040000D02*
X105000000Y-78040000D01*
X94580000Y-104000000D02*
X94580000Y-101580000D01*
D31*
X150540000Y-82000000D02*
X155000000Y-77540000D01*
X122000000Y-82000000D02*
X150540000Y-82000000D01*
X118580000Y-78580000D02*
X122000000Y-82000000D01*
X118500000Y-78580000D02*
X118580000Y-78580000D01*
D30*
X161920000Y-85330000D02*
X163500000Y-83750000D01*
X161920000Y-90500000D02*
X161920000Y-85330000D01*
X141500000Y-77500000D02*
X141500000Y-72460000D01*
D33*
X141500000Y-72460000D02*
X141500000Y-72500000D01*
X141500000Y-72500000D02*
X141500000Y-72460000D01*
D31*
X152000000Y-62000000D02*
X152000000Y-53000000D01*
X155000000Y-65000000D02*
X152000000Y-62000000D01*
X155000000Y-72460000D02*
X155000000Y-65000000D01*
X115540000Y-72460000D02*
X113500000Y-70420000D01*
X155000000Y-72460000D02*
X141500000Y-72460000D01*
X141500000Y-72460000D02*
X115540000Y-72460000D01*
D32*
X194500000Y-122500000D02*
X198000000Y-119000000D01*
X194500000Y-125580000D02*
X194500000Y-122500000D01*
X201750000Y-117750000D02*
X201750000Y-107580000D01*
X200500000Y-119000000D02*
X201750000Y-117750000D01*
X198000000Y-119000000D02*
X200500000Y-119000000D01*
X143000000Y-109500000D02*
X163500000Y-130000000D01*
X170000000Y-130000000D02*
X190080000Y-130000000D01*
X163500000Y-130000000D02*
X170000000Y-130000000D01*
X190080000Y-130000000D02*
X194500000Y-125580000D01*
X143000000Y-106920000D02*
X143000000Y-109500000D01*
D30*
X151750000Y-68250000D02*
X151750000Y-66000000D01*
X151750000Y-66000000D02*
X148250000Y-62500000D01*
X148250000Y-62500000D02*
X148250000Y-61250000D01*
X136750000Y-63000000D02*
X138250000Y-61500000D01*
X136750000Y-67500000D02*
X136750000Y-63000000D01*
X136750000Y-63000000D02*
X135250000Y-61500000D01*
X138670000Y-67500000D02*
X136750000Y-67500000D01*
X136750000Y-67500000D02*
X134830000Y-67500000D01*
D31*
X135250000Y-61500000D02*
X138250000Y-61500000D01*
D32*
X171500000Y-60250000D02*
X171000000Y-60250000D01*
X175000000Y-72500000D02*
X175000000Y-63750000D01*
X175000000Y-63750000D02*
X171500000Y-60250000D01*
X124500000Y-130000000D02*
X121000000Y-126500000D01*
X121000000Y-126500000D02*
X107420000Y-126500000D01*
X107420000Y-126500000D02*
X103670000Y-122750000D01*
X146000000Y-130000000D02*
X124500000Y-130000000D01*
X103670000Y-122750000D02*
X103830000Y-122750000D01*
X101250000Y-95830000D02*
X101250000Y-98250000D01*
D30*
X127750000Y-98250000D02*
X101250000Y-98250000D01*
X131480000Y-95250000D02*
X130750000Y-95250000D01*
X130750000Y-95250000D02*
X127750000Y-98250000D01*
D32*
X103670000Y-116420000D02*
X100000000Y-112750000D01*
X100000000Y-112750000D02*
X100000000Y-99500000D01*
X100000000Y-99500000D02*
X101250000Y-98250000D01*
X103670000Y-117000000D02*
X103670000Y-116420000D01*
X103670000Y-122750000D02*
X103670000Y-117000000D01*
X103670000Y-116750000D02*
X103920000Y-117000000D01*
X103920000Y-117000000D02*
X104000000Y-117000000D01*
X104000000Y-117000000D02*
X103670000Y-117000000D01*
X109830000Y-116750000D02*
X103670000Y-116750000D01*
D29*
X189000000Y-121330000D02*
X189000000Y-121250000D01*
D30*
X189000000Y-121250000D02*
X194750000Y-115500000D01*
X194750000Y-115500000D02*
X198000000Y-115500000D01*
X180270000Y-123000000D02*
X187330000Y-123000000D01*
X187330000Y-123000000D02*
X189000000Y-121330000D01*
X180250000Y-112250000D02*
X184000000Y-112250000D01*
X179000000Y-111000000D02*
X180250000Y-112250000D01*
X179000000Y-109000000D02*
X179000000Y-111000000D01*
X189000000Y-117250000D02*
X189000000Y-121330000D01*
X184000000Y-112250000D02*
X189000000Y-117250000D01*
D29*
X109420000Y-107500000D02*
X109920000Y-107000000D01*
D30*
X118750000Y-64000000D02*
X115750000Y-67000000D01*
X115750000Y-67000000D02*
X112750000Y-67000000D01*
X112750000Y-67000000D02*
X110000000Y-69750000D01*
X110000000Y-69750000D02*
X110000000Y-82500000D01*
X110000000Y-82500000D02*
X113000000Y-85500000D01*
X113000000Y-85500000D02*
X113000000Y-89750000D01*
X113000000Y-89750000D02*
X111750000Y-91000000D01*
X111750000Y-91000000D02*
X111750000Y-93750000D01*
X123250000Y-52500000D02*
X123250000Y-51000000D01*
X124670000Y-67500000D02*
X124670000Y-64170000D01*
X124670000Y-64170000D02*
X118000000Y-57500000D01*
X118000000Y-57500000D02*
X106000000Y-57500000D01*
X106000000Y-57500000D02*
X104412000Y-55912000D01*
X104412000Y-55912000D02*
X104412000Y-53000000D01*
D33*
X146412000Y-53000000D02*
X146412000Y-53088000D01*
D30*
X146412000Y-53088000D02*
X145000000Y-54500000D01*
X145000000Y-63670000D02*
X148830000Y-67500000D01*
X145000000Y-54500000D02*
X145000000Y-63670000D01*
D31*
X157588000Y-60838000D02*
X158250000Y-61500000D01*
X157588000Y-53000000D02*
X157588000Y-60838000D01*
D30*
X177730000Y-123000000D02*
X177730000Y-116000000D01*
X172080000Y-116000000D02*
X172080000Y-114650000D01*
X172080000Y-114650000D02*
X177730000Y-109000000D01*
X113670000Y-118250000D02*
X113670000Y-106170000D01*
X113670000Y-106170000D02*
X112000000Y-104500000D01*
X112000000Y-104500000D02*
X104750000Y-104500000D01*
X104750000Y-104500000D02*
X102750000Y-102500000D01*
M02*
