M48
INCH,TZ
T1C0.020
T2C0.024
T3C0.028
T4C0.031
T5C0.032
T6C0.032
T7C0.039
T8C0.039
T9C0.040
T10C0.050
T11C0.051
T12C0.059
T13C0.059
T14C0.071
T15C0.079
T16C0.106
%
G90
G05
T1
X46752Y-25197
X50492Y-24508
X51181Y-27067
X52067Y-27067
X58366Y-24114
X59744Y-26870
T2
X37303Y-34244
X37303Y-34744
X37303Y-35244
X37303Y-37197
X37303Y-37697
X37303Y-38197
X40543Y-43504
X41043Y-43504
X41543Y-43504
X48024Y-20669
X48524Y-20669
X49024Y-20669
X49106Y-41929
X49106Y-44291
X49606Y-41929
X49606Y-44291
X50106Y-41929
X50106Y-44291
X51764Y-34941
X51764Y-37500
X52264Y-34941
X52264Y-37500
X52764Y-34941
X52764Y-37500
X53339Y-42028
X53339Y-44390
X53839Y-42028
X53839Y-44390
X54339Y-42028
X54339Y-44390
X69972Y-40157
X69972Y-42913
X69972Y-45669
X69972Y-48425
X70472Y-40157
X70472Y-42913
X70472Y-45669
X70472Y-48425
X70972Y-40157
X70972Y-42913
X70972Y-45669
X70972Y-48425
T3
X63748Y-39173
X63748Y-40748
X63748Y-42323
X63748Y-43898
X67748Y-39173
X67748Y-40748
X67748Y-42323
X67748Y-43898
T4
X40453Y-40354
X42421Y-40354
X51476Y-47146
X51476Y-49114
X61713Y-42913
X61713Y-43898
X69685Y-35630
X70669Y-35630
T5
X35236Y-40945
X37236Y-40945
X41339Y-28724
X41339Y-30724
X46130Y-48327
X48130Y-48327
X48720Y-35894
X48720Y-37894
X49500Y-33858
X50500Y-33858
X57480Y-42126
X59480Y-42126
X61024Y-28528
X61024Y-30528
X72835Y-34744
X72835Y-36744
T6
X43996Y-36909
X44996Y-36909
X45996Y-36909
T7
X44488Y-51476
X45488Y-51476
T8
X34024Y-42717
X34024Y-44882
X35335Y-34713
X35335Y-38713
X38024Y-42717
X38945Y-24016
X38945Y-26378
X39240Y-45965
X39862Y-33728
X39862Y-37728
X40815Y-48327
X41634Y-33728
X41634Y-37728
X42945Y-24016
X42945Y-26378
X43177Y-34154
X43240Y-45965
X43276Y-42126
X43276Y-44094
X44685Y-31724
X44752Y-40059
X44752Y-46555
X44815Y-48327
X45374Y-24213
X46654Y-26937
X47177Y-34154
X47276Y-42126
X47276Y-44094
X48752Y-40059
X48752Y-46555
X49083Y-26575
X49197Y-30512
X50197Y-30512
X50264Y-40059
X51197Y-30512
X53083Y-26575
X53248Y-24213
X54264Y-40059
X54429Y-24213
X54496Y-33661
X54496Y-35433
X54594Y-26575
X54626Y-45933
X54626Y-49933
X54709Y-30512
X55709Y-30512
X56299Y-36780
X56299Y-40780
X56299Y-42094
X56299Y-46094
X56709Y-30512
X58496Y-33661
X58496Y-35433
X58594Y-26575
X62205Y-37075
X62205Y-41075
X62303Y-24213
X63748Y-37598
X63748Y-45669
X67748Y-35630
X67748Y-37598
X67748Y-45669
X69063Y-38583
X70177Y-32185
X72508Y-49508
X73063Y-38583
X74409Y-43768
X74409Y-47768
X74705Y-35925
X74705Y-41831
X76083Y-32185
X76508Y-49508
X77756Y-42354
X79429Y-38354
T9
X77953Y-45472
T10
X38024Y-44882
X44685Y-27724
X46654Y-30937
X63748Y-35630
X77756Y-38354
X79429Y-42354
T11
X34252Y-27165
X34252Y-29134
X57480Y-51181
X59449Y-51181
X61417Y-51181
X64370Y-25098
X64370Y-32972
X67323Y-23720
X67323Y-26476
X67323Y-32972
T12
X63583Y-27067
X68898Y-28543
T13
X41107Y-20866
X43307Y-20866
X45507Y-20866
X57643Y-20866
X59843Y-20866
X62043Y-20866
T14
X72835Y-23228
X72835Y-30315
T15
X77559Y-33465
X77559Y-36220
X79528Y-33465
X79528Y-36220
T16
X35039Y-22047
X35039Y-50394
X79921Y-22047
X79921Y-50394
T0
M30
