<?xml version="1.0" encoding="UTF-8" standalone="no"?>
<!-- Creator: CorelDRAW -->

<svg
   xmlns:dc="http://purl.org/dc/elements/1.1/"
   xmlns:cc="http://creativecommons.org/ns#"
   xmlns:rdf="http://www.w3.org/1999/02/22-rdf-syntax-ns#"
   xmlns:svg="http://www.w3.org/2000/svg"
   xmlns="http://www.w3.org/2000/svg"
   xmlns:sodipodi="http://sodipodi.sourceforge.net/DTD/sodipodi-0.dtd"
   xmlns:inkscape="http://www.inkscape.org/namespaces/inkscape"
   xml:space="preserve"
   width="369.80368"
   height="124.69803"
   style="fill-rule:evenodd"
   viewBox="0 0 4108.9298 1385.5335"
   id="svg2"
   version="1.1"
   inkscape:version="0.48.4 r9939"
   sodipodi:docname="asd.svg"><metadata
     id="metadata35"><rdf:RDF><cc:Work
         rdf:about=""><dc:format>image/svg+xml</dc:format><dc:type
           rdf:resource="http://purl.org/dc/dcmitype/StillImage" /><dc:title /></cc:Work></rdf:RDF></metadata><sodipodi:namedview
     pagecolor="#ffffff"
     bordercolor="#666666"
     borderopacity="1"
     objecttolerance="10"
     gridtolerance="10"
     guidetolerance="10"
     inkscape:pageopacity="0"
     inkscape:pageshadow="2"
     inkscape:window-width="1920"
     inkscape:window-height="1150"
     id="namedview33"
     showgrid="true"
     inkscape:snap-global="false"
     fit-margin-top="0"
     fit-margin-left="0"
     fit-margin-right="0"
     fit-margin-bottom="0"
     inkscape:zoom="2"
     inkscape:cx="183.30896"
     inkscape:cy="71.559716"
     inkscape:window-x="-4"
     inkscape:window-y="-3"
     inkscape:window-maximized="1"
     inkscape:current-layer="svg2"><inkscape:grid
       type="xygrid"
       id="grid3035"
       empspacing="5"
       visible="true"
       enabled="true"
       snapvisiblegridlinesonly="true"
       originx="-32.595086px"
       originy="20.00113px" /></sodipodi:namedview><defs
     id="defs4"><style
       type="text/css"
       id="style6">
    .fil0 {fill:#000000}
    .fil1 {fill:#FFFFFF}
   </style></defs><path
     class="fil0"
     d="m 1402.7204,1000.3924 0,-18.65751 0,-18.1811 0,-18.1811 0,-18.6575 0,-18.1811 0,-18.1811 0,-18.1772 0,-18.1811 71.7638,0 71.7638,0 71.2835,0 71.7638,0 71.7638,0 71.2874,0 71.7638,0 71.7638,0 71.7638,0 71.2835,0 71.7638,0 71.7638,0 71.2835,0 71.7638,0 71.7638,0 71.2874,0 0,-20.5709 0,-21.0512 0,-21.0512 0,-21.0512 0,-20.5709 0,-21.0512 0,-20.5748 0,-21.0512 -71.2874,0 -71.7638,0 -71.7638,0 -71.2835,0 -71.7638,0 -71.7638,0 -71.2835,0 -71.7638,0 -71.7638,0 -71.7638,0 -71.2874,0 -71.7638,0 -71.7638,0 -71.2835,0 -71.7638,0 -71.7638,0 0,-28.7047 0,-28.2244 0,-28.7087 0,-28.7047 0,-28.7047 0,-28.7047 0,-28.7047 0,-28.7047 0,-28.7087 0,-28.7047 0,-28.2244 0,-28.7087 0,-28.7047 0,-28.7047 0,-28.2283 0,-28.7047 81.3307,0 81.3346,0 81.811,0 81.3307,0 81.3307,0 81.3346,0 81.3307,0 81.3307,0 81.3346,0 81.3307,0 81.3307,0 81.3346,0 81.3307,0 81.3346,0 81.3307,0 81.3307,0 0,18.1811 0,18.1811 0,18.1772 0,18.1811 0,18.1811 0,18.6575 0,18.1811 0,18.1811 -71.2835,0 -71.7638,0 -71.7638,0 -71.2874,0 -71.7638,0 -71.7598,0 -71.2874,0 -71.7638,0 -71.7638,0 -71.7638,0 -71.2835,0 -71.7638,0 -71.7638,0 -71.2874,0 -71.7638,0 -71.7598,0 0,20.5709 0,21.0512 0,20.5709 0,20.5748 0,20.5709 0,21.0512 0,20.5709 0,21.0512 71.7598,0 71.7638,0 71.2874,0 71.7638,0 71.7638,0 71.2835,0 71.7638,0 71.7638,0 71.7638,0 71.2874,0 71.7598,0 71.7638,0 71.2874,0 71.7638,0 71.7638,0 71.2835,0 0,28.7047 0,28.7047 0,28.7087 0,28.7047 0,28.7047 0,28.7047 0,28.7047 0,28.7047 0,28.7087 0,28.7047 0,28.7047 0,28.7047 0,28.7047 0,28.7087 0,28.7047 0,28.70471 -81.3307,0 -81.3307,0 -81.3346,0 -81.3307,0 -81.3346,0 -81.3307,0 -81.3307,0 -81.3346,0 -81.3307,0 -81.3307,0 -81.3346,0 -81.3307,0 -81.3307,0 -81.811,0 -81.3346,0 -81.3307,0 z"
     id="path11"
     inkscape:connector-curvature="0"
     style="fill:#000000" /><path
     class="fil0"
     d="m 2804.5473,990.38167 0,-47.84248 0,-47.3661 0,-47.8425 0,-47.8386 0,-47.3661 0,-47.8425 0,-47.3622 0,-47.3661 0,-47.8425 0,-47.3622 0,-47.8425 0,-47.3661 0,-47.3622 0,-47.8425 0,-47.3661 0,-47.3622 81.3346,0 81.3307,0 81.3346,0 81.3307,0 81.3307,0 81.3346,0 81.3307,0 81.811,0 81.3307,0 81.3307,0 81.3346,0 81.3307,0 81.811,0 81.3307,0 81.3346,0 81.811,0 0,18.1811 0,18.1811 0,18.1772 0,18.1811 0,18.1811 0,18.1811 0,18.6575 0,18.1811 -71.7638,0 -71.2874,0 -71.7638,0 -71.7638,0 -71.7638,0 -71.2835,0 -71.7638,0 -71.7638,0 -71.2835,0 -71.7638,0 -71.7638,0 -71.2874,0 -71.7638,0 -71.7638,0 -71.2835,0 -71.7638,0 0,29.1811 0,29.185 0,29.6614 0,29.185 0,29.185 0,29.1811 0,29.185 0,29.6614 0,29.185 0,29.185 0,29.1811 0,29.6654 0,29.1811 0,29.6614 0,29.185 0,29.185 71.7638,0 71.2835,0 71.7638,0 71.7638,0 71.2874,0 71.7638,0 71.7638,0 71.2835,0 71.7638,0 71.7638,0 71.2835,0 71.7638,0 71.7638,0 71.7638,0 71.2874,0 71.7638,0 0,18.1811 0,18.1772 0,18.1811 0,18.1811 0,18.6575 0,18.1811 0,18.1811 0,18.65748 -81.811,0 -81.3346,0 -81.3307,0 -81.811,0 -81.3307,0 -81.3346,0 -81.3307,0 -81.3307,0 -81.811,0 -81.3307,0 -81.3346,0 -81.3307,0 -81.3307,0 -81.3346,0 -81.3307,0 -81.3346,0 z"
     id="path17"
     inkscape:connector-curvature="0"
     style="fill:#000000" /><path
     class="fil0"
     d="m 3951.2981,990.33827 0,-62.19688 0,-61.7165 0,-61.7165 0,-62.1929 0,-61.7165 0,-61.7165 0,-62.1969 0,-61.7165 0,-61.7165 0,-62.1969 0,-61.7165 0,-61.7165 0,-62.1929 0,-61.7165 0,-61.716489 0,-62.196899816003 19.6181,0 19.6142,0 19.6142,0 19.1378,0 19.6142,0 19.6181,0 19.6142,0 19.1378,0 0,62.196899816003 0,61.716489 0,61.7165 0,62.1929 0,61.7165 0,61.7165 0,62.1969 0,61.7165 0,61.7165 0,62.1969 0,61.7165 0,61.7165 0,62.1929 0,61.7165 0,61.7165 0,62.19688 -19.1378,0 -19.6142,0 -19.6181,0 -19.6142,0 -19.1378,0 -19.6142,0 -19.6142,0 -19.6181,0 z"
     id="path19"
     inkscape:connector-curvature="0"
     style="fill:#000000" /><path
     class="fil0"
     d="m 0,990.28697 0,-28.22828 0,-28.2244 0,-27.752 0,-28.2245 0,-28.2283 0,-27.748 0,-28.2283 0,-27.748 0,-28.2283 0,-27.748 0,-28.2244 0,-27.748 0,-28.2283 0,-27.748 0,-27.748 0,-28.2283 71.2874,0 71.7638,0 71.7638,0 71.2835,0 71.7638,0 71.7638,0 71.7638,0 71.2835,0 71.76388,0 71.7638,0 71.2874,0 71.7638,0 71.7638,0 71.28352,0 71.7638,0 71.7638,0 0,-21.0512 0,-21.0512 0,-20.5709 0,-21.0512 0,-21.0512 0,-20.5709 0,-21.0512 0,-20.5709 -71.7638,0 -71.7638,0 -71.28352,0 -71.7638,0 -71.7638,0 -71.2874,0 -71.7638,0 -71.76388,0 -71.2835,0 -71.7638,0 -71.7638,0 -71.7638,0 -71.2835,0 -71.7638,0 -71.7638,0 -71.2874,0 0,-18.1811 0,-18.6575 0,-18.1811 0,-18.1811 0,-18.1811 0,-18.1772 0,-18.1811 0,-18.1811 81.3346,0 81.3307,0 81.3307,0 81.3346,0 81.3307,0 81.3307,0 81.3346,0 81.81108,0 81.3307,0 81.3307,0 81.3346,0 81.3307,0 81.81102,0 81.3307,0 81.3346,0 81.8071,0 0,47.3622 0,47.3661 0,47.8425 0,47.3622 0,47.3661 0,47.8425 0,47.3622 0,47.8425 0,47.3661 0,47.3622 0,47.8425 0,47.3661 0,47.8386 0,47.8425 0,47.3662 0,47.84248 -81.8071,0 -81.3346,0 -81.3307,0 -81.81102,0 -81.3307,0 -81.3346,0 -81.3307,0 -81.3307,0 -81.81108,0 -81.3346,0 -81.3307,0 -81.3307,0 -81.3346,0 -81.3307,0 -81.3307,0 -81.3346,0 z"
     id="path21"
     inkscape:connector-curvature="0"
     style="fill:#000000" /><path
     class="fil1"
     d="m 156.92,843.88789 0,-20.5709 0,-20.5748 0,-21.0512 0,-20.5709 0,-21.0512 0,-21.0512 0,-21.0512 0,-21.0512 61.7165,0 61.7165,0 61.7165,0 61.7165,0 61.7165,0 61.7165,0 61.7165,0 62.19698,0 61.7165,0 61.7165,0 61.7165,0 62.1929,0 61.7165,0 61.71652,0 61.7165,0 62.1969,0 0,21.0512 0,20.5748 0,21.0512 0,20.5709 0,21.0512 0,21.0512 0,21.0512 0,20.5709 -61.7165,0 -61.7165,0 -61.71652,0 -61.7165,0 -61.7165,0 -62.1969,0 -61.7165,0 -61.7165,0 -61.71658,0 -61.7165,0 -62.1969,0 -61.7165,0 -61.7165,0 -62.1929,0 -61.7165,0 -61.7165,0 z"
     id="path27"
     inkscape:connector-curvature="0"
     style="fill:#ffffff" /><text
     xml:space="preserve"
     style="font-size:444.44442749px;font-style:normal;font-weight:normal;line-height:125%;letter-spacing:0px;word-spacing:0px;fill:#000000;fill-opacity:1;stroke:none;font-family:Sans"
     x="-6.2090478"
     y="1329.7002"
     id="text3037"
     sodipodi:linespacing="125%"><tspan
       sodipodi:role="line"
       id="tspan3039"
       x="-6.2090478"
       y="1329.7002"
       style="font-size:283.33333454px;font-style:normal;font-variant:normal;font-weight:bold;font-stretch:normal;font-family:Latin Modern Roman Slanted;-inkscape-font-specification:Latin Modern Roman Slanted Bold">Integrert forsterker modell 1</tspan></text>
</svg>