<?xml version="1.0" encoding="UTF-8" standalone="no"?>
<!-- Created with Inkscape (http://www.inkscape.org/) -->

<svg
   xmlns:dc="http://purl.org/dc/elements/1.1/"
   xmlns:cc="http://creativecommons.org/ns#"
   xmlns:rdf="http://www.w3.org/1999/02/22-rdf-syntax-ns#"
   xmlns:svg="http://www.w3.org/2000/svg"
   xmlns="http://www.w3.org/2000/svg"
   xmlns:sodipodi="http://sodipodi.sourceforge.net/DTD/sodipodi-0.dtd"
   xmlns:inkscape="http://www.inkscape.org/namespaces/inkscape"
   width="744.09448"
   height="1052.3622"
   id="svg3015"
   version="1.1"
   inkscape:version="0.48.4 r9939"
   sodipodi:docname="panel.svg">
  <defs
     id="defs3017" />
  <sodipodi:namedview
     id="base"
     pagecolor="#ffffff"
     bordercolor="#666666"
     borderopacity="1.0"
     inkscape:pageopacity="0.0"
     inkscape:pageshadow="2"
     inkscape:zoom="0.7"
     inkscape:cx="517.65559"
     inkscape:cy="728.09362"
     inkscape:document-units="mm"
     inkscape:current-layer="layer1"
     showgrid="true"
     units="mm"
     objecttolerance="1"
     gridtolerance="1"
     guidetolerance="1"
     inkscape:window-width="1920"
     inkscape:window-height="1150"
     inkscape:window-x="-4"
     inkscape:window-y="-3"
     inkscape:window-maximized="1">
    <inkscape:grid
       type="xygrid"
       id="grid3042"
       units="cm"
       empspacing="2"
       visible="true"
       enabled="true"
       snapvisiblegridlinesonly="true"
       spacingx="0.5cm"
       spacingy="0.5cm" />
  </sodipodi:namedview>
  <metadata
     id="metadata3020">
    <rdf:RDF>
      <cc:Work
         rdf:about="">
        <dc:format>image/svg+xml</dc:format>
        <dc:type
           rdf:resource="http://purl.org/dc/dcmitype/StillImage" />
        <dc:title></dc:title>
      </cc:Work>
    </rdf:RDF>
  </metadata>
  <g
     inkscape:label="Layer 1"
     inkscape:groupmode="layer"
     id="layer1"
     transform="translate(0,1.972441e-5)">
    <path
       class="fil0"
       d="m 470.01369,189.84485 0,-0.57733 0,-0.56259 0,-0.56258 0,-0.57733 0,-0.5626 0,-0.56259 0,-0.56247 0,-0.56258 2.22066,0 2.22062,0 2.20577,0 2.22065,0 2.22062,0 2.20591,0 2.22063,0 2.22062,0 2.22065,0 2.20577,0 2.22062,0 2.22066,0 2.20577,0 2.22062,0 2.22065,0 2.20591,0 0,-0.63655 0,-0.6514 0,-0.65141 0,-0.65138 0,-0.63655 0,-0.6514 0,-0.63666 0,-0.6514 -2.20591,0 -2.22065,0 -2.22062,0 -2.20577,0 -2.22066,0 -2.22062,0 -2.20577,0 -2.22065,0 -2.22062,0 -2.22063,0 -2.20591,0 -2.22062,0 -2.22065,0 -2.20577,0 -2.22062,0 -2.22066,0 0,-0.88824 0,-0.87336 0,-0.88835 0,-0.88823 0,-0.88824 0,-0.88822 0,-0.88824 0,-0.88822 0,-0.88835 0,-0.88824 0,-0.87336 0,-0.88835 0,-0.88823 0,-0.88823 0,-0.87348 0,-0.88823 2.51669,0 2.51678,0 2.53154,0 2.51665,0 2.51669,0 2.51678,0 2.51669,0 2.51665,0 2.51682,0 2.51664,0 2.51669,0 2.51678,0 2.51669,0 2.51678,0 2.51666,0 2.51668,0 0,0.56259 0,0.56259 0,0.56246 0,0.56259 0,0.56259 0,0.57733 0,0.5626 0,0.56259 -2.20577,0 -2.22066,0 -2.22061,0 -2.20591,0 -2.22062,0 -2.22052,0 -2.20591,0 -2.22062,0 -2.22063,0 -2.22065,0 -2.20577,0 -2.22062,0 -2.22066,0 -2.20586,0 -2.22066,0 -2.22052,0 0,0.63654 0,0.6514 0,0.63654 0,0.63666 0,0.63654 0,0.6514 0,0.63655 0,0.65139 2.22052,0 2.22066,0 2.20586,0 2.22066,0 2.22062,0 2.20577,0 2.22065,0 2.22063,0 2.22062,0 2.20591,0 2.22052,0 2.22062,0 2.20591,0 2.22061,0 2.22066,0 2.20577,0 0,0.88824 0,0.88821 0,0.88836 0,0.88824 0,0.88822 0,0.88823 0,0.88823 0,0.88823 0,0.88836 0,0.88822 0,0.88823 0,0.88823 0,0.88823 0,0.88835 0,0.88822 0,0.88823 -2.51668,0 -2.51666,0 -2.51678,0 -2.51669,0 -2.51678,0 -2.51669,0 -2.51664,0 -2.51682,0 -2.51665,0 -2.51669,0 -2.51678,0 -2.51669,0 -2.51665,0 -2.53154,0 -2.51678,0 -2.51669,0 z"
       id="path11"
       inkscape:connector-curvature="0"
       style="fill:#000000;fill-rule:evenodd" />
    <path
       class="fil0"
       d="m 513.39137,189.53508 0,-1.48041 0,-1.46569 0,-1.48042 0,-1.4803 0,-1.46568 0,-1.48042 0,-1.46556 0,-1.46569 0,-1.48042 0,-1.46557 0,-1.48042 0,-1.46568 0,-1.46556 0,-1.48043 0,-1.46566 0,-1.46557 2.5168,0 2.51668,0 2.51679,0 2.51668,0 2.51665,0 2.51682,0 2.51666,0 2.53154,0 2.51668,0 2.51665,0 2.51683,0 2.51665,0 2.53153,0 2.51668,0 2.51679,0 2.53153,0 0,0.56259 0,0.56259 0,0.56247 0,0.56258 0,0.5626 0,0.56258 0,0.57735 0,0.56257 -2.22065,0 -2.20586,0 -2.22067,0 -2.22062,0 -2.22066,0 -2.20575,0 -2.22063,0 -2.22066,0 -2.20577,0 -2.22063,0 -2.22066,0 -2.20586,0 -2.22066,0 -2.22062,0 -2.20578,0 -2.22064,0 0,0.90298 0,0.90309 0,0.91783 0,0.90309 0,0.9031 0,0.90297 0,0.9031 0,0.91782 0,0.9031 0,0.90308 0,0.90298 0,0.91794 0,0.90298 0,0.91784 0,0.90308 0,0.9031 2.22064,0 2.20578,0 2.22062,0 2.22066,0 2.20586,0 2.22066,0 2.22063,0 2.20577,0 2.22066,0 2.22063,0 2.20575,0 2.22066,0 2.22062,0 2.22067,0 2.20586,0 2.22065,0 0,0.5626 0,0.56246 0,0.56258 0,0.5626 0,0.57733 0,0.56259 0,0.56259 0,0.57733 -2.53153,0 -2.51679,0 -2.51668,0 -2.53153,0 -2.51665,0 -2.51683,0 -2.51665,0 -2.51668,0 -2.53154,0 -2.51666,0 -2.51682,0 -2.51665,0 -2.51668,0 -2.51679,0 -2.51668,0 -2.5168,0 z"
       id="path17"
       inkscape:connector-curvature="0"
       style="fill:#000000;fill-rule:evenodd" />
    <path
       class="fil0"
       d="m 548.87609,189.53374 0,-1.9246 0,-1.90973 0,-1.90973 0,-1.92448 0,-1.90973 0,-1.90975 0,-1.92459 0,-1.90974 0,-1.90974 0,-1.9246 0,-1.90973 0,-1.90974 0,-1.92448 0,-1.90974 0,-1.90973 0,-1.9246 0.60705,0 0.60694,0 0.60694,0 0.5922,0 0.60695,0 0.60704,0 0.60694,0 0.59219,0 0,1.9246 0,1.90973 0,1.90974 0,1.92448 0,1.90974 0,1.90973 0,1.9246 0,1.90974 0,1.90974 0,1.92459 0,1.90975 0,1.90973 0,1.92448 0,1.90973 0,1.90973 0,1.9246 -0.59219,0 -0.60694,0 -0.60704,0 -0.60695,0 -0.5922,0 -0.60694,0 -0.60694,0 -0.60705,0 z"
       id="path19"
       inkscape:connector-curvature="0"
       style="fill:#000000;fill-rule:evenodd" />
    <path
       class="fil0"
       d="m 426.60838,189.53215 0,-0.87349 0,-0.87336 0,-0.85875 0,-0.87336 0,-0.87349 0,-0.85862 0,-0.8735 0,-0.85861 0,-0.8735 0,-0.85863 0,-0.87337 0,-0.85862 0,-0.87347 0,-0.85864 0,-0.85862 0,-0.87349 2.20586,0 2.22067,0 2.22061,0 2.20577,0 2.22065,0 2.22063,0 2.22066,0 2.20576,0 2.22062,0 2.22066,0 2.20587,0 2.22065,0 2.22063,0 2.20577,0 2.22066,0 2.22062,0 0,-0.6514 0,-0.6514 0,-0.63654 0,-0.6514 0,-0.6514 0,-0.63655 0,-0.65139 0,-0.63654 -2.22062,0 -2.22066,0 -2.20577,0 -2.22063,0 -2.22065,0 -2.20587,0 -2.22066,0 -2.22062,0 -2.20576,0 -2.22066,0 -2.22063,0 -2.22065,0 -2.20577,0 -2.22061,0 -2.22067,0 -2.20586,0 0,-0.56259 0,-0.57734 0,-0.56259 0,-0.56259 0,-0.56259 0,-0.56246 0,-0.5626 0,-0.56259 2.51678,0 2.51668,0 2.51665,0 2.51679,0 2.51669,0 2.51667,0 2.51679,0 2.53155,0 2.51664,0 2.51668,0 2.51679,0 2.51669,0 2.53154,0 2.51664,0 2.51679,0 2.53143,0 0,1.46556 0,1.46568 0,1.48042 0,1.46557 0,1.46567 0,1.48043 0,1.46557 0,1.48042 0,1.46567 0,1.46556 0,1.48043 0,1.46568 0,1.48031 0,1.48042 0,1.46568 0,1.48042 -2.53143,0 -2.51679,0 -2.51664,0 -2.53154,0 -2.51669,0 -2.51679,0 -2.51668,0 -2.51664,0 -2.53155,0 -2.51679,0 -2.51667,0 -2.51669,0 -2.51679,0 -2.51665,0 -2.51668,0 -2.51678,0 z"
       id="path21"
       inkscape:connector-curvature="0"
       style="fill:#000000;fill-rule:evenodd" />
    <path
       class="fil1"
       d="m 431.46406,185.00203 0,-0.63654 0,-0.63666 0,-0.6514 0,-0.63654 0,-0.6514 0,-0.6514 0,-0.6514 0,-0.65141 1.90974,0 1.9097,0 1.90975,0 1.90973,0 1.90974,0 1.90974,0 1.90975,0 1.92459,0 1.90974,0 1.90974,0 1.90974,0 1.92446,0 1.90975,0 1.90973,0 1.90974,0 1.9246,0 0,0.65141 0,0.63666 0,0.65139 0,0.63654 0,0.65141 0,0.65141 0,0.65139 0,0.63654 -1.90975,0 -1.90974,0 -1.90974,0 -1.9097,0 -1.90975,0 -1.92463,0 -1.9097,0 -1.90974,0 -1.90974,0 -1.90974,0 -1.92459,0 -1.90975,0 -1.90975,0 -1.92448,0 -1.9097,0 -1.90974,0 z"
       id="path27"
       inkscape:connector-curvature="0"
       style="fill:#ffffff;fill-rule:evenodd" />
    <text
       xml:space="preserve"
       style="font-size:13.75274754px;font-style:normal;font-weight:normal;line-height:125%;letter-spacing:0px;word-spacing:0px;fill:#000000;fill-opacity:1;fill-rule:evenodd;stroke:none;font-family:Sans"
       x="425.19684"
       y="201.96846"
       id="text3037"
       sodipodi:linespacing="125%"><tspan
         sodipodi:role="line"
         id="tspan3039"
         x="425.19684"
         y="201.96846"
         style="font-size:12px;font-style:normal;font-variant:normal;font-weight:normal;font-stretch:normal;font-family:Latin Modern Roman Caps;-inkscape-font-specification:Latin Modern Roman Caps">Forsterker modell 1</tspan></text>
    <text
       xml:space="preserve"
       style="font-size:12px;font-style:normal;font-weight:normal;line-height:125%;letter-spacing:0px;word-spacing:0px;fill:#000000;fill-opacity:1;stroke:none;font-family:Sans"
       x="136.42857"
       y="367.36218"
       id="text3044"
       sodipodi:linespacing="125%"
       transform="translate(0,-1.972441e-5)"><tspan
         sodipodi:role="line"
         x="136.42857"
         y="367.36218"
         id="tspan3066" /></text>
    <text
       xml:space="preserve"
       style="font-size:14px;font-style:normal;font-weight:normal;line-height:125%;letter-spacing:0px;word-spacing:0px;fill:#000000;fill-opacity:1;stroke:none;font-family:Sans"
       x="177.16536"
       y="325.98419"
       id="text3072"
       sodipodi:linespacing="125%"><tspan
         sodipodi:role="line"
         id="tspan3074"
         x="177.16536"
         y="325.98419"
         style="font-size:20px">Analog</tspan><tspan
         sodipodi:role="line"
         x="177.16536"
         y="350.98419"
         id="tspan3076" /></text>
    <text
       xml:space="preserve"
       style="font-size:14px;font-style:normal;font-weight:normal;line-height:125%;letter-spacing:0px;word-spacing:0px;fill:#000000;fill-opacity:1;stroke:none;font-family:Sans"
       x="177.16536"
       y="379.13379"
       id="text3078"
       sodipodi:linespacing="125%"><tspan
         sodipodi:role="line"
         id="tspan3080"
         x="177.16536"
         y="379.13379"
         style="font-size:20px">Optisk</tspan></text>
    <text
       xml:space="preserve"
       style="font-size:14px;font-style:normal;font-weight:normal;line-height:125%;letter-spacing:0px;word-spacing:0px;fill:#000000;fill-opacity:1;stroke:none;font-family:Sans"
       x="177.16536"
       y="432.28342"
       id="text3082"
       sodipodi:linespacing="125%"><tspan
         sodipodi:role="line"
         id="tspan3084"
         x="177.16536"
         y="432.28342"
         style="font-size:20px">S/PDIF</tspan></text>
    <path
       sodipodi:type="star"
       style="fill:#000000;fill-opacity:0"
       id="path3086"
       sodipodi:sides="5"
       sodipodi:cx="124.01575"
       sodipodi:cy="361.4173"
       sodipodi:r1="5.010993"
       sodipodi:r2="2.5054965"
       sodipodi:arg1="0.78539816"
       sodipodi:arg2="1.4137167"
       inkscape:flatsided="false"
       inkscape:rounded="0"
       inkscape:randomized="0"
       d="m 127.55905,364.9606 -3.15136,-1.06865 -2.66689,1.99017 0.0425,-3.32735 -2.71688,-1.92136 3.17764,-0.98777 0.98777,-3.17764 1.92136,2.71688 3.32735,-0.0425 -1.99017,2.66689 z"
       transform="translate(35.433065,-53.149626)"
       inkscape:transform-center-x="0.24223595"
       inkscape:transform-center-y="-0.24223595" />
    <text
       xml:space="preserve"
       style="font-size:12px;font-style:normal;font-weight:normal;line-height:125%;letter-spacing:0px;word-spacing:0px;fill:#000000;fill-opacity:1;stroke:none;font-family:Sans"
       x="149.44882"
       y="768.18329"
       id="text3091"
       sodipodi:linespacing="125%"><tspan
         sodipodi:role="line"
         id="tspan3093"
         x="149.44882"
         y="768.18329"
         style="font-size:16px">S/PDIF        Optisk        Ethernet         SD-kort</tspan></text>
    <text
       xml:space="preserve"
       style="font-size:16px;font-style:normal;font-weight:normal;line-height:125%;letter-spacing:0px;word-spacing:0px;fill:#000000;fill-opacity:1;stroke:none;font-family:Sans"
       x="487.21033"
       y="583.1496"
       id="text3095"
       sodipodi:linespacing="125%"><tspan
         sodipodi:role="line"
         id="tspan3097"
         x="487.21033"
         y="583.1496">Analog</tspan></text>
    <flowRoot
       xml:space="preserve"
       id="flowRoot3163"
       style="fill:black;stroke:none;stroke-opacity:1;stroke-width:1px;stroke-linejoin:miter;stroke-linecap:butt;fill-opacity:1;font-family:Sans;font-style:normal;font-weight:normal;font-size:13.59999999999999964px;line-height:125%;letter-spacing:0px;word-spacing:0px"><flowRegion
         id="flowRegion3165"><rect
           id="rect3167"
           width="174.28572"
           height="57.857143"
           x="407.14285"
           y="133.07646" /></flowRegion><flowPara
         id="flowPara3169"></flowPara></flowRoot>    <path
       class="fil0"
       d="m 502.00069,341.4115 0,-0.57733 0,-0.56259 0,-0.56258 0,-0.57733 0,-0.5626 0,-0.56259 0,-0.56247 0,-0.56258 2.22066,0 2.22062,0 2.20577,0 2.22065,0 2.22062,0 2.20591,0 2.22063,0 2.22062,0 2.22065,0 2.20577,0 2.22062,0 2.22066,0 2.20577,0 2.22062,0 2.22065,0 2.20591,0 0,-0.63655 0,-0.6514 0,-0.65141 0,-0.65138 0,-0.63655 0,-0.6514 0,-0.63666 0,-0.6514 -2.20591,0 -2.22065,0 -2.22062,0 -2.20577,0 -2.22066,0 -2.22062,0 -2.20577,0 -2.22065,0 -2.22062,0 -2.22063,0 -2.20591,0 -2.22062,0 -2.22065,0 -2.20577,0 -2.22062,0 -2.22066,0 0,-0.88824 0,-0.87336 0,-0.88835 0,-0.88823 0,-0.88824 0,-0.88822 0,-0.88824 0,-0.88822 0,-0.88835 0,-0.88824 0,-0.87336 0,-0.88835 0,-0.88823 0,-0.88823 0,-0.87348 0,-0.88823 2.51669,0 2.51678,0 2.53154,0 2.51665,0 2.51669,0 2.51678,0 2.51669,0 2.51665,0 2.51682,0 2.51664,0 2.51669,0 2.51678,0 2.51669,0 2.51678,0 2.51666,0 2.51668,0 0,0.56259 0,0.56259 0,0.56246 0,0.56259 0,0.56259 0,0.57733 0,0.5626 0,0.56259 -2.20577,0 -2.22066,0 -2.22061,0 -2.20591,0 -2.22062,0 -2.22052,0 -2.20591,0 -2.22062,0 -2.22063,0 -2.22065,0 -2.20577,0 -2.22062,0 -2.22066,0 -2.20586,0 -2.22066,0 -2.22052,0 0,0.63654 0,0.6514 0,0.63654 0,0.63666 0,0.63654 0,0.6514 0,0.63655 0,0.65139 2.22052,0 2.22066,0 2.20586,0 2.22066,0 2.22062,0 2.20577,0 2.22065,0 2.22063,0 2.22062,0 2.20591,0 2.22052,0 2.22062,0 2.20591,0 2.22061,0 2.22066,0 2.20577,0 0,0.88824 0,0.88821 0,0.88836 0,0.88824 0,0.88822 0,0.88823 0,0.88823 0,0.88823 0,0.88836 0,0.88822 0,0.88823 0,0.88823 0,0.88823 0,0.88835 0,0.88822 0,0.88823 -2.51668,0 -2.51666,0 -2.51678,0 -2.51669,0 -2.51678,0 -2.51669,0 -2.51664,0 -2.51682,0 -2.51665,0 -2.51669,0 -2.51678,0 -2.51669,0 -2.51665,0 -2.53154,0 -2.51678,0 -2.51669,0 z"
       id="path11-5"
       inkscape:connector-curvature="0"
       style="fill:#000000;fill-rule:evenodd" />
    <path
       class="fil0"
       d="m 545.37837,341.10173 0,-1.48041 0,-1.46569 0,-1.48042 0,-1.4803 0,-1.46568 0,-1.48042 0,-1.46556 0,-1.46569 0,-1.48042 0,-1.46557 0,-1.48042 0,-1.46568 0,-1.46556 0,-1.48043 0,-1.46566 0,-1.46557 2.5168,0 2.51668,0 2.51679,0 2.51668,0 2.51665,0 2.51682,0 2.51666,0 2.53154,0 2.51668,0 2.51665,0 2.51683,0 2.51665,0 2.53153,0 2.51668,0 2.51679,0 2.53153,0 0,0.56259 0,0.56259 0,0.56247 0,0.56258 0,0.5626 0,0.56258 0,0.57735 0,0.56257 -2.22065,0 -2.20586,0 -2.22067,0 -2.22062,0 -2.22066,0 -2.20575,0 -2.22063,0 -2.22066,0 -2.20577,0 -2.22063,0 -2.22066,0 -2.20586,0 -2.22066,0 -2.22062,0 -2.20578,0 -2.22064,0 0,0.90298 0,0.90309 0,0.91783 0,0.90309 0,0.9031 0,0.90297 0,0.9031 0,0.91782 0,0.9031 0,0.90308 0,0.90298 0,0.91794 0,0.90298 0,0.91784 0,0.90308 0,0.9031 2.22064,0 2.20578,0 2.22062,0 2.22066,0 2.20586,0 2.22066,0 2.22063,0 2.20577,0 2.22066,0 2.22063,0 2.20575,0 2.22066,0 2.22062,0 2.22067,0 2.20586,0 2.22065,0 0,0.5626 0,0.56246 0,0.56258 0,0.5626 0,0.57733 0,0.56259 0,0.56259 0,0.57733 -2.53153,0 -2.51679,0 -2.51668,0 -2.53153,0 -2.51665,0 -2.51683,0 -2.51665,0 -2.51668,0 -2.53154,0 -2.51666,0 -2.51682,0 -2.51665,0 -2.51668,0 -2.51679,0 -2.51668,0 -2.5168,0 z"
       id="path17-2"
       inkscape:connector-curvature="0"
       style="fill:#000000;fill-rule:evenodd" />
    <path
       class="fil0"
       d="m 580.86309,341.10039 0,-1.9246 0,-1.90973 0,-1.90973 0,-1.92448 0,-1.90973 0,-1.90975 0,-1.92459 0,-1.90974 0,-1.90974 0,-1.9246 0,-1.90973 0,-1.90974 0,-1.92448 0,-1.90974 0,-1.90973 0,-1.9246 0.60705,0 0.60694,0 0.60694,0 0.5922,0 0.60695,0 0.60704,0 0.60694,0 0.59219,0 0,1.9246 0,1.90973 0,1.90974 0,1.92448 0,1.90974 0,1.90973 0,1.9246 0,1.90974 0,1.90974 0,1.92459 0,1.90975 0,1.90973 0,1.92448 0,1.90973 0,1.90973 0,1.9246 -0.59219,0 -0.60694,0 -0.60704,0 -0.60695,0 -0.5922,0 -0.60694,0 -0.60694,0 -0.60705,0 z"
       id="path19-3"
       inkscape:connector-curvature="0"
       style="fill:#000000;fill-rule:evenodd" />
    <path
       class="fil0"
       d="m 458.59538,341.0988 0,-0.87349 0,-0.87336 0,-0.85875 0,-0.87336 0,-0.87349 0,-0.85862 0,-0.8735 0,-0.85861 0,-0.8735 0,-0.85863 0,-0.87337 0,-0.85862 0,-0.87347 0,-0.85864 0,-0.85862 0,-0.87349 2.20586,0 2.22067,0 2.22061,0 2.20577,0 2.22065,0 2.22063,0 2.22066,0 2.20576,0 2.22062,0 2.22066,0 2.20587,0 2.22065,0 2.22063,0 2.20577,0 2.22066,0 2.22062,0 0,-0.6514 0,-0.6514 0,-0.63654 0,-0.6514 0,-0.6514 0,-0.63655 0,-0.65139 0,-0.63654 -2.22062,0 -2.22066,0 -2.20577,0 -2.22063,0 -2.22065,0 -2.20587,0 -2.22066,0 -2.22062,0 -2.20576,0 -2.22066,0 -2.22063,0 -2.22065,0 -2.20577,0 -2.22061,0 -2.22067,0 -2.20586,0 0,-0.56259 0,-0.57734 0,-0.56259 0,-0.56259 0,-0.56259 0,-0.56246 0,-0.5626 0,-0.56259 2.51678,0 2.51668,0 2.51665,0 2.51679,0 2.51669,0 2.51667,0 2.51679,0 2.53155,0 2.51664,0 2.51668,0 2.51679,0 2.51669,0 2.53154,0 2.51664,0 2.51679,0 2.53143,0 0,1.46556 0,1.46568 0,1.48042 0,1.46557 0,1.46567 0,1.48043 0,1.46557 0,1.48042 0,1.46567 0,1.46556 0,1.48043 0,1.46568 0,1.48031 0,1.48042 0,1.46568 0,1.48042 -2.53143,0 -2.51679,0 -2.51664,0 -2.53154,0 -2.51669,0 -2.51679,0 -2.51668,0 -2.51664,0 -2.53155,0 -2.51679,0 -2.51667,0 -2.51669,0 -2.51679,0 -2.51665,0 -2.51668,0 -2.51678,0 z"
       id="path21-9"
       inkscape:connector-curvature="0"
       style="fill:#000000;fill-rule:evenodd" />
    <path
       class="fil1"
       d="m 463.45106,336.56868 0,-0.63654 0,-0.63666 0,-0.6514 0,-0.63654 0,-0.6514 0,-0.6514 0,-0.6514 0,-0.65141 1.90974,0 1.9097,0 1.90975,0 1.90973,0 1.90974,0 1.90974,0 1.90975,0 1.92459,0 1.90974,0 1.90974,0 1.90974,0 1.92446,0 1.90975,0 1.90973,0 1.90974,0 1.9246,0 0,0.65141 0,0.63666 0,0.65139 0,0.63654 0,0.65141 0,0.65141 0,0.65139 0,0.63654 -1.90975,0 -1.90974,0 -1.90974,0 -1.9097,0 -1.90975,0 -1.92463,0 -1.9097,0 -1.90974,0 -1.90974,0 -1.90974,0 -1.92459,0 -1.90975,0 -1.90975,0 -1.92448,0 -1.9097,0 -1.90974,0 z"
       id="path27-7"
       inkscape:connector-curvature="0"
       style="fill:#ffffff;fill-rule:evenodd" />
  </g>
</svg>
