M48
INCH,TZ
T1C0.012
T2C0.020
T3C0.031
T4C0.039
T5C0.040
T6C0.045
T7C0.051
T8C0.065
T9C0.067
T10C0.102
T11C0.106
T12C0.126
T13C0.128
%
G90
G05
T1
X15945Y-25984
X15945Y-26378
X15945Y-26772
X15945Y-27165
X16339Y-23622
X16654Y-33425
X17520Y-25591
X17717Y-23819
X17717Y-24803
X17913Y-23425
X17913Y-25197
X18110Y-25591
X19193Y-12402
X19193Y-19783
X19291Y-23622
X19882Y-24016
X19882Y-24409
X19882Y-31102
X19882Y-31496
X20276Y-24016
X20276Y-24409
X20276Y-31102
X20276Y-31496
X20866Y-50000
X20866Y-55118
X21063Y-20866
X21063Y-31102
X21260Y-39764
X21260Y-42126
X21457Y-18996
X22244Y-40748
X22343Y-48917
X22441Y-28937
X22835Y-54921
X22835Y-55315
X22835Y-55709
X23031Y-27362
X23228Y-54921
X23228Y-55315
X23228Y-55709
X23720Y-25098
X24016Y-21358
X24016Y-32874
X24016Y-42087
X24213Y-23425
X24213Y-34685
X24213Y-35039
X24213Y-35433
X24311Y-42618
X24409Y-40748
X24409Y-47441
X24409Y-47835
X24606Y-34646
X24606Y-35039
X24606Y-35433
X24803Y-23425
X24803Y-54724
X24803Y-55118
X25000Y-21358
X25000Y-58661
X25000Y-59055
X25000Y-59449
X25197Y-37008
X25197Y-37402
X25197Y-37795
X25197Y-38189
X25197Y-39173
X25197Y-39567
X25394Y-31496
X25394Y-31890
X25394Y-32480
X25394Y-32874
X25394Y-33268
X25394Y-33661
X25394Y-34646
X25394Y-35039
X25394Y-41339
X25394Y-41732
X25394Y-58661
X25394Y-59055
X25394Y-59449
X25591Y-37795
X25591Y-38189
X25591Y-39173
X25591Y-39567
X25787Y-31496
X25787Y-31890
X25787Y-32480
X25787Y-32874
X25787Y-33268
X25787Y-33661
X25787Y-34646
X25787Y-35039
X25787Y-41339
X25787Y-41732
X25787Y-57776
X25984Y-59744
X26181Y-31496
X26181Y-31890
X26181Y-32480
X26181Y-32874
X26181Y-33268
X26181Y-33661
X26181Y-34646
X26181Y-35039
X26181Y-41339
X26181Y-41732
X26181Y-46654
X26181Y-47047
X26181Y-47441
X26575Y-46654
X26575Y-47047
X26575Y-47441
X26575Y-52362
X26575Y-54528
X26575Y-54921
X26575Y-55315
X26575Y-57283
X26575Y-57677
X26575Y-58071
X26772Y-37992
X26772Y-38386
X26870Y-21850
X26969Y-31102
X26969Y-46654
X26969Y-47047
X26969Y-47441
X26969Y-51969
X26969Y-54528
X26969Y-54921
X26969Y-55315
X26969Y-57283
X26969Y-57677
X26969Y-58071
X27165Y-37992
X27165Y-38386
X27362Y-46654
X27362Y-47047
X27362Y-47441
X27362Y-51575
X27362Y-54528
X27362Y-54921
X27362Y-55315
X27362Y-57283
X27362Y-57677
X27362Y-58071
X27559Y-37992
X27559Y-38386
X27756Y-35433
X27756Y-51181
X27913Y-32520
X27953Y-18996
X27953Y-28346
X28150Y-35433
X28150Y-50787
X28346Y-20866
X28386Y-32756
X28543Y-35433
X28543Y-50394
X28642Y-25098
X28740Y-45276
X28740Y-45669
X28937Y-35433
X28937Y-43701
X28937Y-44094
X29331Y-43701
X29331Y-44094
X29626Y-12402
X29626Y-19783
X29724Y-43701
X29724Y-44094
X30197Y-29685
X30512Y-57677
X30709Y-30709
X30906Y-29724
X31102Y-44882
X31102Y-45276
X31299Y-57677
X31398Y-30315
X31496Y-44882
X31496Y-45276
X31890Y-30020
X31890Y-44882
X31890Y-45276
X31890Y-56102
X32205Y-28740
X32283Y-27953
X32283Y-44882
X32283Y-45276
X32283Y-55315
X32283Y-61614
X32579Y-25591
X32638Y-53110
X32677Y-44882
X32677Y-45276
X32717Y-60157
X33071Y-27953
X33071Y-35433
X33071Y-35827
X33268Y-57874
X33465Y-35433
X33465Y-35827
X33563Y-25591
X33760Y-16535
X33937Y-57323
X34154Y-28051
X34154Y-28543
X34154Y-30610
X34350Y-31299
X34449Y-49016
X34803Y-27638
X34843Y-55906
X35039Y-32579
X35039Y-60039
X35354Y-53110
X35512Y-29134
X35531Y-28346
X35531Y-30906
X35630Y-32972
X35630Y-51083
X35728Y-32283
X35748Y-30039
X35827Y-56102
X35906Y-51614
X36024Y-48228
X36024Y-48819
X36024Y-54724
X36122Y-17717
X36220Y-25492
X36220Y-26181
X36339Y-28661
X36339Y-29409
X36339Y-49409
X36378Y-27835
X36496Y-29921
X36614Y-46850
X36614Y-47441
X36614Y-48130
X36614Y-51654
X36654Y-26496
X36811Y-27835
X36811Y-32323
X36811Y-49409
X36811Y-54331
X36890Y-24016
X36890Y-30906
X37008Y-25492
X37008Y-52953
X37008Y-55709
X37205Y-59843
X37303Y-49409
X37402Y-17717
X37402Y-62402
X37480Y-27835
X37480Y-28661
X37480Y-29409
X37500Y-30217
X37559Y-50512
X37598Y-52165
X37598Y-52953
X37598Y-53937
X37697Y-30610
X37795Y-46260
X37795Y-48031
X37795Y-49508
X37894Y-32480
X37992Y-27835
X37992Y-37598
X37992Y-50512
X37992Y-51850
X38091Y-30217
X38091Y-32874
X38150Y-26181
X38189Y-60236
X38287Y-33268
X38287Y-49409
X38386Y-30906
X38386Y-34252
X38386Y-37598
X38386Y-38976
X38386Y-39370
X38386Y-39764
X38504Y-50512
X38583Y-33563
X38583Y-51673
X38681Y-30020
X38780Y-34252
X38780Y-37598
X38780Y-38976
X38780Y-39370
X38780Y-39764
X38878Y-49409
X38976Y-46850
X38976Y-47441
X38976Y-51673
X39016Y-27008
X39075Y-33563
X39094Y-50512
X39173Y-34252
X39173Y-37598
X39213Y-26496
X39370Y-35630
X39370Y-51673
X39370Y-57677
X39409Y-49409
X39469Y-48425
X39567Y-34252
X39567Y-37598
X39862Y-51476
X39961Y-34252
X40039Y-29252
X40059Y-30512
X40157Y-31004
X40157Y-32480
X40157Y-57677
X40236Y-29606
X40354Y-24803
X40354Y-27953
X40453Y-35138
X40551Y-29035
X40551Y-30217
X40551Y-33268
X40551Y-36220
X40551Y-56102
X40846Y-32480
X40945Y-36220
X40984Y-27953
X41043Y-38878
X41142Y-30217
X41142Y-31004
X41142Y-55315
X41142Y-61614
X41339Y-36220
X41535Y-52953
X41634Y-60138
X41732Y-36220
X41732Y-47736
X41929Y-30217
X42008Y-21496
X42028Y-31004
X42126Y-39075
X42126Y-57874
X42618Y-24016
X42618Y-33858
X42717Y-32579
X42815Y-57382
X42913Y-20374
X43012Y-29331
X43012Y-30217
X43209Y-14173
X43307Y-53780
X43504Y-34252
X43602Y-13780
X43602Y-14567
X43701Y-55906
X43760Y-28937
X43799Y-33268
X43898Y-60039
X43996Y-43504
X44094Y-30906
X44094Y-32677
X44094Y-34350
X44193Y-35236
X44291Y-52953
X44488Y-30709
X44488Y-34843
X44587Y-36024
X44587Y-36516
X44587Y-37008
X44587Y-37500
X44587Y-38386
X44685Y-13780
X44685Y-14567
X44685Y-32874
X44685Y-56102
X44783Y-28839
X44803Y-20984
X44882Y-16535
X44882Y-18701
X44980Y-30807
X44980Y-41732
X45079Y-14173
X45079Y-32972
X45079Y-54724
X45177Y-38878
X45276Y-41437
X45374Y-32677
X45472Y-30709
X45472Y-31201
X45571Y-28346
X45571Y-32283
X45571Y-41142
X45591Y-19252
X45669Y-32972
X45866Y-28839
X45866Y-54331
X45866Y-55709
X45965Y-34941
X45965Y-35433
X45965Y-36024
X45965Y-36516
X45965Y-37008
X45965Y-37500
X46063Y-59843
X46161Y-19882
X46161Y-37894
X46161Y-38878
X46260Y-62402
X46457Y-43209
X46535Y-28228
X46555Y-23622
X46654Y-31988
X46654Y-32480
X46654Y-32972
X46654Y-53937
X46752Y-42913
X46850Y-15945
X47047Y-18209
X47047Y-31102
X47047Y-33071
X47047Y-35039
X47047Y-37008
X47047Y-42618
X47047Y-60236
X47165Y-29646
X47402Y-20787
X47441Y-32283
X47441Y-34252
X47441Y-36220
X47638Y-40846
X47835Y-18209
X47835Y-31496
X47835Y-32283
X47835Y-33071
X47835Y-33465
X48031Y-20787
X48110Y-19055
X48130Y-30020
X48228Y-29232
X48228Y-32677
X48228Y-34646
X48228Y-35827
X48228Y-36220
X48228Y-36614
X48465Y-20472
X48622Y-31890
X48622Y-32283
X48622Y-33465
X48622Y-33858
X48622Y-34646
X48622Y-35433
X48622Y-35827
X48622Y-36220
X48720Y-25886
X48819Y-38681
X48819Y-40059
X48917Y-30413
X49016Y-17618
X49016Y-18307
X49016Y-23720
X49016Y-31102
X49016Y-33465
X49016Y-33858
X49016Y-34646
X49016Y-37008
X49213Y-20472
X49252Y-18976
X49311Y-28839
X49311Y-30709
X49409Y-33071
X49409Y-33465
X49409Y-33858
X49409Y-34646
X49409Y-35433
X49409Y-36220
X49508Y-25886
X49606Y-29626
X49705Y-22343
X49705Y-23031
X49705Y-38681
X49705Y-40059
X49764Y-20630
X49803Y-18209
X49803Y-23622
X49803Y-31496
X49803Y-32677
X49803Y-33071
X49803Y-33858
X49803Y-34252
X49803Y-35433
X49902Y-19193
X50000Y-29921
X50197Y-24409
X50197Y-32677
X50197Y-33465
X50197Y-33858
X50197Y-34252
X50197Y-34646
X50197Y-35433
X50197Y-36614
X50394Y-30217
X50591Y-14173
X50591Y-18209
X50591Y-31890
X50591Y-32283
X50591Y-32677
X50591Y-33071
X50591Y-34646
X50591Y-35039
X50591Y-35433
X50591Y-35827
X50591Y-38681
X50591Y-40059
X50689Y-27362
X50787Y-30512
X50886Y-13780
X50886Y-14567
X50984Y-32283
X50984Y-33071
X50984Y-33465
X50984Y-33858
X50984Y-34252
X50984Y-34646
X50984Y-35039
X50984Y-37008
X51083Y-30807
X51181Y-20827
X51378Y-23622
X51378Y-31102
X51378Y-32283
X51378Y-36220
X51457Y-21142
X51476Y-38681
X51476Y-40059
X51673Y-26280
X51772Y-27264
X51772Y-31496
X51772Y-33465
X51772Y-35433
X51870Y-22835
X51969Y-28051
X51969Y-29035
X51969Y-54626
X52067Y-13780
X52067Y-14567
X52165Y-32677
X52165Y-34646
X52165Y-36614
X52165Y-48228
X52165Y-56496
X52362Y-38681
X52362Y-40059
X52461Y-14173
X52461Y-27264
X52461Y-28248
X52461Y-28937
X52559Y-31890
X52559Y-33858
X52559Y-35827
X52795Y-24961
X52854Y-38681
X52854Y-40453
X52953Y-19291
X52953Y-31102
X52953Y-33071
X52953Y-35039
X52953Y-37008
X53248Y-29626
X53248Y-58563
X53346Y-38681
X53346Y-40453
X53445Y-61516
X53622Y-21457
X53642Y-29921
X53740Y-34154
X53740Y-50787
X53839Y-59154
X53937Y-38681
X53937Y-40453
X53937Y-52067
X53976Y-55217
X54035Y-30217
X54035Y-34547
X54035Y-59941
X54528Y-30217
X54528Y-50787
X54626Y-33366
X54626Y-38091
X54626Y-51772
X54724Y-47047
X54921Y-32776
X55020Y-33169
X55020Y-33957
X55020Y-34744
X55118Y-35925
X55217Y-29921
X55217Y-31496
X55315Y-28346
X55413Y-33760
X55413Y-35335
X55413Y-48819
X55413Y-57480
X55413Y-58366
X55512Y-25197
X55512Y-47047
X55512Y-59646
X55610Y-56398
X55709Y-51673
X55807Y-49409
X55807Y-50492
X55906Y-31496
X55906Y-54626
X56102Y-29626
X56201Y-33760
X56201Y-35335
X56398Y-26476
X56398Y-32677
X56496Y-27657
X56496Y-35925
X56496Y-50394
X56594Y-33957
X56594Y-52067
X56693Y-25984
X56791Y-33169
X56791Y-34744
X56988Y-50591
X56988Y-51870
X57087Y-25098
X57087Y-34252
X57087Y-37303
X57087Y-40059
X57087Y-48189
X57185Y-47441
X57283Y-49508
X57382Y-27657
X57382Y-32185
X57382Y-36516
X57382Y-50591
X57480Y-47736
X57480Y-52165
X57520Y-48189
X57677Y-30807
X57776Y-46752
X57874Y-20079
X57874Y-20551
X57874Y-25098
X58031Y-26102
X58071Y-35236
X58071Y-50394
X58228Y-24764
X58268Y-25394
X58307Y-26417
X58465Y-40059
X58465Y-52264
X58563Y-54626
X58661Y-31811
X58760Y-49409
X58858Y-57480
X58957Y-36909
X58957Y-56398
X58976Y-27717
X59055Y-47441
X59055Y-58957
X59154Y-49409
X59154Y-58071
X59350Y-52264
X59449Y-51083
X59646Y-30512
X59843Y-33780
X59843Y-40059
X60039Y-29921
X60039Y-51870
X60433Y-25512
X60433Y-25984
X60433Y-26457
X60433Y-51575
X60512Y-55217
X60551Y-48583
X60630Y-24173
X60630Y-30787
X60630Y-33622
X60630Y-57677
X61122Y-61516
X61299Y-48583
X61417Y-36220
X61417Y-50492
X61811Y-23858
X61909Y-30217
X62205Y-29626
X62677Y-24882
X62677Y-26457
X62697Y-54626
X62992Y-56496
X63386Y-26457
X63701Y-24882
T2
X18504Y-34449
X22441Y-34055
X28976Y-33543
X32835Y-32283
X41339Y-39370
X43110Y-40945
X43307Y-37402
X43307Y-38091
T3
X46819Y-14173
X47819Y-14173
X48819Y-14173
X56181Y-16614
X56181Y-18614
X60181Y-16614
X60181Y-18614
X62598Y-34154
X62598Y-34941
X62598Y-35728
X62598Y-36516
X62598Y-37303
X62598Y-38091
X62598Y-38878
X63386Y-34154
X63386Y-34941
X63386Y-35728
X63386Y-36516
X63386Y-37303
X63386Y-38091
X63386Y-38878
T4
X32441Y-63583
X33441Y-63583
X41299Y-63583
X42299Y-63583
X54685Y-63583
X55685Y-63583
X58858Y-63583
X59858Y-63583
T5
X16823Y-39839
X16823Y-40839
X16823Y-41839
X16823Y-42839
X16823Y-47638
X16823Y-52543
X16823Y-53543
X16823Y-54543
X16862Y-59354
X16862Y-60354
X16862Y-61354
X17823Y-39839
X17823Y-40839
X17823Y-41839
X17823Y-42839
X17823Y-47638
X17823Y-52543
X17823Y-53543
X17823Y-54543
X17862Y-59354
X17862Y-60354
X17862Y-61354
X29752Y-41429
X29752Y-42429
X30752Y-41429
X30752Y-42429
X31752Y-41429
X31752Y-42429
X32752Y-41429
X32752Y-42429
X33752Y-41429
X33752Y-42429
X34752Y-19361
X34752Y-41429
X34752Y-42429
X35552Y-19361
X35752Y-41429
X35752Y-42429
X36352Y-19361
X36752Y-41429
X36752Y-42429
X37152Y-19361
X37752Y-41429
X37752Y-42429
X37952Y-19361
X38752Y-19361
X38752Y-41429
X38752Y-42429
T6
X33912Y-20331
X34912Y-20331
X38592Y-20331
X39592Y-20331
T7
X17717Y-28150
X17717Y-30118
X17717Y-32087
X20295Y-21575
X29114Y-21575
T8
X33577Y-13711
X39927Y-13711
T9
X58189Y-13386
T10
X56220Y-13386
X58189Y-11614
X60157Y-13386
T11
X16929Y-14567
X16929Y-63780
X64173Y-14567
X64173Y-63780
T12
X46319Y-12618
X49319Y-12618
T13
X34252Y-14961
X39252Y-14961
T0
M30
