G04 #@! TF.FileFunction,Soldermask,Bot*
%FSLAX46Y46*%
G04 Gerber Fmt 4.6, Leading zero omitted, Abs format (unit mm)*
G04 Created by KiCad (PCBNEW 0.201412201901+5330~19~ubuntu14.04.1-product) date ti. 30. des. 2014 kl. 17.44 +0100*
%MOMM*%
G01*
G04 APERTURE LIST*
%ADD10C,0.100000*%
G04 APERTURE END LIST*
D10*
G36*
X43723600Y-102183600D02*
X41736400Y-102183600D01*
X41736400Y-100196400D01*
X43723600Y-100196400D01*
X43723600Y-102183600D01*
X43723600Y-102183600D01*
G37*
G36*
X43723600Y-103734843D02*
X43723547Y-103742265D01*
X43723517Y-103746658D01*
X43723503Y-103748681D01*
X43701887Y-103941389D01*
X43643253Y-104126229D01*
X43549833Y-104296159D01*
X43425185Y-104444708D01*
X43274059Y-104566217D01*
X43102209Y-104656058D01*
X42916182Y-104710809D01*
X42916148Y-104710812D01*
X42916135Y-104710816D01*
X42723065Y-104728387D01*
X42530259Y-104708122D01*
X42530245Y-104708117D01*
X42530209Y-104708114D01*
X42344965Y-104650771D01*
X42174386Y-104558540D01*
X42024971Y-104434933D01*
X41902409Y-104284658D01*
X41811371Y-104113440D01*
X41755323Y-103927799D01*
X41736400Y-103734808D01*
X41736400Y-103732609D01*
X41736400Y-103725192D01*
X41736400Y-103725157D01*
X41736452Y-103717734D01*
X41736497Y-103711319D01*
X41758113Y-103518611D01*
X41816747Y-103333771D01*
X41910167Y-103163841D01*
X42034815Y-103015292D01*
X42185941Y-102893783D01*
X42357791Y-102803942D01*
X42543818Y-102749191D01*
X42543851Y-102749187D01*
X42543865Y-102749184D01*
X42736935Y-102731613D01*
X42929741Y-102751878D01*
X42929754Y-102751882D01*
X42929791Y-102751886D01*
X43115035Y-102809229D01*
X43285614Y-102901460D01*
X43435029Y-103025067D01*
X43557591Y-103175342D01*
X43648629Y-103346560D01*
X43704677Y-103532201D01*
X43723600Y-103725192D01*
X43723600Y-103727391D01*
X43723600Y-103734808D01*
X43723600Y-103734843D01*
X43723600Y-103734843D01*
G37*
G36*
X43723600Y-106274843D02*
X43723547Y-106282265D01*
X43723517Y-106286658D01*
X43723503Y-106288681D01*
X43701887Y-106481389D01*
X43643253Y-106666229D01*
X43549833Y-106836159D01*
X43425185Y-106984708D01*
X43274059Y-107106217D01*
X43102209Y-107196058D01*
X42916182Y-107250809D01*
X42916148Y-107250812D01*
X42916135Y-107250816D01*
X42723065Y-107268387D01*
X42530259Y-107248122D01*
X42530245Y-107248117D01*
X42530209Y-107248114D01*
X42344965Y-107190771D01*
X42174386Y-107098540D01*
X42024971Y-106974933D01*
X41902409Y-106824658D01*
X41811371Y-106653440D01*
X41755323Y-106467799D01*
X41736400Y-106274808D01*
X41736400Y-106272609D01*
X41736400Y-106265192D01*
X41736400Y-106265157D01*
X41736452Y-106257734D01*
X41736497Y-106251319D01*
X41758113Y-106058611D01*
X41816747Y-105873771D01*
X41910167Y-105703841D01*
X42034815Y-105555292D01*
X42185941Y-105433783D01*
X42357791Y-105343942D01*
X42543818Y-105289191D01*
X42543851Y-105289187D01*
X42543865Y-105289184D01*
X42736935Y-105271613D01*
X42929741Y-105291878D01*
X42929754Y-105291882D01*
X42929791Y-105291886D01*
X43115035Y-105349229D01*
X43285614Y-105441460D01*
X43435029Y-105565067D01*
X43557591Y-105715342D01*
X43648629Y-105886560D01*
X43704677Y-106072201D01*
X43723600Y-106265192D01*
X43723600Y-106267391D01*
X43723600Y-106274808D01*
X43723600Y-106274843D01*
X43723600Y-106274843D01*
G37*
G36*
X43723600Y-108814843D02*
X43723547Y-108822265D01*
X43723517Y-108826658D01*
X43723503Y-108828681D01*
X43701887Y-109021389D01*
X43643253Y-109206229D01*
X43549833Y-109376159D01*
X43425185Y-109524708D01*
X43274059Y-109646217D01*
X43102209Y-109736058D01*
X42916182Y-109790809D01*
X42916148Y-109790812D01*
X42916135Y-109790816D01*
X42723065Y-109808387D01*
X42530259Y-109788122D01*
X42530245Y-109788117D01*
X42530209Y-109788114D01*
X42344965Y-109730771D01*
X42174386Y-109638540D01*
X42024971Y-109514933D01*
X41902409Y-109364658D01*
X41811371Y-109193440D01*
X41755323Y-109007799D01*
X41736400Y-108814808D01*
X41736400Y-108812609D01*
X41736400Y-108805192D01*
X41736400Y-108805157D01*
X41736452Y-108797734D01*
X41736497Y-108791319D01*
X41758113Y-108598611D01*
X41816747Y-108413771D01*
X41910167Y-108243841D01*
X42034815Y-108095292D01*
X42185941Y-107973783D01*
X42357791Y-107883942D01*
X42543818Y-107829191D01*
X42543851Y-107829187D01*
X42543865Y-107829184D01*
X42736935Y-107811613D01*
X42929741Y-107831878D01*
X42929754Y-107831882D01*
X42929791Y-107831886D01*
X43115035Y-107889229D01*
X43285614Y-107981460D01*
X43435029Y-108105067D01*
X43557591Y-108255342D01*
X43648629Y-108426560D01*
X43704677Y-108612201D01*
X43723600Y-108805192D01*
X43723600Y-108807391D01*
X43723600Y-108814808D01*
X43723600Y-108814843D01*
X43723600Y-108814843D01*
G37*
G36*
X43723600Y-134453600D02*
X41736400Y-134453600D01*
X41736400Y-132466400D01*
X43723600Y-132466400D01*
X43723600Y-134453600D01*
X43723600Y-134453600D01*
G37*
G36*
X43723600Y-136004843D02*
X43723547Y-136012265D01*
X43723517Y-136016658D01*
X43723503Y-136018681D01*
X43701887Y-136211389D01*
X43643253Y-136396229D01*
X43549833Y-136566159D01*
X43425185Y-136714708D01*
X43274059Y-136836217D01*
X43102209Y-136926058D01*
X42916182Y-136980809D01*
X42916148Y-136980812D01*
X42916135Y-136980816D01*
X42723065Y-136998387D01*
X42530259Y-136978122D01*
X42530245Y-136978117D01*
X42530209Y-136978114D01*
X42344965Y-136920771D01*
X42174386Y-136828540D01*
X42024971Y-136704933D01*
X41902409Y-136554658D01*
X41811371Y-136383440D01*
X41755323Y-136197799D01*
X41736400Y-136004808D01*
X41736400Y-136002609D01*
X41736400Y-135995192D01*
X41736400Y-135995157D01*
X41736452Y-135987734D01*
X41736497Y-135981319D01*
X41758113Y-135788611D01*
X41816747Y-135603771D01*
X41910167Y-135433841D01*
X42034815Y-135285292D01*
X42185941Y-135163783D01*
X42357791Y-135073942D01*
X42543818Y-135019191D01*
X42543851Y-135019187D01*
X42543865Y-135019184D01*
X42736935Y-135001613D01*
X42929741Y-135021878D01*
X42929754Y-135021882D01*
X42929791Y-135021886D01*
X43115035Y-135079229D01*
X43285614Y-135171460D01*
X43435029Y-135295067D01*
X43557591Y-135445342D01*
X43648629Y-135616560D01*
X43704677Y-135802201D01*
X43723600Y-135995192D01*
X43723600Y-135997391D01*
X43723600Y-136004808D01*
X43723600Y-136004843D01*
X43723600Y-136004843D01*
G37*
G36*
X43723600Y-138544843D02*
X43723547Y-138552265D01*
X43723517Y-138556658D01*
X43723503Y-138558681D01*
X43701887Y-138751389D01*
X43643253Y-138936229D01*
X43549833Y-139106159D01*
X43425185Y-139254708D01*
X43274059Y-139376217D01*
X43102209Y-139466058D01*
X42916182Y-139520809D01*
X42916148Y-139520812D01*
X42916135Y-139520816D01*
X42723065Y-139538387D01*
X42530259Y-139518122D01*
X42530245Y-139518117D01*
X42530209Y-139518114D01*
X42344965Y-139460771D01*
X42174386Y-139368540D01*
X42024971Y-139244933D01*
X41902409Y-139094658D01*
X41811371Y-138923440D01*
X41755323Y-138737799D01*
X41736400Y-138544808D01*
X41736400Y-138542609D01*
X41736400Y-138535192D01*
X41736400Y-138535157D01*
X41736452Y-138527734D01*
X41736497Y-138521319D01*
X41758113Y-138328611D01*
X41816747Y-138143771D01*
X41910167Y-137973841D01*
X42034815Y-137825292D01*
X42185941Y-137703783D01*
X42357791Y-137613942D01*
X42543818Y-137559191D01*
X42543851Y-137559187D01*
X42543865Y-137559184D01*
X42736935Y-137541613D01*
X42929741Y-137561878D01*
X42929754Y-137561882D01*
X42929791Y-137561886D01*
X43115035Y-137619229D01*
X43285614Y-137711460D01*
X43435029Y-137835067D01*
X43557591Y-137985342D01*
X43648629Y-138156560D01*
X43704677Y-138342201D01*
X43723600Y-138535192D01*
X43723600Y-138537391D01*
X43723600Y-138544808D01*
X43723600Y-138544843D01*
X43723600Y-138544843D01*
G37*
G36*
X43823600Y-151753600D02*
X41836400Y-151753600D01*
X41836400Y-149766400D01*
X43823600Y-149766400D01*
X43823600Y-151753600D01*
X43823600Y-151753600D01*
G37*
G36*
X43823600Y-153304843D02*
X43823547Y-153312265D01*
X43823517Y-153316658D01*
X43823503Y-153318681D01*
X43801887Y-153511389D01*
X43743253Y-153696229D01*
X43649833Y-153866159D01*
X43525185Y-154014708D01*
X43374059Y-154136217D01*
X43202209Y-154226058D01*
X43016182Y-154280809D01*
X43016148Y-154280812D01*
X43016135Y-154280816D01*
X42823065Y-154298387D01*
X42630259Y-154278122D01*
X42630245Y-154278117D01*
X42630209Y-154278114D01*
X42444965Y-154220771D01*
X42274386Y-154128540D01*
X42124971Y-154004933D01*
X42002409Y-153854658D01*
X41911371Y-153683440D01*
X41855323Y-153497799D01*
X41836400Y-153304808D01*
X41836400Y-153302609D01*
X41836400Y-153295192D01*
X41836400Y-153295157D01*
X41836452Y-153287734D01*
X41836497Y-153281319D01*
X41858113Y-153088611D01*
X41916747Y-152903771D01*
X42010167Y-152733841D01*
X42134815Y-152585292D01*
X42285941Y-152463783D01*
X42457791Y-152373942D01*
X42643818Y-152319191D01*
X42643851Y-152319187D01*
X42643865Y-152319184D01*
X42836935Y-152301613D01*
X43029741Y-152321878D01*
X43029754Y-152321882D01*
X43029791Y-152321886D01*
X43215035Y-152379229D01*
X43385614Y-152471460D01*
X43535029Y-152595067D01*
X43657591Y-152745342D01*
X43748629Y-152916560D01*
X43804677Y-153102201D01*
X43823600Y-153295192D01*
X43823600Y-153297391D01*
X43823600Y-153304808D01*
X43823600Y-153304843D01*
X43823600Y-153304843D01*
G37*
G36*
X43823600Y-155844843D02*
X43823547Y-155852265D01*
X43823517Y-155856658D01*
X43823503Y-155858681D01*
X43801887Y-156051389D01*
X43743253Y-156236229D01*
X43649833Y-156406159D01*
X43525185Y-156554708D01*
X43374059Y-156676217D01*
X43202209Y-156766058D01*
X43016182Y-156820809D01*
X43016148Y-156820812D01*
X43016135Y-156820816D01*
X42823065Y-156838387D01*
X42630259Y-156818122D01*
X42630245Y-156818117D01*
X42630209Y-156818114D01*
X42444965Y-156760771D01*
X42274386Y-156668540D01*
X42124971Y-156544933D01*
X42002409Y-156394658D01*
X41911371Y-156223440D01*
X41855323Y-156037799D01*
X41836400Y-155844808D01*
X41836400Y-155842609D01*
X41836400Y-155835192D01*
X41836400Y-155835157D01*
X41836452Y-155827734D01*
X41836497Y-155821319D01*
X41858113Y-155628611D01*
X41916747Y-155443771D01*
X42010167Y-155273841D01*
X42134815Y-155125292D01*
X42285941Y-155003783D01*
X42457791Y-154913942D01*
X42643818Y-154859191D01*
X42643851Y-154859187D01*
X42643865Y-154859184D01*
X42836935Y-154841613D01*
X43029741Y-154861878D01*
X43029754Y-154861882D01*
X43029791Y-154861886D01*
X43215035Y-154919229D01*
X43385614Y-155011460D01*
X43535029Y-155135067D01*
X43657591Y-155285342D01*
X43748629Y-155456560D01*
X43804677Y-155642201D01*
X43823600Y-155835192D01*
X43823600Y-155837391D01*
X43823600Y-155844808D01*
X43823600Y-155844843D01*
X43823600Y-155844843D01*
G37*
G36*
X43876000Y-122146000D02*
X41584000Y-122146000D01*
X41584000Y-119854000D01*
X43876000Y-119854000D01*
X43876000Y-122146000D01*
X43876000Y-122146000D01*
G37*
G36*
X44280000Y-61230000D02*
X41520000Y-61230000D01*
X41520000Y-58970000D01*
X44280000Y-58970000D01*
X44280000Y-61230000D01*
X44280000Y-61230000D01*
G37*
G36*
X44280000Y-65230000D02*
X41520000Y-65230000D01*
X41520000Y-62970000D01*
X44280000Y-62970000D01*
X44280000Y-65230000D01*
X44280000Y-65230000D01*
G37*
G36*
X46263600Y-101194843D02*
X46263547Y-101202265D01*
X46263517Y-101206658D01*
X46263503Y-101208681D01*
X46241887Y-101401389D01*
X46183253Y-101586229D01*
X46089833Y-101756159D01*
X45965185Y-101904708D01*
X45814059Y-102026217D01*
X45642209Y-102116058D01*
X45456182Y-102170809D01*
X45456148Y-102170812D01*
X45456135Y-102170816D01*
X45263065Y-102188387D01*
X45070259Y-102168122D01*
X45070245Y-102168117D01*
X45070209Y-102168114D01*
X44884965Y-102110771D01*
X44714386Y-102018540D01*
X44564971Y-101894933D01*
X44442409Y-101744658D01*
X44351371Y-101573440D01*
X44295323Y-101387799D01*
X44276400Y-101194808D01*
X44276400Y-101192609D01*
X44276400Y-101185192D01*
X44276400Y-101185157D01*
X44276452Y-101177734D01*
X44276497Y-101171319D01*
X44298113Y-100978611D01*
X44356747Y-100793771D01*
X44450167Y-100623841D01*
X44574815Y-100475292D01*
X44725941Y-100353783D01*
X44897791Y-100263942D01*
X45083818Y-100209191D01*
X45083851Y-100209187D01*
X45083865Y-100209184D01*
X45276935Y-100191613D01*
X45469741Y-100211878D01*
X45469754Y-100211882D01*
X45469791Y-100211886D01*
X45655035Y-100269229D01*
X45825614Y-100361460D01*
X45975029Y-100485067D01*
X46097591Y-100635342D01*
X46188629Y-100806560D01*
X46244677Y-100992201D01*
X46263600Y-101185192D01*
X46263600Y-101187391D01*
X46263600Y-101194808D01*
X46263600Y-101194843D01*
X46263600Y-101194843D01*
G37*
G36*
X46263600Y-103734843D02*
X46263547Y-103742265D01*
X46263517Y-103746658D01*
X46263503Y-103748681D01*
X46241887Y-103941389D01*
X46183253Y-104126229D01*
X46089833Y-104296159D01*
X45965185Y-104444708D01*
X45814059Y-104566217D01*
X45642209Y-104656058D01*
X45456182Y-104710809D01*
X45456148Y-104710812D01*
X45456135Y-104710816D01*
X45263065Y-104728387D01*
X45070259Y-104708122D01*
X45070245Y-104708117D01*
X45070209Y-104708114D01*
X44884965Y-104650771D01*
X44714386Y-104558540D01*
X44564971Y-104434933D01*
X44442409Y-104284658D01*
X44351371Y-104113440D01*
X44295323Y-103927799D01*
X44276400Y-103734808D01*
X44276400Y-103732609D01*
X44276400Y-103725192D01*
X44276400Y-103725157D01*
X44276452Y-103717734D01*
X44276497Y-103711319D01*
X44298113Y-103518611D01*
X44356747Y-103333771D01*
X44450167Y-103163841D01*
X44574815Y-103015292D01*
X44725941Y-102893783D01*
X44897791Y-102803942D01*
X45083818Y-102749191D01*
X45083851Y-102749187D01*
X45083865Y-102749184D01*
X45276935Y-102731613D01*
X45469741Y-102751878D01*
X45469754Y-102751882D01*
X45469791Y-102751886D01*
X45655035Y-102809229D01*
X45825614Y-102901460D01*
X45975029Y-103025067D01*
X46097591Y-103175342D01*
X46188629Y-103346560D01*
X46244677Y-103532201D01*
X46263600Y-103725192D01*
X46263600Y-103727391D01*
X46263600Y-103734808D01*
X46263600Y-103734843D01*
X46263600Y-103734843D01*
G37*
G36*
X46263600Y-106274843D02*
X46263547Y-106282265D01*
X46263517Y-106286658D01*
X46263503Y-106288681D01*
X46241887Y-106481389D01*
X46183253Y-106666229D01*
X46089833Y-106836159D01*
X45965185Y-106984708D01*
X45814059Y-107106217D01*
X45642209Y-107196058D01*
X45456182Y-107250809D01*
X45456148Y-107250812D01*
X45456135Y-107250816D01*
X45263065Y-107268387D01*
X45070259Y-107248122D01*
X45070245Y-107248117D01*
X45070209Y-107248114D01*
X44884965Y-107190771D01*
X44714386Y-107098540D01*
X44564971Y-106974933D01*
X44442409Y-106824658D01*
X44351371Y-106653440D01*
X44295323Y-106467799D01*
X44276400Y-106274808D01*
X44276400Y-106272609D01*
X44276400Y-106265192D01*
X44276400Y-106265157D01*
X44276452Y-106257734D01*
X44276497Y-106251319D01*
X44298113Y-106058611D01*
X44356747Y-105873771D01*
X44450167Y-105703841D01*
X44574815Y-105555292D01*
X44725941Y-105433783D01*
X44897791Y-105343942D01*
X45083818Y-105289191D01*
X45083851Y-105289187D01*
X45083865Y-105289184D01*
X45276935Y-105271613D01*
X45469741Y-105291878D01*
X45469754Y-105291882D01*
X45469791Y-105291886D01*
X45655035Y-105349229D01*
X45825614Y-105441460D01*
X45975029Y-105565067D01*
X46097591Y-105715342D01*
X46188629Y-105886560D01*
X46244677Y-106072201D01*
X46263600Y-106265192D01*
X46263600Y-106267391D01*
X46263600Y-106274808D01*
X46263600Y-106274843D01*
X46263600Y-106274843D01*
G37*
G36*
X46263600Y-108814843D02*
X46263547Y-108822265D01*
X46263517Y-108826658D01*
X46263503Y-108828681D01*
X46241887Y-109021389D01*
X46183253Y-109206229D01*
X46089833Y-109376159D01*
X45965185Y-109524708D01*
X45814059Y-109646217D01*
X45642209Y-109736058D01*
X45456182Y-109790809D01*
X45456148Y-109790812D01*
X45456135Y-109790816D01*
X45263065Y-109808387D01*
X45070259Y-109788122D01*
X45070245Y-109788117D01*
X45070209Y-109788114D01*
X44884965Y-109730771D01*
X44714386Y-109638540D01*
X44564971Y-109514933D01*
X44442409Y-109364658D01*
X44351371Y-109193440D01*
X44295323Y-109007799D01*
X44276400Y-108814808D01*
X44276400Y-108812609D01*
X44276400Y-108805192D01*
X44276400Y-108805157D01*
X44276452Y-108797734D01*
X44276497Y-108791319D01*
X44298113Y-108598611D01*
X44356747Y-108413771D01*
X44450167Y-108243841D01*
X44574815Y-108095292D01*
X44725941Y-107973783D01*
X44897791Y-107883942D01*
X45083818Y-107829191D01*
X45083851Y-107829187D01*
X45083865Y-107829184D01*
X45276935Y-107811613D01*
X45469741Y-107831878D01*
X45469754Y-107831882D01*
X45469791Y-107831886D01*
X45655035Y-107889229D01*
X45825614Y-107981460D01*
X45975029Y-108105067D01*
X46097591Y-108255342D01*
X46188629Y-108426560D01*
X46244677Y-108612201D01*
X46263600Y-108805192D01*
X46263600Y-108807391D01*
X46263600Y-108814808D01*
X46263600Y-108814843D01*
X46263600Y-108814843D01*
G37*
G36*
X46263600Y-133464843D02*
X46263547Y-133472265D01*
X46263517Y-133476658D01*
X46263503Y-133478681D01*
X46241887Y-133671389D01*
X46183253Y-133856229D01*
X46089833Y-134026159D01*
X45965185Y-134174708D01*
X45814059Y-134296217D01*
X45642209Y-134386058D01*
X45456182Y-134440809D01*
X45456148Y-134440812D01*
X45456135Y-134440816D01*
X45263065Y-134458387D01*
X45070259Y-134438122D01*
X45070245Y-134438117D01*
X45070209Y-134438114D01*
X44884965Y-134380771D01*
X44714386Y-134288540D01*
X44564971Y-134164933D01*
X44442409Y-134014658D01*
X44351371Y-133843440D01*
X44295323Y-133657799D01*
X44276400Y-133464808D01*
X44276400Y-133462609D01*
X44276400Y-133455192D01*
X44276400Y-133455157D01*
X44276452Y-133447734D01*
X44276497Y-133441319D01*
X44298113Y-133248611D01*
X44356747Y-133063771D01*
X44450167Y-132893841D01*
X44574815Y-132745292D01*
X44725941Y-132623783D01*
X44897791Y-132533942D01*
X45083818Y-132479191D01*
X45083851Y-132479187D01*
X45083865Y-132479184D01*
X45276935Y-132461613D01*
X45469741Y-132481878D01*
X45469754Y-132481882D01*
X45469791Y-132481886D01*
X45655035Y-132539229D01*
X45825614Y-132631460D01*
X45975029Y-132755067D01*
X46097591Y-132905342D01*
X46188629Y-133076560D01*
X46244677Y-133262201D01*
X46263600Y-133455192D01*
X46263600Y-133457391D01*
X46263600Y-133464808D01*
X46263600Y-133464843D01*
X46263600Y-133464843D01*
G37*
G36*
X46263600Y-136004843D02*
X46263547Y-136012265D01*
X46263517Y-136016658D01*
X46263503Y-136018681D01*
X46241887Y-136211389D01*
X46183253Y-136396229D01*
X46089833Y-136566159D01*
X45965185Y-136714708D01*
X45814059Y-136836217D01*
X45642209Y-136926058D01*
X45456182Y-136980809D01*
X45456148Y-136980812D01*
X45456135Y-136980816D01*
X45263065Y-136998387D01*
X45070259Y-136978122D01*
X45070245Y-136978117D01*
X45070209Y-136978114D01*
X44884965Y-136920771D01*
X44714386Y-136828540D01*
X44564971Y-136704933D01*
X44442409Y-136554658D01*
X44351371Y-136383440D01*
X44295323Y-136197799D01*
X44276400Y-136004808D01*
X44276400Y-136002609D01*
X44276400Y-135995192D01*
X44276400Y-135995157D01*
X44276452Y-135987734D01*
X44276497Y-135981319D01*
X44298113Y-135788611D01*
X44356747Y-135603771D01*
X44450167Y-135433841D01*
X44574815Y-135285292D01*
X44725941Y-135163783D01*
X44897791Y-135073942D01*
X45083818Y-135019191D01*
X45083851Y-135019187D01*
X45083865Y-135019184D01*
X45276935Y-135001613D01*
X45469741Y-135021878D01*
X45469754Y-135021882D01*
X45469791Y-135021886D01*
X45655035Y-135079229D01*
X45825614Y-135171460D01*
X45975029Y-135295067D01*
X46097591Y-135445342D01*
X46188629Y-135616560D01*
X46244677Y-135802201D01*
X46263600Y-135995192D01*
X46263600Y-135997391D01*
X46263600Y-136004808D01*
X46263600Y-136004843D01*
X46263600Y-136004843D01*
G37*
G36*
X46263600Y-138544843D02*
X46263547Y-138552265D01*
X46263517Y-138556658D01*
X46263503Y-138558681D01*
X46241887Y-138751389D01*
X46183253Y-138936229D01*
X46089833Y-139106159D01*
X45965185Y-139254708D01*
X45814059Y-139376217D01*
X45642209Y-139466058D01*
X45456182Y-139520809D01*
X45456148Y-139520812D01*
X45456135Y-139520816D01*
X45263065Y-139538387D01*
X45070259Y-139518122D01*
X45070245Y-139518117D01*
X45070209Y-139518114D01*
X44884965Y-139460771D01*
X44714386Y-139368540D01*
X44564971Y-139244933D01*
X44442409Y-139094658D01*
X44351371Y-138923440D01*
X44295323Y-138737799D01*
X44276400Y-138544808D01*
X44276400Y-138542609D01*
X44276400Y-138535192D01*
X44276400Y-138535157D01*
X44276452Y-138527734D01*
X44276497Y-138521319D01*
X44298113Y-138328611D01*
X44356747Y-138143771D01*
X44450167Y-137973841D01*
X44574815Y-137825292D01*
X44725941Y-137703783D01*
X44897791Y-137613942D01*
X45083818Y-137559191D01*
X45083851Y-137559187D01*
X45083865Y-137559184D01*
X45276935Y-137541613D01*
X45469741Y-137561878D01*
X45469754Y-137561882D01*
X45469791Y-137561886D01*
X45655035Y-137619229D01*
X45825614Y-137711460D01*
X45975029Y-137835067D01*
X46097591Y-137985342D01*
X46188629Y-138156560D01*
X46244677Y-138342201D01*
X46263600Y-138535192D01*
X46263600Y-138537391D01*
X46263600Y-138544808D01*
X46263600Y-138544843D01*
X46263600Y-138544843D01*
G37*
G36*
X46363600Y-150764843D02*
X46363547Y-150772265D01*
X46363517Y-150776658D01*
X46363503Y-150778681D01*
X46341887Y-150971389D01*
X46283253Y-151156229D01*
X46189833Y-151326159D01*
X46065185Y-151474708D01*
X45914059Y-151596217D01*
X45742209Y-151686058D01*
X45556182Y-151740809D01*
X45556148Y-151740812D01*
X45556135Y-151740816D01*
X45363065Y-151758387D01*
X45170259Y-151738122D01*
X45170245Y-151738117D01*
X45170209Y-151738114D01*
X44984965Y-151680771D01*
X44814386Y-151588540D01*
X44664971Y-151464933D01*
X44542409Y-151314658D01*
X44451371Y-151143440D01*
X44395323Y-150957799D01*
X44376400Y-150764808D01*
X44376400Y-150762609D01*
X44376400Y-150755192D01*
X44376400Y-150755157D01*
X44376452Y-150747734D01*
X44376497Y-150741319D01*
X44398113Y-150548611D01*
X44456747Y-150363771D01*
X44550167Y-150193841D01*
X44674815Y-150045292D01*
X44825941Y-149923783D01*
X44997791Y-149833942D01*
X45183818Y-149779191D01*
X45183851Y-149779187D01*
X45183865Y-149779184D01*
X45376935Y-149761613D01*
X45569741Y-149781878D01*
X45569754Y-149781882D01*
X45569791Y-149781886D01*
X45755035Y-149839229D01*
X45925614Y-149931460D01*
X46075029Y-150055067D01*
X46197591Y-150205342D01*
X46288629Y-150376560D01*
X46344677Y-150562201D01*
X46363600Y-150755192D01*
X46363600Y-150757391D01*
X46363600Y-150764808D01*
X46363600Y-150764843D01*
X46363600Y-150764843D01*
G37*
G36*
X46363600Y-153304843D02*
X46363547Y-153312265D01*
X46363517Y-153316658D01*
X46363503Y-153318681D01*
X46341887Y-153511389D01*
X46283253Y-153696229D01*
X46189833Y-153866159D01*
X46065185Y-154014708D01*
X45914059Y-154136217D01*
X45742209Y-154226058D01*
X45556182Y-154280809D01*
X45556148Y-154280812D01*
X45556135Y-154280816D01*
X45363065Y-154298387D01*
X45170259Y-154278122D01*
X45170245Y-154278117D01*
X45170209Y-154278114D01*
X44984965Y-154220771D01*
X44814386Y-154128540D01*
X44664971Y-154004933D01*
X44542409Y-153854658D01*
X44451371Y-153683440D01*
X44395323Y-153497799D01*
X44376400Y-153304808D01*
X44376400Y-153302609D01*
X44376400Y-153295192D01*
X44376400Y-153295157D01*
X44376452Y-153287734D01*
X44376497Y-153281319D01*
X44398113Y-153088611D01*
X44456747Y-152903771D01*
X44550167Y-152733841D01*
X44674815Y-152585292D01*
X44825941Y-152463783D01*
X44997791Y-152373942D01*
X45183818Y-152319191D01*
X45183851Y-152319187D01*
X45183865Y-152319184D01*
X45376935Y-152301613D01*
X45569741Y-152321878D01*
X45569754Y-152321882D01*
X45569791Y-152321886D01*
X45755035Y-152379229D01*
X45925614Y-152471460D01*
X46075029Y-152595067D01*
X46197591Y-152745342D01*
X46288629Y-152916560D01*
X46344677Y-153102201D01*
X46363600Y-153295192D01*
X46363600Y-153297391D01*
X46363600Y-153304808D01*
X46363600Y-153304843D01*
X46363600Y-153304843D01*
G37*
G36*
X46363600Y-155844843D02*
X46363547Y-155852265D01*
X46363517Y-155856658D01*
X46363503Y-155858681D01*
X46341887Y-156051389D01*
X46283253Y-156236229D01*
X46189833Y-156406159D01*
X46065185Y-156554708D01*
X45914059Y-156676217D01*
X45742209Y-156766058D01*
X45556182Y-156820809D01*
X45556148Y-156820812D01*
X45556135Y-156820816D01*
X45363065Y-156838387D01*
X45170259Y-156818122D01*
X45170245Y-156818117D01*
X45170209Y-156818114D01*
X44984965Y-156760771D01*
X44814386Y-156668540D01*
X44664971Y-156544933D01*
X44542409Y-156394658D01*
X44451371Y-156223440D01*
X44395323Y-156037799D01*
X44376400Y-155844808D01*
X44376400Y-155842609D01*
X44376400Y-155835192D01*
X44376400Y-155835157D01*
X44376452Y-155827734D01*
X44376497Y-155821319D01*
X44398113Y-155628611D01*
X44456747Y-155443771D01*
X44550167Y-155273841D01*
X44674815Y-155125292D01*
X44825941Y-155003783D01*
X44997791Y-154913942D01*
X45183818Y-154859191D01*
X45183851Y-154859187D01*
X45183865Y-154859184D01*
X45376935Y-154841613D01*
X45569741Y-154861878D01*
X45569754Y-154861882D01*
X45569791Y-154861886D01*
X45755035Y-154919229D01*
X45925614Y-155011460D01*
X46075029Y-155135067D01*
X46197591Y-155285342D01*
X46288629Y-155456560D01*
X46344677Y-155642201D01*
X46363600Y-155835192D01*
X46363600Y-155837391D01*
X46363600Y-155844808D01*
X46363600Y-155844843D01*
X46363600Y-155844843D01*
G37*
G36*
X46421520Y-121007999D02*
X46398146Y-121230386D01*
X46398141Y-121230399D01*
X46398138Y-121230435D01*
X46332000Y-121444093D01*
X46225622Y-121640835D01*
X46083056Y-121813168D01*
X45909732Y-121954528D01*
X45712252Y-122059530D01*
X45498138Y-122124175D01*
X45275545Y-122146000D01*
X45273345Y-122146000D01*
X45264455Y-122146000D01*
X45264420Y-122146000D01*
X45256131Y-122145941D01*
X45250478Y-122145902D01*
X45248454Y-122145888D01*
X45026188Y-122120957D01*
X44812998Y-122053329D01*
X44617003Y-121945580D01*
X44445669Y-121801814D01*
X44305523Y-121627507D01*
X44201902Y-121429299D01*
X44138754Y-121214739D01*
X44138750Y-121214705D01*
X44138747Y-121214692D01*
X44118480Y-120992001D01*
X44141854Y-120769614D01*
X44141858Y-120769600D01*
X44141862Y-120769565D01*
X44208000Y-120555907D01*
X44314378Y-120359165D01*
X44456944Y-120186832D01*
X44630268Y-120045472D01*
X44827748Y-119940470D01*
X45041862Y-119875825D01*
X45264455Y-119854000D01*
X45266655Y-119854000D01*
X45275545Y-119854000D01*
X45275580Y-119854000D01*
X45283868Y-119854058D01*
X45291546Y-119854112D01*
X45513812Y-119879043D01*
X45727002Y-119946671D01*
X45922997Y-120054420D01*
X46094331Y-120198186D01*
X46234477Y-120372493D01*
X46338098Y-120570701D01*
X46401246Y-120785261D01*
X46401249Y-120785294D01*
X46401253Y-120785308D01*
X46421520Y-121007999D01*
X46421520Y-121007999D01*
G37*
G36*
X47140275Y-71509632D02*
X47112128Y-71777437D01*
X47112124Y-71777449D01*
X47112120Y-71777488D01*
X47032477Y-72034772D01*
X46904378Y-72271686D01*
X46732701Y-72479208D01*
X46523986Y-72649431D01*
X46286183Y-72775874D01*
X46028349Y-72853718D01*
X45760306Y-72880000D01*
X45758107Y-72880000D01*
X44239694Y-72880000D01*
X44239656Y-72880000D01*
X44222450Y-72879880D01*
X44222442Y-72879879D01*
X44220426Y-72879865D01*
X43952776Y-72849844D01*
X43696054Y-72768407D01*
X43460040Y-72638657D01*
X43253722Y-72465535D01*
X43084959Y-72255637D01*
X42960180Y-72016957D01*
X42884138Y-71758586D01*
X42884134Y-71758552D01*
X42884131Y-71758539D01*
X42859725Y-71490368D01*
X42887872Y-71222563D01*
X42887875Y-71222550D01*
X42887880Y-71222512D01*
X42967523Y-70965228D01*
X43095622Y-70728314D01*
X43267299Y-70520792D01*
X43476014Y-70350569D01*
X43713817Y-70224126D01*
X43971651Y-70146282D01*
X44239694Y-70120000D01*
X44241893Y-70120000D01*
X45760306Y-70120000D01*
X45760344Y-70120000D01*
X45777550Y-70120120D01*
X45777557Y-70120120D01*
X45779574Y-70120135D01*
X46047224Y-70150156D01*
X46303946Y-70231593D01*
X46539960Y-70361343D01*
X46746278Y-70534465D01*
X46915041Y-70744363D01*
X47039820Y-70983043D01*
X47115862Y-71241414D01*
X47115865Y-71241447D01*
X47115869Y-71241461D01*
X47140275Y-71509632D01*
X47140275Y-71509632D01*
G37*
G36*
X47140275Y-76509632D02*
X47112128Y-76777437D01*
X47112124Y-76777449D01*
X47112120Y-76777488D01*
X47032477Y-77034772D01*
X46904378Y-77271686D01*
X46732701Y-77479208D01*
X46523986Y-77649431D01*
X46286183Y-77775874D01*
X46028349Y-77853718D01*
X45760306Y-77880000D01*
X45758107Y-77880000D01*
X44239694Y-77880000D01*
X44239656Y-77880000D01*
X44222450Y-77879880D01*
X44222442Y-77879879D01*
X44220426Y-77879865D01*
X43952776Y-77849844D01*
X43696054Y-77768407D01*
X43460040Y-77638657D01*
X43253722Y-77465535D01*
X43084959Y-77255637D01*
X42960180Y-77016957D01*
X42884138Y-76758586D01*
X42884134Y-76758552D01*
X42884131Y-76758539D01*
X42859725Y-76490368D01*
X42887872Y-76222563D01*
X42887875Y-76222550D01*
X42887880Y-76222512D01*
X42967523Y-75965228D01*
X43095622Y-75728314D01*
X43267299Y-75520792D01*
X43476014Y-75350569D01*
X43713817Y-75224126D01*
X43971651Y-75146282D01*
X44239694Y-75120000D01*
X44241893Y-75120000D01*
X45760306Y-75120000D01*
X45760344Y-75120000D01*
X45777550Y-75120120D01*
X45777557Y-75120120D01*
X45779574Y-75120135D01*
X46047224Y-75150156D01*
X46303946Y-75231593D01*
X46539960Y-75361343D01*
X46746278Y-75534465D01*
X46915041Y-75744363D01*
X47039820Y-75983043D01*
X47115862Y-76241414D01*
X47115865Y-76241447D01*
X47115869Y-76241461D01*
X47140275Y-76509632D01*
X47140275Y-76509632D01*
G37*
G36*
X47140275Y-81509632D02*
X47112128Y-81777437D01*
X47112124Y-81777449D01*
X47112120Y-81777488D01*
X47032477Y-82034772D01*
X46904378Y-82271686D01*
X46732701Y-82479208D01*
X46523986Y-82649431D01*
X46286183Y-82775874D01*
X46028349Y-82853718D01*
X45760306Y-82880000D01*
X45758107Y-82880000D01*
X44239694Y-82880000D01*
X44239656Y-82880000D01*
X44222450Y-82879880D01*
X44222442Y-82879879D01*
X44220426Y-82879865D01*
X43952776Y-82849844D01*
X43696054Y-82768407D01*
X43460040Y-82638657D01*
X43253722Y-82465535D01*
X43084959Y-82255637D01*
X42960180Y-82016957D01*
X42884138Y-81758586D01*
X42884134Y-81758552D01*
X42884131Y-81758539D01*
X42859725Y-81490368D01*
X42887872Y-81222563D01*
X42887875Y-81222550D01*
X42887880Y-81222512D01*
X42967523Y-80965228D01*
X43095622Y-80728314D01*
X43267299Y-80520792D01*
X43476014Y-80350569D01*
X43713817Y-80224126D01*
X43971651Y-80146282D01*
X44239694Y-80120000D01*
X44241893Y-80120000D01*
X45760306Y-80120000D01*
X45760344Y-80120000D01*
X45777550Y-80120120D01*
X45777557Y-80120120D01*
X45779574Y-80120135D01*
X46047224Y-80150156D01*
X46303946Y-80231593D01*
X46539960Y-80361343D01*
X46746278Y-80534465D01*
X46915041Y-80744363D01*
X47039820Y-80983043D01*
X47115862Y-81241414D01*
X47115865Y-81241447D01*
X47115869Y-81241461D01*
X47140275Y-81509632D01*
X47140275Y-81509632D01*
G37*
G36*
X48980000Y-61230000D02*
X46220000Y-61230000D01*
X46220000Y-58970000D01*
X48980000Y-58970000D01*
X48980000Y-61230000D01*
X48980000Y-61230000D01*
G37*
G36*
X48980000Y-65230000D02*
X46220000Y-65230000D01*
X46220000Y-62970000D01*
X48980000Y-62970000D01*
X48980000Y-65230000D01*
X48980000Y-65230000D01*
G37*
G36*
X52330033Y-54723517D02*
X52327594Y-54898233D01*
X52327518Y-54898566D01*
X52327518Y-54898578D01*
X52293707Y-55047397D01*
X52231490Y-55187139D01*
X52143313Y-55312137D01*
X52032541Y-55417625D01*
X51903388Y-55499587D01*
X51760772Y-55554905D01*
X51610133Y-55581466D01*
X51457200Y-55578263D01*
X51307796Y-55545414D01*
X51167627Y-55484176D01*
X51042020Y-55396876D01*
X50935758Y-55286839D01*
X50852898Y-55158265D01*
X50796586Y-55016040D01*
X50768972Y-54865582D01*
X50771109Y-54712632D01*
X50802911Y-54563012D01*
X50863172Y-54422413D01*
X50949593Y-54296199D01*
X51058884Y-54189172D01*
X51186880Y-54105414D01*
X51328708Y-54048112D01*
X51478961Y-54019449D01*
X51631926Y-54020518D01*
X51781770Y-54051277D01*
X51922781Y-54110552D01*
X52049600Y-54196092D01*
X52157384Y-54304631D01*
X52242032Y-54432038D01*
X52300324Y-54573462D01*
X52329968Y-54723173D01*
X52329967Y-54723187D01*
X52330033Y-54723517D01*
X52330033Y-54723517D01*
G37*
G36*
X54180000Y-49130000D02*
X52620000Y-49130000D01*
X52620000Y-47370000D01*
X54180000Y-47370000D01*
X54180000Y-49130000D01*
X54180000Y-49130000D01*
G37*
G36*
X54180000Y-51830000D02*
X52620000Y-51830000D01*
X52620000Y-50070000D01*
X54180000Y-50070000D01*
X54180000Y-51830000D01*
X54180000Y-51830000D01*
G37*
G36*
X55530430Y-73578820D02*
X53469570Y-73578820D01*
X53469570Y-70169220D01*
X55530430Y-70169220D01*
X55530430Y-73578820D01*
X55530430Y-73578820D01*
G37*
G36*
X55530430Y-77830780D02*
X53469570Y-77830780D01*
X53469570Y-74421180D01*
X55530430Y-74421180D01*
X55530430Y-77830780D01*
X55530430Y-77830780D01*
G37*
G36*
X61830000Y-53955000D02*
X60070000Y-53955000D01*
X60070000Y-52445000D01*
X61830000Y-52445000D01*
X61830000Y-53955000D01*
X61830000Y-53955000D01*
G37*
G36*
X64330000Y-53955000D02*
X62570000Y-53955000D01*
X62570000Y-52445000D01*
X64330000Y-52445000D01*
X64330000Y-53955000D01*
X64330000Y-53955000D01*
G37*
G36*
X72780000Y-49130000D02*
X71220000Y-49130000D01*
X71220000Y-47370000D01*
X72780000Y-47370000D01*
X72780000Y-49130000D01*
X72780000Y-49130000D01*
G37*
G36*
X72780000Y-51830000D02*
X71220000Y-51830000D01*
X71220000Y-50070000D01*
X72780000Y-50070000D01*
X72780000Y-51830000D01*
X72780000Y-51830000D01*
G37*
G36*
X74730033Y-54723517D02*
X74727594Y-54898233D01*
X74727518Y-54898566D01*
X74727518Y-54898578D01*
X74693707Y-55047397D01*
X74631490Y-55187139D01*
X74543313Y-55312137D01*
X74432541Y-55417625D01*
X74303388Y-55499587D01*
X74160772Y-55554905D01*
X74010133Y-55581466D01*
X73857200Y-55578263D01*
X73707796Y-55545414D01*
X73567627Y-55484176D01*
X73442020Y-55396876D01*
X73335758Y-55286839D01*
X73252898Y-55158265D01*
X73196586Y-55016040D01*
X73168972Y-54865582D01*
X73171109Y-54712632D01*
X73202911Y-54563012D01*
X73263172Y-54422413D01*
X73349593Y-54296199D01*
X73458884Y-54189172D01*
X73586880Y-54105414D01*
X73728708Y-54048112D01*
X73878961Y-54019449D01*
X74031926Y-54020518D01*
X74181770Y-54051277D01*
X74322781Y-54110552D01*
X74449600Y-54196092D01*
X74557384Y-54304631D01*
X74642032Y-54432038D01*
X74700324Y-54573462D01*
X74729968Y-54723173D01*
X74729967Y-54723187D01*
X74730033Y-54723517D01*
X74730033Y-54723517D01*
G37*
G36*
X76568387Y-105236935D02*
X76548122Y-105429741D01*
X76548117Y-105429754D01*
X76548114Y-105429791D01*
X76490771Y-105615035D01*
X76398540Y-105785614D01*
X76274933Y-105935029D01*
X76124658Y-106057591D01*
X75953440Y-106148629D01*
X75767799Y-106204677D01*
X75574808Y-106223600D01*
X75572609Y-106223600D01*
X75565192Y-106223600D01*
X75565157Y-106223600D01*
X75557734Y-106223547D01*
X75553342Y-106223517D01*
X75551319Y-106223503D01*
X75358611Y-106201887D01*
X75173771Y-106143253D01*
X75003841Y-106049833D01*
X74855292Y-105925185D01*
X74733783Y-105774059D01*
X74643942Y-105602209D01*
X74589191Y-105416182D01*
X74589187Y-105416148D01*
X74589184Y-105416135D01*
X74571613Y-105223065D01*
X74591878Y-105030259D01*
X74591882Y-105030245D01*
X74591886Y-105030209D01*
X74649229Y-104844965D01*
X74741460Y-104674386D01*
X74865067Y-104524971D01*
X75015342Y-104402409D01*
X75186560Y-104311371D01*
X75372201Y-104255323D01*
X75565192Y-104236400D01*
X75567391Y-104236400D01*
X75574808Y-104236400D01*
X75574843Y-104236400D01*
X75582265Y-104236452D01*
X75588681Y-104236497D01*
X75781389Y-104258113D01*
X75966229Y-104316747D01*
X76136159Y-104410167D01*
X76284708Y-104534815D01*
X76406217Y-104685941D01*
X76496058Y-104857791D01*
X76550809Y-105043818D01*
X76550812Y-105043851D01*
X76550816Y-105043865D01*
X76568387Y-105236935D01*
X76568387Y-105236935D01*
G37*
G36*
X76568387Y-107776935D02*
X76548122Y-107969741D01*
X76548117Y-107969754D01*
X76548114Y-107969791D01*
X76490771Y-108155035D01*
X76398540Y-108325614D01*
X76274933Y-108475029D01*
X76124658Y-108597591D01*
X75953440Y-108688629D01*
X75767799Y-108744677D01*
X75574808Y-108763600D01*
X75572609Y-108763600D01*
X75565192Y-108763600D01*
X75565157Y-108763600D01*
X75557734Y-108763547D01*
X75553342Y-108763517D01*
X75551319Y-108763503D01*
X75358611Y-108741887D01*
X75173771Y-108683253D01*
X75003841Y-108589833D01*
X74855292Y-108465185D01*
X74733783Y-108314059D01*
X74643942Y-108142209D01*
X74589191Y-107956182D01*
X74589187Y-107956148D01*
X74589184Y-107956135D01*
X74571613Y-107763065D01*
X74591878Y-107570259D01*
X74591882Y-107570245D01*
X74591886Y-107570209D01*
X74649229Y-107384965D01*
X74741460Y-107214386D01*
X74865067Y-107064971D01*
X75015342Y-106942409D01*
X75186560Y-106851371D01*
X75372201Y-106795323D01*
X75565192Y-106776400D01*
X75567391Y-106776400D01*
X75574808Y-106776400D01*
X75574843Y-106776400D01*
X75582265Y-106776452D01*
X75588681Y-106776497D01*
X75781389Y-106798113D01*
X75966229Y-106856747D01*
X76136159Y-106950167D01*
X76284708Y-107074815D01*
X76406217Y-107225941D01*
X76496058Y-107397791D01*
X76550809Y-107583818D01*
X76550812Y-107583851D01*
X76550816Y-107583865D01*
X76568387Y-107776935D01*
X76568387Y-107776935D01*
G37*
G36*
X79108387Y-105236935D02*
X79088122Y-105429741D01*
X79088117Y-105429754D01*
X79088114Y-105429791D01*
X79030771Y-105615035D01*
X78938540Y-105785614D01*
X78814933Y-105935029D01*
X78664658Y-106057591D01*
X78493440Y-106148629D01*
X78307799Y-106204677D01*
X78114808Y-106223600D01*
X78112609Y-106223600D01*
X78105192Y-106223600D01*
X78105157Y-106223600D01*
X78097734Y-106223547D01*
X78093342Y-106223517D01*
X78091319Y-106223503D01*
X77898611Y-106201887D01*
X77713771Y-106143253D01*
X77543841Y-106049833D01*
X77395292Y-105925185D01*
X77273783Y-105774059D01*
X77183942Y-105602209D01*
X77129191Y-105416182D01*
X77129187Y-105416148D01*
X77129184Y-105416135D01*
X77111613Y-105223065D01*
X77131878Y-105030259D01*
X77131882Y-105030245D01*
X77131886Y-105030209D01*
X77189229Y-104844965D01*
X77281460Y-104674386D01*
X77405067Y-104524971D01*
X77555342Y-104402409D01*
X77726560Y-104311371D01*
X77912201Y-104255323D01*
X78105192Y-104236400D01*
X78107391Y-104236400D01*
X78114808Y-104236400D01*
X78114843Y-104236400D01*
X78122265Y-104236452D01*
X78128681Y-104236497D01*
X78321389Y-104258113D01*
X78506229Y-104316747D01*
X78676159Y-104410167D01*
X78824708Y-104534815D01*
X78946217Y-104685941D01*
X79036058Y-104857791D01*
X79090809Y-105043818D01*
X79090812Y-105043851D01*
X79090816Y-105043865D01*
X79108387Y-105236935D01*
X79108387Y-105236935D01*
G37*
G36*
X79108387Y-107776935D02*
X79088122Y-107969741D01*
X79088117Y-107969754D01*
X79088114Y-107969791D01*
X79030771Y-108155035D01*
X78938540Y-108325614D01*
X78814933Y-108475029D01*
X78664658Y-108597591D01*
X78493440Y-108688629D01*
X78307799Y-108744677D01*
X78114808Y-108763600D01*
X78112609Y-108763600D01*
X78105192Y-108763600D01*
X78105157Y-108763600D01*
X78097734Y-108763547D01*
X78093342Y-108763517D01*
X78091319Y-108763503D01*
X77898611Y-108741887D01*
X77713771Y-108683253D01*
X77543841Y-108589833D01*
X77395292Y-108465185D01*
X77273783Y-108314059D01*
X77183942Y-108142209D01*
X77129191Y-107956182D01*
X77129187Y-107956148D01*
X77129184Y-107956135D01*
X77111613Y-107763065D01*
X77131878Y-107570259D01*
X77131882Y-107570245D01*
X77131886Y-107570209D01*
X77189229Y-107384965D01*
X77281460Y-107214386D01*
X77405067Y-107064971D01*
X77555342Y-106942409D01*
X77726560Y-106851371D01*
X77912201Y-106795323D01*
X78105192Y-106776400D01*
X78107391Y-106776400D01*
X78114808Y-106776400D01*
X78114843Y-106776400D01*
X78122265Y-106776452D01*
X78128681Y-106776497D01*
X78321389Y-106798113D01*
X78506229Y-106856747D01*
X78676159Y-106950167D01*
X78824708Y-107074815D01*
X78946217Y-107225941D01*
X79036058Y-107397791D01*
X79090809Y-107583818D01*
X79090812Y-107583851D01*
X79090816Y-107583865D01*
X79108387Y-107776935D01*
X79108387Y-107776935D01*
G37*
G36*
X81648387Y-105236935D02*
X81628122Y-105429741D01*
X81628117Y-105429754D01*
X81628114Y-105429791D01*
X81570771Y-105615035D01*
X81478540Y-105785614D01*
X81354933Y-105935029D01*
X81204658Y-106057591D01*
X81033440Y-106148629D01*
X80847799Y-106204677D01*
X80654808Y-106223600D01*
X80652609Y-106223600D01*
X80645192Y-106223600D01*
X80645157Y-106223600D01*
X80637734Y-106223547D01*
X80633342Y-106223517D01*
X80631319Y-106223503D01*
X80438611Y-106201887D01*
X80253771Y-106143253D01*
X80083841Y-106049833D01*
X79935292Y-105925185D01*
X79813783Y-105774059D01*
X79723942Y-105602209D01*
X79669191Y-105416182D01*
X79669187Y-105416148D01*
X79669184Y-105416135D01*
X79651613Y-105223065D01*
X79671878Y-105030259D01*
X79671882Y-105030245D01*
X79671886Y-105030209D01*
X79729229Y-104844965D01*
X79821460Y-104674386D01*
X79945067Y-104524971D01*
X80095342Y-104402409D01*
X80266560Y-104311371D01*
X80452201Y-104255323D01*
X80645192Y-104236400D01*
X80647391Y-104236400D01*
X80654808Y-104236400D01*
X80654843Y-104236400D01*
X80662265Y-104236452D01*
X80668681Y-104236497D01*
X80861389Y-104258113D01*
X81046229Y-104316747D01*
X81216159Y-104410167D01*
X81364708Y-104534815D01*
X81486217Y-104685941D01*
X81576058Y-104857791D01*
X81630809Y-105043818D01*
X81630812Y-105043851D01*
X81630816Y-105043865D01*
X81648387Y-105236935D01*
X81648387Y-105236935D01*
G37*
G36*
X81648387Y-107776935D02*
X81628122Y-107969741D01*
X81628117Y-107969754D01*
X81628114Y-107969791D01*
X81570771Y-108155035D01*
X81478540Y-108325614D01*
X81354933Y-108475029D01*
X81204658Y-108597591D01*
X81033440Y-108688629D01*
X80847799Y-108744677D01*
X80654808Y-108763600D01*
X80652609Y-108763600D01*
X80645192Y-108763600D01*
X80645157Y-108763600D01*
X80637734Y-108763547D01*
X80633342Y-108763517D01*
X80631319Y-108763503D01*
X80438611Y-108741887D01*
X80253771Y-108683253D01*
X80083841Y-108589833D01*
X79935292Y-108465185D01*
X79813783Y-108314059D01*
X79723942Y-108142209D01*
X79669191Y-107956182D01*
X79669187Y-107956148D01*
X79669184Y-107956135D01*
X79651613Y-107763065D01*
X79671878Y-107570259D01*
X79671882Y-107570245D01*
X79671886Y-107570209D01*
X79729229Y-107384965D01*
X79821460Y-107214386D01*
X79945067Y-107064971D01*
X80095342Y-106942409D01*
X80266560Y-106851371D01*
X80452201Y-106795323D01*
X80645192Y-106776400D01*
X80647391Y-106776400D01*
X80654808Y-106776400D01*
X80654843Y-106776400D01*
X80662265Y-106776452D01*
X80668681Y-106776497D01*
X80861389Y-106798113D01*
X81046229Y-106856747D01*
X81216159Y-106950167D01*
X81364708Y-107074815D01*
X81486217Y-107225941D01*
X81576058Y-107397791D01*
X81630809Y-107583818D01*
X81630812Y-107583851D01*
X81630816Y-107583865D01*
X81648387Y-107776935D01*
X81648387Y-107776935D01*
G37*
G36*
X83430044Y-161399003D02*
X83426823Y-161629718D01*
X83426747Y-161630051D01*
X83426747Y-161630064D01*
X83382075Y-161826691D01*
X83299916Y-162011223D01*
X83183481Y-162176280D01*
X83037198Y-162315583D01*
X82866653Y-162423813D01*
X82678328Y-162496861D01*
X82479405Y-162531936D01*
X82277456Y-162527706D01*
X82080168Y-162484329D01*
X81895072Y-162403463D01*
X81729205Y-162288182D01*
X81588886Y-162142878D01*
X81479467Y-161973093D01*
X81405108Y-161785283D01*
X81368643Y-161586602D01*
X81371464Y-161384630D01*
X81413460Y-161187053D01*
X81493035Y-161001391D01*
X81607155Y-160834724D01*
X81751475Y-160693394D01*
X81920495Y-160582791D01*
X82107781Y-160507123D01*
X82306193Y-160469273D01*
X82508185Y-160470684D01*
X82706055Y-160511301D01*
X82892263Y-160589575D01*
X83059727Y-160702531D01*
X83202056Y-160845857D01*
X83313841Y-161014106D01*
X83390811Y-161200852D01*
X83429979Y-161398660D01*
X83429978Y-161398673D01*
X83430044Y-161399003D01*
X83430044Y-161399003D01*
G37*
G36*
X84188387Y-105236935D02*
X84168122Y-105429741D01*
X84168117Y-105429754D01*
X84168114Y-105429791D01*
X84110771Y-105615035D01*
X84018540Y-105785614D01*
X83894933Y-105935029D01*
X83744658Y-106057591D01*
X83573440Y-106148629D01*
X83387799Y-106204677D01*
X83194808Y-106223600D01*
X83192609Y-106223600D01*
X83185192Y-106223600D01*
X83185157Y-106223600D01*
X83177734Y-106223547D01*
X83173342Y-106223517D01*
X83171319Y-106223503D01*
X82978611Y-106201887D01*
X82793771Y-106143253D01*
X82623841Y-106049833D01*
X82475292Y-105925185D01*
X82353783Y-105774059D01*
X82263942Y-105602209D01*
X82209191Y-105416182D01*
X82209187Y-105416148D01*
X82209184Y-105416135D01*
X82191613Y-105223065D01*
X82211878Y-105030259D01*
X82211882Y-105030245D01*
X82211886Y-105030209D01*
X82269229Y-104844965D01*
X82361460Y-104674386D01*
X82485067Y-104524971D01*
X82635342Y-104402409D01*
X82806560Y-104311371D01*
X82992201Y-104255323D01*
X83185192Y-104236400D01*
X83187391Y-104236400D01*
X83194808Y-104236400D01*
X83194843Y-104236400D01*
X83202265Y-104236452D01*
X83208681Y-104236497D01*
X83401389Y-104258113D01*
X83586229Y-104316747D01*
X83756159Y-104410167D01*
X83904708Y-104534815D01*
X84026217Y-104685941D01*
X84116058Y-104857791D01*
X84170809Y-105043818D01*
X84170812Y-105043851D01*
X84170816Y-105043865D01*
X84188387Y-105236935D01*
X84188387Y-105236935D01*
G37*
G36*
X84188387Y-107776935D02*
X84168122Y-107969741D01*
X84168117Y-107969754D01*
X84168114Y-107969791D01*
X84110771Y-108155035D01*
X84018540Y-108325614D01*
X83894933Y-108475029D01*
X83744658Y-108597591D01*
X83573440Y-108688629D01*
X83387799Y-108744677D01*
X83194808Y-108763600D01*
X83192609Y-108763600D01*
X83185192Y-108763600D01*
X83185157Y-108763600D01*
X83177734Y-108763547D01*
X83173342Y-108763517D01*
X83171319Y-108763503D01*
X82978611Y-108741887D01*
X82793771Y-108683253D01*
X82623841Y-108589833D01*
X82475292Y-108465185D01*
X82353783Y-108314059D01*
X82263942Y-108142209D01*
X82209191Y-107956182D01*
X82209187Y-107956148D01*
X82209184Y-107956135D01*
X82191613Y-107763065D01*
X82211878Y-107570259D01*
X82211882Y-107570245D01*
X82211886Y-107570209D01*
X82269229Y-107384965D01*
X82361460Y-107214386D01*
X82485067Y-107064971D01*
X82635342Y-106942409D01*
X82806560Y-106851371D01*
X82992201Y-106795323D01*
X83185192Y-106776400D01*
X83187391Y-106776400D01*
X83194808Y-106776400D01*
X83194843Y-106776400D01*
X83202265Y-106776452D01*
X83208681Y-106776497D01*
X83401389Y-106798113D01*
X83586229Y-106856747D01*
X83756159Y-106950167D01*
X83904708Y-107074815D01*
X84026217Y-107225941D01*
X84116058Y-107397791D01*
X84170809Y-107583818D01*
X84170812Y-107583851D01*
X84170816Y-107583865D01*
X84188387Y-107776935D01*
X84188387Y-107776935D01*
G37*
G36*
X85970044Y-161399003D02*
X85966823Y-161629718D01*
X85966747Y-161630051D01*
X85966747Y-161630064D01*
X85922075Y-161826691D01*
X85839916Y-162011223D01*
X85723481Y-162176280D01*
X85577198Y-162315583D01*
X85406653Y-162423813D01*
X85218328Y-162496861D01*
X85019405Y-162531936D01*
X84817456Y-162527706D01*
X84620168Y-162484329D01*
X84435072Y-162403463D01*
X84269205Y-162288182D01*
X84128886Y-162142878D01*
X84019467Y-161973093D01*
X83945108Y-161785283D01*
X83908643Y-161586602D01*
X83911464Y-161384630D01*
X83953460Y-161187053D01*
X84033035Y-161001391D01*
X84147155Y-160834724D01*
X84291475Y-160693394D01*
X84460495Y-160582791D01*
X84647781Y-160507123D01*
X84846193Y-160469273D01*
X85048185Y-160470684D01*
X85246055Y-160511301D01*
X85432263Y-160589575D01*
X85599727Y-160702531D01*
X85742056Y-160845857D01*
X85853841Y-161014106D01*
X85930811Y-161200852D01*
X85969979Y-161398660D01*
X85969978Y-161398673D01*
X85970044Y-161399003D01*
X85970044Y-161399003D01*
G37*
G36*
X86685560Y-34687723D02*
X86681181Y-35001316D01*
X86681105Y-35001649D01*
X86681105Y-35001662D01*
X86620358Y-35269046D01*
X86508685Y-35519865D01*
X86350424Y-35744215D01*
X86151595Y-35933557D01*
X85919785Y-36080668D01*
X85663810Y-36179954D01*
X85393428Y-36227630D01*
X85118935Y-36221881D01*
X84850780Y-36162923D01*
X84599190Y-36053005D01*
X84373741Y-35896314D01*
X84183017Y-35698814D01*
X84034291Y-35468037D01*
X83933220Y-35212762D01*
X83883657Y-34942713D01*
X83887491Y-34668187D01*
X83944573Y-34399635D01*
X84052733Y-34147280D01*
X84207847Y-33920742D01*
X84404010Y-33728644D01*
X84633746Y-33578309D01*
X84888309Y-33475459D01*
X85157997Y-33424013D01*
X85432548Y-33425931D01*
X85701496Y-33481138D01*
X85954595Y-33587531D01*
X86182215Y-33741062D01*
X86375673Y-33935875D01*
X86527612Y-34164561D01*
X86632233Y-34418393D01*
X86685494Y-34687379D01*
X86685493Y-34687388D01*
X86685560Y-34687723D01*
X86685560Y-34687723D01*
G37*
G36*
X86728387Y-105236935D02*
X86708122Y-105429741D01*
X86708117Y-105429754D01*
X86708114Y-105429791D01*
X86650771Y-105615035D01*
X86558540Y-105785614D01*
X86434933Y-105935029D01*
X86284658Y-106057591D01*
X86113440Y-106148629D01*
X85927799Y-106204677D01*
X85734808Y-106223600D01*
X85732609Y-106223600D01*
X85725192Y-106223600D01*
X85725157Y-106223600D01*
X85717734Y-106223547D01*
X85713342Y-106223517D01*
X85711319Y-106223503D01*
X85518611Y-106201887D01*
X85333771Y-106143253D01*
X85163841Y-106049833D01*
X85015292Y-105925185D01*
X84893783Y-105774059D01*
X84803942Y-105602209D01*
X84749191Y-105416182D01*
X84749187Y-105416148D01*
X84749184Y-105416135D01*
X84731613Y-105223065D01*
X84751878Y-105030259D01*
X84751882Y-105030245D01*
X84751886Y-105030209D01*
X84809229Y-104844965D01*
X84901460Y-104674386D01*
X85025067Y-104524971D01*
X85175342Y-104402409D01*
X85346560Y-104311371D01*
X85532201Y-104255323D01*
X85725192Y-104236400D01*
X85727391Y-104236400D01*
X85734808Y-104236400D01*
X85734843Y-104236400D01*
X85742265Y-104236452D01*
X85748681Y-104236497D01*
X85941389Y-104258113D01*
X86126229Y-104316747D01*
X86296159Y-104410167D01*
X86444708Y-104534815D01*
X86566217Y-104685941D01*
X86656058Y-104857791D01*
X86710809Y-105043818D01*
X86710812Y-105043851D01*
X86710816Y-105043865D01*
X86728387Y-105236935D01*
X86728387Y-105236935D01*
G37*
G36*
X86728387Y-107776935D02*
X86708122Y-107969741D01*
X86708117Y-107969754D01*
X86708114Y-107969791D01*
X86650771Y-108155035D01*
X86558540Y-108325614D01*
X86434933Y-108475029D01*
X86284658Y-108597591D01*
X86113440Y-108688629D01*
X85927799Y-108744677D01*
X85734808Y-108763600D01*
X85732609Y-108763600D01*
X85725192Y-108763600D01*
X85725157Y-108763600D01*
X85717734Y-108763547D01*
X85713342Y-108763517D01*
X85711319Y-108763503D01*
X85518611Y-108741887D01*
X85333771Y-108683253D01*
X85163841Y-108589833D01*
X85015292Y-108465185D01*
X84893783Y-108314059D01*
X84803942Y-108142209D01*
X84749191Y-107956182D01*
X84749187Y-107956148D01*
X84749184Y-107956135D01*
X84731613Y-107763065D01*
X84751878Y-107570259D01*
X84751882Y-107570245D01*
X84751886Y-107570209D01*
X84809229Y-107384965D01*
X84901460Y-107214386D01*
X85025067Y-107064971D01*
X85175342Y-106942409D01*
X85346560Y-106851371D01*
X85532201Y-106795323D01*
X85725192Y-106776400D01*
X85727391Y-106776400D01*
X85734808Y-106776400D01*
X85734843Y-106776400D01*
X85742265Y-106776452D01*
X85748681Y-106776497D01*
X85941389Y-106798113D01*
X86126229Y-106856747D01*
X86296159Y-106950167D01*
X86444708Y-107074815D01*
X86566217Y-107225941D01*
X86656058Y-107397791D01*
X86710809Y-107583818D01*
X86710812Y-107583851D01*
X86710816Y-107583865D01*
X86728387Y-107776935D01*
X86728387Y-107776935D01*
G37*
G36*
X87091941Y-51546108D02*
X87088952Y-51760135D01*
X87088876Y-51760468D01*
X87088876Y-51760481D01*
X87047441Y-51942861D01*
X86971224Y-52114046D01*
X86863211Y-52267164D01*
X86727509Y-52396391D01*
X86569300Y-52496793D01*
X86394596Y-52564558D01*
X86210062Y-52597095D01*
X86022720Y-52593172D01*
X85839701Y-52552932D01*
X85667998Y-52477917D01*
X85514121Y-52370970D01*
X85383955Y-52236178D01*
X85282450Y-52078674D01*
X85213469Y-51904448D01*
X85179642Y-51720138D01*
X85182259Y-51532775D01*
X85221217Y-51349489D01*
X85295035Y-51177258D01*
X85400906Y-51022639D01*
X85534780Y-50891538D01*
X85691578Y-50788933D01*
X85865317Y-50718738D01*
X86049378Y-50683626D01*
X86236760Y-50684935D01*
X86420318Y-50722614D01*
X86593057Y-50795227D01*
X86748406Y-50900010D01*
X86880445Y-51032975D01*
X86984141Y-51189049D01*
X87055546Y-51362291D01*
X87091875Y-51545765D01*
X87091874Y-51545774D01*
X87091941Y-51546108D01*
X87091941Y-51546108D01*
G37*
G36*
X87730000Y-42780000D02*
X85970000Y-42780000D01*
X85970000Y-41220000D01*
X87730000Y-41220000D01*
X87730000Y-42780000D01*
X87730000Y-42780000D01*
G37*
G36*
X88755676Y-37827854D02*
X88750185Y-38221100D01*
X88750108Y-38221438D01*
X88750108Y-38221446D01*
X88673911Y-38556834D01*
X88533874Y-38871361D01*
X88335414Y-39152696D01*
X88086083Y-39390130D01*
X87795393Y-39574607D01*
X87474400Y-39699112D01*
X87135341Y-39758898D01*
X86791126Y-39751688D01*
X86454860Y-39677755D01*
X86139368Y-39539920D01*
X85856654Y-39343428D01*
X85617487Y-39095763D01*
X85430984Y-38806368D01*
X85304241Y-38486253D01*
X85242089Y-38147613D01*
X85246897Y-37803357D01*
X85318478Y-37466592D01*
X85454110Y-37150139D01*
X85648623Y-36866061D01*
X85894612Y-36625170D01*
X86182701Y-36436650D01*
X86501922Y-36307676D01*
X86840112Y-36243163D01*
X87184398Y-36245567D01*
X87521659Y-36314797D01*
X87839046Y-36448214D01*
X88124477Y-36640739D01*
X88367078Y-36885041D01*
X88557606Y-37171807D01*
X88688804Y-37490118D01*
X88755610Y-37827511D01*
X88755609Y-37827520D01*
X88755676Y-37827854D01*
X88755676Y-37827854D01*
G37*
G36*
X89162038Y-49088535D02*
X89159248Y-49288338D01*
X89159172Y-49288671D01*
X89159172Y-49288684D01*
X89120496Y-49458920D01*
X89049343Y-49618731D01*
X88948512Y-49761670D01*
X88821825Y-49882311D01*
X88674131Y-49976040D01*
X88511037Y-50039301D01*
X88338767Y-50069676D01*
X88163875Y-50066013D01*
X87993020Y-50028448D01*
X87832726Y-49958417D01*
X87689076Y-49858578D01*
X87567562Y-49732746D01*
X87472800Y-49585706D01*
X87408404Y-49423061D01*
X87376825Y-49250999D01*
X87379268Y-49076087D01*
X87415637Y-48904982D01*
X87484551Y-48744195D01*
X87583381Y-48599858D01*
X87708365Y-48477463D01*
X87854739Y-48381679D01*
X88016932Y-48316149D01*
X88188761Y-48283371D01*
X88363690Y-48284592D01*
X88535050Y-48319768D01*
X88696309Y-48387555D01*
X88841334Y-48485375D01*
X88964598Y-48609503D01*
X89061404Y-48755207D01*
X89128061Y-48916932D01*
X89128061Y-48916936D01*
X89161972Y-49088191D01*
X89161971Y-49088200D01*
X89162038Y-49088535D01*
X89162038Y-49088535D01*
G37*
G36*
X89268387Y-105236935D02*
X89248122Y-105429741D01*
X89248117Y-105429754D01*
X89248114Y-105429791D01*
X89190771Y-105615035D01*
X89098540Y-105785614D01*
X88974933Y-105935029D01*
X88824658Y-106057591D01*
X88653440Y-106148629D01*
X88467799Y-106204677D01*
X88274808Y-106223600D01*
X88272609Y-106223600D01*
X88265192Y-106223600D01*
X88265157Y-106223600D01*
X88257734Y-106223547D01*
X88253342Y-106223517D01*
X88251319Y-106223503D01*
X88058611Y-106201887D01*
X87873771Y-106143253D01*
X87703841Y-106049833D01*
X87555292Y-105925185D01*
X87433783Y-105774059D01*
X87343942Y-105602209D01*
X87289191Y-105416182D01*
X87289187Y-105416148D01*
X87289184Y-105416135D01*
X87271613Y-105223065D01*
X87291878Y-105030259D01*
X87291882Y-105030245D01*
X87291886Y-105030209D01*
X87349229Y-104844965D01*
X87441460Y-104674386D01*
X87565067Y-104524971D01*
X87715342Y-104402409D01*
X87886560Y-104311371D01*
X88072201Y-104255323D01*
X88265192Y-104236400D01*
X88267391Y-104236400D01*
X88274808Y-104236400D01*
X88274843Y-104236400D01*
X88282265Y-104236452D01*
X88288681Y-104236497D01*
X88481389Y-104258113D01*
X88666229Y-104316747D01*
X88836159Y-104410167D01*
X88984708Y-104534815D01*
X89106217Y-104685941D01*
X89196058Y-104857791D01*
X89250809Y-105043818D01*
X89250812Y-105043851D01*
X89250816Y-105043865D01*
X89268387Y-105236935D01*
X89268387Y-105236935D01*
G37*
G36*
X89268387Y-107776935D02*
X89248122Y-107969741D01*
X89248117Y-107969754D01*
X89248114Y-107969791D01*
X89190771Y-108155035D01*
X89098540Y-108325614D01*
X88974933Y-108475029D01*
X88824658Y-108597591D01*
X88653440Y-108688629D01*
X88467799Y-108744677D01*
X88274808Y-108763600D01*
X88272609Y-108763600D01*
X88265192Y-108763600D01*
X88265157Y-108763600D01*
X88257734Y-108763547D01*
X88253342Y-108763517D01*
X88251319Y-108763503D01*
X88058611Y-108741887D01*
X87873771Y-108683253D01*
X87703841Y-108589833D01*
X87555292Y-108465185D01*
X87433783Y-108314059D01*
X87343942Y-108142209D01*
X87289191Y-107956182D01*
X87289187Y-107956148D01*
X87289184Y-107956135D01*
X87271613Y-107763065D01*
X87291878Y-107570259D01*
X87291882Y-107570245D01*
X87291886Y-107570209D01*
X87349229Y-107384965D01*
X87441460Y-107214386D01*
X87565067Y-107064971D01*
X87715342Y-106942409D01*
X87886560Y-106851371D01*
X88072201Y-106795323D01*
X88265192Y-106776400D01*
X88267391Y-106776400D01*
X88274808Y-106776400D01*
X88274843Y-106776400D01*
X88282265Y-106776452D01*
X88288681Y-106776497D01*
X88481389Y-106798113D01*
X88666229Y-106856747D01*
X88836159Y-106950167D01*
X88984708Y-107074815D01*
X89106217Y-107225941D01*
X89196058Y-107397791D01*
X89250809Y-107583818D01*
X89250812Y-107583851D01*
X89250816Y-107583865D01*
X89268387Y-107776935D01*
X89268387Y-107776935D01*
G37*
G36*
X89530000Y-56780000D02*
X87770000Y-56780000D01*
X87770000Y-55220000D01*
X89530000Y-55220000D01*
X89530000Y-56780000D01*
X89530000Y-56780000D01*
G37*
G36*
X89631941Y-51546108D02*
X89628952Y-51760135D01*
X89628876Y-51760468D01*
X89628876Y-51760481D01*
X89587441Y-51942861D01*
X89511224Y-52114046D01*
X89403211Y-52267164D01*
X89267509Y-52396391D01*
X89109300Y-52496793D01*
X88934596Y-52564558D01*
X88750062Y-52597095D01*
X88562720Y-52593172D01*
X88379701Y-52552932D01*
X88207998Y-52477917D01*
X88054121Y-52370970D01*
X87923955Y-52236178D01*
X87822450Y-52078674D01*
X87753469Y-51904448D01*
X87719642Y-51720138D01*
X87722259Y-51532775D01*
X87761217Y-51349489D01*
X87835035Y-51177258D01*
X87940906Y-51022639D01*
X88074780Y-50891538D01*
X88231578Y-50788933D01*
X88405317Y-50718738D01*
X88589378Y-50683626D01*
X88776760Y-50684935D01*
X88960318Y-50722614D01*
X89133057Y-50795227D01*
X89288406Y-50900010D01*
X89420445Y-51032975D01*
X89524141Y-51189049D01*
X89595546Y-51362291D01*
X89631875Y-51545765D01*
X89631874Y-51545774D01*
X89631941Y-51546108D01*
X89631941Y-51546108D01*
G37*
G36*
X90430000Y-42780000D02*
X88670000Y-42780000D01*
X88670000Y-41220000D01*
X90430000Y-41220000D01*
X90430000Y-42780000D01*
X90430000Y-42780000D01*
G37*
G36*
X90580000Y-46105000D02*
X89120000Y-46105000D01*
X89120000Y-45095000D01*
X90580000Y-45095000D01*
X90580000Y-46105000D01*
X90580000Y-46105000D01*
G37*
G36*
X91194038Y-49088535D02*
X91191248Y-49288338D01*
X91191172Y-49288671D01*
X91191172Y-49288684D01*
X91152496Y-49458920D01*
X91081343Y-49618731D01*
X90980512Y-49761670D01*
X90853825Y-49882311D01*
X90706131Y-49976040D01*
X90543037Y-50039301D01*
X90370767Y-50069676D01*
X90195875Y-50066013D01*
X90025020Y-50028448D01*
X89864726Y-49958417D01*
X89721076Y-49858578D01*
X89599562Y-49732746D01*
X89504800Y-49585706D01*
X89440404Y-49423061D01*
X89408825Y-49250999D01*
X89411268Y-49076087D01*
X89447637Y-48904982D01*
X89516551Y-48744195D01*
X89615381Y-48599858D01*
X89740365Y-48477463D01*
X89886739Y-48381679D01*
X90048932Y-48316149D01*
X90220761Y-48283371D01*
X90395690Y-48284592D01*
X90567050Y-48319768D01*
X90728309Y-48387555D01*
X90873334Y-48485375D01*
X90996598Y-48609503D01*
X91093404Y-48755207D01*
X91160061Y-48916932D01*
X91160061Y-48916936D01*
X91193972Y-49088191D01*
X91193971Y-49088200D01*
X91194038Y-49088535D01*
X91194038Y-49088535D01*
G37*
G36*
X91530000Y-77505000D02*
X90070000Y-77505000D01*
X90070000Y-76495000D01*
X91530000Y-76495000D01*
X91530000Y-77505000D01*
X91530000Y-77505000D01*
G37*
G36*
X91808387Y-105236935D02*
X91788122Y-105429741D01*
X91788117Y-105429754D01*
X91788114Y-105429791D01*
X91730771Y-105615035D01*
X91638540Y-105785614D01*
X91514933Y-105935029D01*
X91364658Y-106057591D01*
X91193440Y-106148629D01*
X91007799Y-106204677D01*
X90814808Y-106223600D01*
X90812609Y-106223600D01*
X90805192Y-106223600D01*
X90805157Y-106223600D01*
X90797734Y-106223547D01*
X90793342Y-106223517D01*
X90791319Y-106223503D01*
X90598611Y-106201887D01*
X90413771Y-106143253D01*
X90243841Y-106049833D01*
X90095292Y-105925185D01*
X89973783Y-105774059D01*
X89883942Y-105602209D01*
X89829191Y-105416182D01*
X89829187Y-105416148D01*
X89829184Y-105416135D01*
X89811613Y-105223065D01*
X89831878Y-105030259D01*
X89831882Y-105030245D01*
X89831886Y-105030209D01*
X89889229Y-104844965D01*
X89981460Y-104674386D01*
X90105067Y-104524971D01*
X90255342Y-104402409D01*
X90426560Y-104311371D01*
X90612201Y-104255323D01*
X90805192Y-104236400D01*
X90807391Y-104236400D01*
X90814808Y-104236400D01*
X90814843Y-104236400D01*
X90822265Y-104236452D01*
X90828681Y-104236497D01*
X91021389Y-104258113D01*
X91206229Y-104316747D01*
X91376159Y-104410167D01*
X91524708Y-104534815D01*
X91646217Y-104685941D01*
X91736058Y-104857791D01*
X91790809Y-105043818D01*
X91790812Y-105043851D01*
X91790816Y-105043865D01*
X91808387Y-105236935D01*
X91808387Y-105236935D01*
G37*
G36*
X91808387Y-107776935D02*
X91788122Y-107969741D01*
X91788117Y-107969754D01*
X91788114Y-107969791D01*
X91730771Y-108155035D01*
X91638540Y-108325614D01*
X91514933Y-108475029D01*
X91364658Y-108597591D01*
X91193440Y-108688629D01*
X91007799Y-108744677D01*
X90814808Y-108763600D01*
X90812609Y-108763600D01*
X90805192Y-108763600D01*
X90805157Y-108763600D01*
X90797734Y-108763547D01*
X90793342Y-108763517D01*
X90791319Y-108763503D01*
X90598611Y-108741887D01*
X90413771Y-108683253D01*
X90243841Y-108589833D01*
X90095292Y-108465185D01*
X89973783Y-108314059D01*
X89883942Y-108142209D01*
X89829191Y-107956182D01*
X89829187Y-107956148D01*
X89829184Y-107956135D01*
X89811613Y-107763065D01*
X89831878Y-107570259D01*
X89831882Y-107570245D01*
X89831886Y-107570209D01*
X89889229Y-107384965D01*
X89981460Y-107214386D01*
X90105067Y-107064971D01*
X90255342Y-106942409D01*
X90426560Y-106851371D01*
X90612201Y-106795323D01*
X90805192Y-106776400D01*
X90807391Y-106776400D01*
X90814808Y-106776400D01*
X90814843Y-106776400D01*
X90822265Y-106776452D01*
X90828681Y-106776497D01*
X91021389Y-106798113D01*
X91206229Y-106856747D01*
X91376159Y-106950167D01*
X91524708Y-107074815D01*
X91646217Y-107225941D01*
X91736058Y-107397791D01*
X91790809Y-107583818D01*
X91790812Y-107583851D01*
X91790816Y-107583865D01*
X91808387Y-107776935D01*
X91808387Y-107776935D01*
G37*
G36*
X92130000Y-133255000D02*
X90370000Y-133255000D01*
X90370000Y-131745000D01*
X92130000Y-131745000D01*
X92130000Y-133255000D01*
X92130000Y-133255000D01*
G37*
G36*
X92230000Y-56780000D02*
X90470000Y-56780000D01*
X90470000Y-55220000D01*
X92230000Y-55220000D01*
X92230000Y-56780000D01*
X92230000Y-56780000D01*
G37*
G36*
X92480000Y-46105000D02*
X91020000Y-46105000D01*
X91020000Y-45095000D01*
X92480000Y-45095000D01*
X92480000Y-46105000D01*
X92480000Y-46105000D01*
G37*
G36*
X93130000Y-127755000D02*
X91370000Y-127755000D01*
X91370000Y-126245000D01*
X93130000Y-126245000D01*
X93130000Y-127755000D01*
X93130000Y-127755000D01*
G37*
G36*
X93226038Y-49088535D02*
X93223248Y-49288338D01*
X93223172Y-49288671D01*
X93223172Y-49288684D01*
X93184496Y-49458920D01*
X93113343Y-49618731D01*
X93012512Y-49761670D01*
X92885825Y-49882311D01*
X92738131Y-49976040D01*
X92575037Y-50039301D01*
X92402767Y-50069676D01*
X92227875Y-50066013D01*
X92057020Y-50028448D01*
X91896726Y-49958417D01*
X91753076Y-49858578D01*
X91631562Y-49732746D01*
X91536800Y-49585706D01*
X91472404Y-49423061D01*
X91440825Y-49250999D01*
X91443268Y-49076087D01*
X91479637Y-48904982D01*
X91548551Y-48744195D01*
X91647381Y-48599858D01*
X91772365Y-48477463D01*
X91918739Y-48381679D01*
X92080932Y-48316149D01*
X92252761Y-48283371D01*
X92427690Y-48284592D01*
X92599050Y-48319768D01*
X92760309Y-48387555D01*
X92905334Y-48485375D01*
X93028598Y-48609503D01*
X93125404Y-48755207D01*
X93192061Y-48916932D01*
X93192061Y-48916936D01*
X93225972Y-49088191D01*
X93225971Y-49088200D01*
X93226038Y-49088535D01*
X93226038Y-49088535D01*
G37*
G36*
X93430000Y-77505000D02*
X91970000Y-77505000D01*
X91970000Y-76495000D01*
X93430000Y-76495000D01*
X93430000Y-77505000D01*
X93430000Y-77505000D01*
G37*
G36*
X93505000Y-73530000D02*
X92495000Y-73530000D01*
X92495000Y-72070000D01*
X93505000Y-72070000D01*
X93505000Y-73530000D01*
X93505000Y-73530000D01*
G37*
G36*
X93505000Y-75430000D02*
X92495000Y-75430000D01*
X92495000Y-73970000D01*
X93505000Y-73970000D01*
X93505000Y-75430000D01*
X93505000Y-75430000D01*
G37*
G36*
X94348387Y-105236935D02*
X94328122Y-105429741D01*
X94328117Y-105429754D01*
X94328114Y-105429791D01*
X94270771Y-105615035D01*
X94178540Y-105785614D01*
X94054933Y-105935029D01*
X93904658Y-106057591D01*
X93733440Y-106148629D01*
X93547799Y-106204677D01*
X93354808Y-106223600D01*
X93352609Y-106223600D01*
X93345192Y-106223600D01*
X93345157Y-106223600D01*
X93337734Y-106223547D01*
X93333342Y-106223517D01*
X93331319Y-106223503D01*
X93138611Y-106201887D01*
X92953771Y-106143253D01*
X92783841Y-106049833D01*
X92635292Y-105925185D01*
X92513783Y-105774059D01*
X92423942Y-105602209D01*
X92369191Y-105416182D01*
X92369187Y-105416148D01*
X92369184Y-105416135D01*
X92351613Y-105223065D01*
X92371878Y-105030259D01*
X92371882Y-105030245D01*
X92371886Y-105030209D01*
X92429229Y-104844965D01*
X92521460Y-104674386D01*
X92645067Y-104524971D01*
X92795342Y-104402409D01*
X92966560Y-104311371D01*
X93152201Y-104255323D01*
X93345192Y-104236400D01*
X93347391Y-104236400D01*
X93354808Y-104236400D01*
X93354843Y-104236400D01*
X93362265Y-104236452D01*
X93368681Y-104236497D01*
X93561389Y-104258113D01*
X93746229Y-104316747D01*
X93916159Y-104410167D01*
X94064708Y-104534815D01*
X94186217Y-104685941D01*
X94276058Y-104857791D01*
X94330809Y-105043818D01*
X94330812Y-105043851D01*
X94330816Y-105043865D01*
X94348387Y-105236935D01*
X94348387Y-105236935D01*
G37*
G36*
X94348387Y-107776935D02*
X94328122Y-107969741D01*
X94328117Y-107969754D01*
X94328114Y-107969791D01*
X94270771Y-108155035D01*
X94178540Y-108325614D01*
X94054933Y-108475029D01*
X93904658Y-108597591D01*
X93733440Y-108688629D01*
X93547799Y-108744677D01*
X93354808Y-108763600D01*
X93352609Y-108763600D01*
X93345192Y-108763600D01*
X93345157Y-108763600D01*
X93337734Y-108763547D01*
X93333342Y-108763517D01*
X93331319Y-108763503D01*
X93138611Y-108741887D01*
X92953771Y-108683253D01*
X92783841Y-108589833D01*
X92635292Y-108465185D01*
X92513783Y-108314059D01*
X92423942Y-108142209D01*
X92369191Y-107956182D01*
X92369187Y-107956148D01*
X92369184Y-107956135D01*
X92351613Y-107763065D01*
X92371878Y-107570259D01*
X92371882Y-107570245D01*
X92371886Y-107570209D01*
X92429229Y-107384965D01*
X92521460Y-107214386D01*
X92645067Y-107064971D01*
X92795342Y-106942409D01*
X92966560Y-106851371D01*
X93152201Y-106795323D01*
X93345192Y-106776400D01*
X93347391Y-106776400D01*
X93354808Y-106776400D01*
X93354843Y-106776400D01*
X93362265Y-106776452D01*
X93368681Y-106776497D01*
X93561389Y-106798113D01*
X93746229Y-106856747D01*
X93916159Y-106950167D01*
X94064708Y-107074815D01*
X94186217Y-107225941D01*
X94276058Y-107397791D01*
X94330809Y-107583818D01*
X94330812Y-107583851D01*
X94330816Y-107583865D01*
X94348387Y-107776935D01*
X94348387Y-107776935D01*
G37*
G36*
X94630000Y-133255000D02*
X92870000Y-133255000D01*
X92870000Y-131745000D01*
X94630000Y-131745000D01*
X94630000Y-133255000D01*
X94630000Y-133255000D01*
G37*
G36*
X95258038Y-49088535D02*
X95255248Y-49288338D01*
X95255172Y-49288671D01*
X95255172Y-49288684D01*
X95216496Y-49458920D01*
X95145343Y-49618731D01*
X95044512Y-49761670D01*
X94917825Y-49882311D01*
X94770131Y-49976040D01*
X94607037Y-50039301D01*
X94434767Y-50069676D01*
X94259875Y-50066013D01*
X94089020Y-50028448D01*
X93928726Y-49958417D01*
X93785076Y-49858578D01*
X93663562Y-49732746D01*
X93568800Y-49585706D01*
X93504404Y-49423061D01*
X93472825Y-49250999D01*
X93475268Y-49076087D01*
X93511637Y-48904982D01*
X93580551Y-48744195D01*
X93679381Y-48599858D01*
X93804365Y-48477463D01*
X93950739Y-48381679D01*
X94112932Y-48316149D01*
X94284761Y-48283371D01*
X94459690Y-48284592D01*
X94631050Y-48319768D01*
X94792309Y-48387555D01*
X94937334Y-48485375D01*
X95060598Y-48609503D01*
X95157404Y-48755207D01*
X95224061Y-48916932D01*
X95224061Y-48916936D01*
X95257972Y-49088191D01*
X95257971Y-49088200D01*
X95258038Y-49088535D01*
X95258038Y-49088535D01*
G37*
G36*
X95580000Y-46105000D02*
X94120000Y-46105000D01*
X94120000Y-45095000D01*
X95580000Y-45095000D01*
X95580000Y-46105000D01*
X95580000Y-46105000D01*
G37*
G36*
X95630000Y-127755000D02*
X93870000Y-127755000D01*
X93870000Y-126245000D01*
X95630000Y-126245000D01*
X95630000Y-127755000D01*
X95630000Y-127755000D01*
G37*
G36*
X96255000Y-73530000D02*
X95245000Y-73530000D01*
X95245000Y-72070000D01*
X96255000Y-72070000D01*
X96255000Y-73530000D01*
X96255000Y-73530000D01*
G37*
G36*
X96255000Y-75430000D02*
X95245000Y-75430000D01*
X95245000Y-73970000D01*
X96255000Y-73970000D01*
X96255000Y-75430000D01*
X96255000Y-75430000D01*
G37*
G36*
X96888387Y-105236935D02*
X96868122Y-105429741D01*
X96868117Y-105429754D01*
X96868114Y-105429791D01*
X96810771Y-105615035D01*
X96718540Y-105785614D01*
X96594933Y-105935029D01*
X96444658Y-106057591D01*
X96273440Y-106148629D01*
X96087799Y-106204677D01*
X95894808Y-106223600D01*
X95892609Y-106223600D01*
X95885192Y-106223600D01*
X95885157Y-106223600D01*
X95877734Y-106223547D01*
X95873342Y-106223517D01*
X95871319Y-106223503D01*
X95678611Y-106201887D01*
X95493771Y-106143253D01*
X95323841Y-106049833D01*
X95175292Y-105925185D01*
X95053783Y-105774059D01*
X94963942Y-105602209D01*
X94909191Y-105416182D01*
X94909187Y-105416148D01*
X94909184Y-105416135D01*
X94891613Y-105223065D01*
X94911878Y-105030259D01*
X94911882Y-105030245D01*
X94911886Y-105030209D01*
X94969229Y-104844965D01*
X95061460Y-104674386D01*
X95185067Y-104524971D01*
X95335342Y-104402409D01*
X95506560Y-104311371D01*
X95692201Y-104255323D01*
X95885192Y-104236400D01*
X95887391Y-104236400D01*
X95894808Y-104236400D01*
X95894843Y-104236400D01*
X95902265Y-104236452D01*
X95908681Y-104236497D01*
X96101389Y-104258113D01*
X96286229Y-104316747D01*
X96456159Y-104410167D01*
X96604708Y-104534815D01*
X96726217Y-104685941D01*
X96816058Y-104857791D01*
X96870809Y-105043818D01*
X96870812Y-105043851D01*
X96870816Y-105043865D01*
X96888387Y-105236935D01*
X96888387Y-105236935D01*
G37*
G36*
X96888387Y-107776935D02*
X96868122Y-107969741D01*
X96868117Y-107969754D01*
X96868114Y-107969791D01*
X96810771Y-108155035D01*
X96718540Y-108325614D01*
X96594933Y-108475029D01*
X96444658Y-108597591D01*
X96273440Y-108688629D01*
X96087799Y-108744677D01*
X95894808Y-108763600D01*
X95892609Y-108763600D01*
X95885192Y-108763600D01*
X95885157Y-108763600D01*
X95877734Y-108763547D01*
X95873342Y-108763517D01*
X95871319Y-108763503D01*
X95678611Y-108741887D01*
X95493771Y-108683253D01*
X95323841Y-108589833D01*
X95175292Y-108465185D01*
X95053783Y-108314059D01*
X94963942Y-108142209D01*
X94909191Y-107956182D01*
X94909187Y-107956148D01*
X94909184Y-107956135D01*
X94891613Y-107763065D01*
X94911878Y-107570259D01*
X94911882Y-107570245D01*
X94911886Y-107570209D01*
X94969229Y-107384965D01*
X95061460Y-107214386D01*
X95185067Y-107064971D01*
X95335342Y-106942409D01*
X95506560Y-106851371D01*
X95692201Y-106795323D01*
X95885192Y-106776400D01*
X95887391Y-106776400D01*
X95894808Y-106776400D01*
X95894843Y-106776400D01*
X95902265Y-106776452D01*
X95908681Y-106776497D01*
X96101389Y-106798113D01*
X96286229Y-106856747D01*
X96456159Y-106950167D01*
X96604708Y-107074815D01*
X96726217Y-107225941D01*
X96816058Y-107397791D01*
X96870809Y-107583818D01*
X96870812Y-107583851D01*
X96870816Y-107583865D01*
X96888387Y-107776935D01*
X96888387Y-107776935D01*
G37*
G36*
X97290038Y-49088535D02*
X97287248Y-49288338D01*
X97287172Y-49288671D01*
X97287172Y-49288684D01*
X97248496Y-49458920D01*
X97177343Y-49618731D01*
X97076512Y-49761670D01*
X96949825Y-49882311D01*
X96802131Y-49976040D01*
X96639037Y-50039301D01*
X96466767Y-50069676D01*
X96291875Y-50066013D01*
X96121020Y-50028448D01*
X95960726Y-49958417D01*
X95817076Y-49858578D01*
X95695562Y-49732746D01*
X95600800Y-49585706D01*
X95536404Y-49423061D01*
X95504825Y-49250999D01*
X95507268Y-49076087D01*
X95543637Y-48904982D01*
X95612551Y-48744195D01*
X95711381Y-48599858D01*
X95836365Y-48477463D01*
X95982739Y-48381679D01*
X96144932Y-48316149D01*
X96316761Y-48283371D01*
X96491690Y-48284592D01*
X96663050Y-48319768D01*
X96824309Y-48387555D01*
X96969334Y-48485375D01*
X97092598Y-48609503D01*
X97189404Y-48755207D01*
X97256061Y-48916932D01*
X97256061Y-48916936D01*
X97289972Y-49088191D01*
X97289971Y-49088200D01*
X97290038Y-49088535D01*
X97290038Y-49088535D01*
G37*
G36*
X97480000Y-46105000D02*
X96020000Y-46105000D01*
X96020000Y-45095000D01*
X97480000Y-45095000D01*
X97480000Y-46105000D01*
X97480000Y-46105000D01*
G37*
G36*
X98630000Y-127755000D02*
X96870000Y-127755000D01*
X96870000Y-126245000D01*
X98630000Y-126245000D01*
X98630000Y-127755000D01*
X98630000Y-127755000D01*
G37*
G36*
X98880000Y-133505000D02*
X97120000Y-133505000D01*
X97120000Y-131995000D01*
X98880000Y-131995000D01*
X98880000Y-133505000D01*
X98880000Y-133505000D01*
G37*
G36*
X98979141Y-51546108D02*
X98976152Y-51760135D01*
X98976076Y-51760468D01*
X98976076Y-51760481D01*
X98934641Y-51942861D01*
X98858424Y-52114046D01*
X98750411Y-52267164D01*
X98614709Y-52396391D01*
X98456500Y-52496793D01*
X98281796Y-52564558D01*
X98097262Y-52597095D01*
X97909920Y-52593172D01*
X97726901Y-52552932D01*
X97555198Y-52477917D01*
X97401321Y-52370970D01*
X97271155Y-52236178D01*
X97169650Y-52078674D01*
X97100669Y-51904448D01*
X97066842Y-51720138D01*
X97069459Y-51532775D01*
X97108417Y-51349489D01*
X97182235Y-51177258D01*
X97288106Y-51022639D01*
X97421980Y-50891538D01*
X97578778Y-50788933D01*
X97752517Y-50718738D01*
X97936578Y-50683626D01*
X98123960Y-50684935D01*
X98307518Y-50722614D01*
X98480257Y-50795227D01*
X98635606Y-50900010D01*
X98767645Y-51032975D01*
X98871341Y-51189049D01*
X98942746Y-51362291D01*
X98979075Y-51545765D01*
X98979074Y-51545774D01*
X98979141Y-51546108D01*
X98979141Y-51546108D01*
G37*
G36*
X99322038Y-49088535D02*
X99319248Y-49288338D01*
X99319172Y-49288671D01*
X99319172Y-49288684D01*
X99280496Y-49458920D01*
X99209343Y-49618731D01*
X99108512Y-49761670D01*
X98981825Y-49882311D01*
X98834131Y-49976040D01*
X98671037Y-50039301D01*
X98498767Y-50069676D01*
X98323875Y-50066013D01*
X98153020Y-50028448D01*
X97992726Y-49958417D01*
X97849076Y-49858578D01*
X97727562Y-49732746D01*
X97632800Y-49585706D01*
X97568404Y-49423061D01*
X97536825Y-49250999D01*
X97539268Y-49076087D01*
X97575637Y-48904982D01*
X97644551Y-48744195D01*
X97743381Y-48599858D01*
X97868365Y-48477463D01*
X98014739Y-48381679D01*
X98176932Y-48316149D01*
X98348761Y-48283371D01*
X98523690Y-48284592D01*
X98695050Y-48319768D01*
X98856309Y-48387555D01*
X99001334Y-48485375D01*
X99124598Y-48609503D01*
X99221404Y-48755207D01*
X99288061Y-48916932D01*
X99288061Y-48916936D01*
X99321972Y-49088191D01*
X99321971Y-49088200D01*
X99322038Y-49088535D01*
X99322038Y-49088535D01*
G37*
G36*
X99423600Y-106223600D02*
X97436400Y-106223600D01*
X97436400Y-104236400D01*
X99423600Y-104236400D01*
X99423600Y-106223600D01*
X99423600Y-106223600D01*
G37*
G36*
X99428387Y-107776935D02*
X99408122Y-107969741D01*
X99408117Y-107969754D01*
X99408114Y-107969791D01*
X99350771Y-108155035D01*
X99258540Y-108325614D01*
X99134933Y-108475029D01*
X98984658Y-108597591D01*
X98813440Y-108688629D01*
X98627799Y-108744677D01*
X98434808Y-108763600D01*
X98432609Y-108763600D01*
X98425192Y-108763600D01*
X98425157Y-108763600D01*
X98417734Y-108763547D01*
X98413342Y-108763517D01*
X98411319Y-108763503D01*
X98218611Y-108741887D01*
X98033771Y-108683253D01*
X97863841Y-108589833D01*
X97715292Y-108465185D01*
X97593783Y-108314059D01*
X97503942Y-108142209D01*
X97449191Y-107956182D01*
X97449187Y-107956148D01*
X97449184Y-107956135D01*
X97431613Y-107763065D01*
X97451878Y-107570259D01*
X97451882Y-107570245D01*
X97451886Y-107570209D01*
X97509229Y-107384965D01*
X97601460Y-107214386D01*
X97725067Y-107064971D01*
X97875342Y-106942409D01*
X98046560Y-106851371D01*
X98232201Y-106795323D01*
X98425192Y-106776400D01*
X98427391Y-106776400D01*
X98434808Y-106776400D01*
X98434843Y-106776400D01*
X98442265Y-106776452D01*
X98448681Y-106776497D01*
X98641389Y-106798113D01*
X98826229Y-106856747D01*
X98996159Y-106950167D01*
X99144708Y-107074815D01*
X99266217Y-107225941D01*
X99356058Y-107397791D01*
X99410809Y-107583818D01*
X99410812Y-107583851D01*
X99410816Y-107583865D01*
X99428387Y-107776935D01*
X99428387Y-107776935D01*
G37*
G36*
X101130000Y-90630000D02*
X98870000Y-90630000D01*
X98870000Y-87870000D01*
X101130000Y-87870000D01*
X101130000Y-90630000D01*
X101130000Y-90630000D01*
G37*
G36*
X101130000Y-127755000D02*
X99370000Y-127755000D01*
X99370000Y-126245000D01*
X101130000Y-126245000D01*
X101130000Y-127755000D01*
X101130000Y-127755000D01*
G37*
G36*
X101380000Y-133505000D02*
X99620000Y-133505000D01*
X99620000Y-131995000D01*
X101380000Y-131995000D01*
X101380000Y-133505000D01*
X101380000Y-133505000D01*
G37*
G36*
X101430000Y-56780000D02*
X99670000Y-56780000D01*
X99670000Y-55220000D01*
X101430000Y-55220000D01*
X101430000Y-56780000D01*
X101430000Y-56780000D01*
G37*
G36*
X101455676Y-37827854D02*
X101450185Y-38221100D01*
X101450108Y-38221438D01*
X101450108Y-38221446D01*
X101373911Y-38556834D01*
X101233874Y-38871361D01*
X101035414Y-39152696D01*
X100786083Y-39390130D01*
X100495393Y-39574607D01*
X100174400Y-39699112D01*
X99835341Y-39758898D01*
X99491126Y-39751688D01*
X99154860Y-39677755D01*
X98839368Y-39539920D01*
X98556654Y-39343428D01*
X98317487Y-39095763D01*
X98130984Y-38806368D01*
X98004241Y-38486253D01*
X97942089Y-38147613D01*
X97946897Y-37803357D01*
X98018478Y-37466592D01*
X98154110Y-37150139D01*
X98348623Y-36866061D01*
X98594612Y-36625170D01*
X98882701Y-36436650D01*
X99201922Y-36307676D01*
X99540112Y-36243163D01*
X99884398Y-36245567D01*
X100221659Y-36314797D01*
X100539046Y-36448214D01*
X100824477Y-36640739D01*
X101067078Y-36885041D01*
X101257606Y-37171807D01*
X101388804Y-37490118D01*
X101455610Y-37827511D01*
X101455609Y-37827520D01*
X101455676Y-37827854D01*
X101455676Y-37827854D01*
G37*
G36*
X101519141Y-51546108D02*
X101516152Y-51760135D01*
X101516076Y-51760468D01*
X101516076Y-51760481D01*
X101474641Y-51942861D01*
X101398424Y-52114046D01*
X101290411Y-52267164D01*
X101154709Y-52396391D01*
X100996500Y-52496793D01*
X100821796Y-52564558D01*
X100637262Y-52597095D01*
X100449920Y-52593172D01*
X100266901Y-52552932D01*
X100095198Y-52477917D01*
X99941321Y-52370970D01*
X99811155Y-52236178D01*
X99709650Y-52078674D01*
X99640669Y-51904448D01*
X99606842Y-51720138D01*
X99609459Y-51532775D01*
X99648417Y-51349489D01*
X99722235Y-51177258D01*
X99828106Y-51022639D01*
X99961980Y-50891538D01*
X100118778Y-50788933D01*
X100292517Y-50718738D01*
X100476578Y-50683626D01*
X100663960Y-50684935D01*
X100847518Y-50722614D01*
X101020257Y-50795227D01*
X101175606Y-50900010D01*
X101307645Y-51032975D01*
X101411341Y-51189049D01*
X101482746Y-51362291D01*
X101519075Y-51545765D01*
X101519074Y-51545774D01*
X101519141Y-51546108D01*
X101519141Y-51546108D01*
G37*
G36*
X102814560Y-34687723D02*
X102810181Y-35001316D01*
X102810105Y-35001649D01*
X102810105Y-35001662D01*
X102749358Y-35269046D01*
X102637685Y-35519865D01*
X102479424Y-35744215D01*
X102280595Y-35933557D01*
X102048785Y-36080668D01*
X101792810Y-36179954D01*
X101522428Y-36227630D01*
X101247935Y-36221881D01*
X100979780Y-36162923D01*
X100728190Y-36053005D01*
X100502741Y-35896314D01*
X100312017Y-35698814D01*
X100163291Y-35468037D01*
X100062220Y-35212762D01*
X100012657Y-34942713D01*
X100016491Y-34668187D01*
X100073573Y-34399635D01*
X100181733Y-34147280D01*
X100336847Y-33920742D01*
X100533010Y-33728644D01*
X100762746Y-33578309D01*
X101017309Y-33475459D01*
X101286997Y-33424013D01*
X101561548Y-33425931D01*
X101830496Y-33481138D01*
X102083595Y-33587531D01*
X102311215Y-33741062D01*
X102504673Y-33935875D01*
X102656612Y-34164561D01*
X102761233Y-34418393D01*
X102814494Y-34687379D01*
X102814493Y-34687388D01*
X102814560Y-34687723D01*
X102814560Y-34687723D01*
G37*
G36*
X103030430Y-97578820D02*
X100969570Y-97578820D01*
X100969570Y-94169220D01*
X103030430Y-94169220D01*
X103030430Y-97578820D01*
X103030430Y-97578820D01*
G37*
G36*
X103030430Y-101830780D02*
X100969570Y-101830780D01*
X100969570Y-98421180D01*
X103030430Y-98421180D01*
X103030430Y-101830780D01*
X103030430Y-101830780D01*
G37*
G36*
X104130000Y-56780000D02*
X102370000Y-56780000D01*
X102370000Y-55220000D01*
X104130000Y-55220000D01*
X104130000Y-56780000D01*
X104130000Y-56780000D01*
G37*
G36*
X104880000Y-129630000D02*
X102120000Y-129630000D01*
X102120000Y-127370000D01*
X104880000Y-127370000D01*
X104880000Y-129630000D01*
X104880000Y-129630000D01*
G37*
G36*
X104880000Y-133630000D02*
X102120000Y-133630000D01*
X102120000Y-131370000D01*
X104880000Y-131370000D01*
X104880000Y-133630000D01*
X104880000Y-133630000D01*
G37*
G36*
X105130000Y-90630000D02*
X102870000Y-90630000D01*
X102870000Y-87870000D01*
X105130000Y-87870000D01*
X105130000Y-90630000D01*
X105130000Y-90630000D01*
G37*
G36*
X105930044Y-161399003D02*
X105926823Y-161629718D01*
X105926747Y-161630051D01*
X105926747Y-161630064D01*
X105882075Y-161826691D01*
X105799916Y-162011223D01*
X105683481Y-162176280D01*
X105537198Y-162315583D01*
X105366653Y-162423813D01*
X105178328Y-162496861D01*
X104979405Y-162531936D01*
X104777456Y-162527706D01*
X104580168Y-162484329D01*
X104395072Y-162403463D01*
X104229205Y-162288182D01*
X104088886Y-162142878D01*
X103979467Y-161973093D01*
X103905108Y-161785283D01*
X103868643Y-161586602D01*
X103871464Y-161384630D01*
X103913460Y-161187053D01*
X103993035Y-161001391D01*
X104107155Y-160834724D01*
X104251475Y-160693394D01*
X104420495Y-160582791D01*
X104607781Y-160507123D01*
X104806193Y-160469273D01*
X105008185Y-160470684D01*
X105206055Y-160511301D01*
X105392263Y-160589575D01*
X105559727Y-160702531D01*
X105702056Y-160845857D01*
X105813841Y-161014106D01*
X105890811Y-161200852D01*
X105929979Y-161398660D01*
X105929978Y-161398673D01*
X105930044Y-161399003D01*
X105930044Y-161399003D01*
G37*
G36*
X107980010Y-98441510D02*
X105019990Y-98441510D01*
X105019990Y-94181010D01*
X107980010Y-94181010D01*
X107980010Y-98441510D01*
X107980010Y-98441510D01*
G37*
G36*
X107980010Y-106218990D02*
X105019990Y-106218990D01*
X105019990Y-101958490D01*
X107980010Y-101958490D01*
X107980010Y-106218990D01*
X107980010Y-106218990D01*
G37*
G36*
X108470044Y-161399003D02*
X108466823Y-161629718D01*
X108466747Y-161630051D01*
X108466747Y-161630064D01*
X108422075Y-161826691D01*
X108339916Y-162011223D01*
X108223481Y-162176280D01*
X108077198Y-162315583D01*
X107906653Y-162423813D01*
X107718328Y-162496861D01*
X107519405Y-162531936D01*
X107317456Y-162527706D01*
X107120168Y-162484329D01*
X106935072Y-162403463D01*
X106769205Y-162288182D01*
X106628886Y-162142878D01*
X106519467Y-161973093D01*
X106445108Y-161785283D01*
X106408643Y-161586602D01*
X106411464Y-161384630D01*
X106453460Y-161187053D01*
X106533035Y-161001391D01*
X106647155Y-160834724D01*
X106791475Y-160693394D01*
X106960495Y-160582791D01*
X107147781Y-160507123D01*
X107346193Y-160469273D01*
X107548185Y-160470684D01*
X107746055Y-160511301D01*
X107932263Y-160589575D01*
X108099727Y-160702531D01*
X108242056Y-160845857D01*
X108353841Y-161014106D01*
X108430811Y-161200852D01*
X108469979Y-161398660D01*
X108469978Y-161398673D01*
X108470044Y-161399003D01*
X108470044Y-161399003D01*
G37*
G36*
X112880000Y-80005000D02*
X111120000Y-80005000D01*
X111120000Y-78495000D01*
X112880000Y-78495000D01*
X112880000Y-80005000D01*
X112880000Y-80005000D01*
G37*
G36*
X112880000Y-83005000D02*
X111120000Y-83005000D01*
X111120000Y-81495000D01*
X112880000Y-81495000D01*
X112880000Y-83005000D01*
X112880000Y-83005000D01*
G37*
G36*
X114130000Y-90755000D02*
X112370000Y-90755000D01*
X112370000Y-89245000D01*
X114130000Y-89245000D01*
X114130000Y-90755000D01*
X114130000Y-90755000D01*
G37*
G36*
X114780000Y-93255000D02*
X113320000Y-93255000D01*
X113320000Y-92245000D01*
X114780000Y-92245000D01*
X114780000Y-93255000D01*
X114780000Y-93255000D01*
G37*
G36*
X114780000Y-95755000D02*
X113320000Y-95755000D01*
X113320000Y-94745000D01*
X114780000Y-94745000D01*
X114780000Y-95755000D01*
X114780000Y-95755000D01*
G37*
G36*
X115380000Y-80005000D02*
X113620000Y-80005000D01*
X113620000Y-78495000D01*
X115380000Y-78495000D01*
X115380000Y-80005000D01*
X115380000Y-80005000D01*
G37*
G36*
X115380000Y-83005000D02*
X113620000Y-83005000D01*
X113620000Y-81495000D01*
X115380000Y-81495000D01*
X115380000Y-83005000D01*
X115380000Y-83005000D01*
G37*
G36*
X115630000Y-98505000D02*
X113870000Y-98505000D01*
X113870000Y-96995000D01*
X115630000Y-96995000D01*
X115630000Y-98505000D01*
X115630000Y-98505000D01*
G37*
G36*
X116630000Y-90755000D02*
X114870000Y-90755000D01*
X114870000Y-89245000D01*
X116630000Y-89245000D01*
X116630000Y-90755000D01*
X116630000Y-90755000D01*
G37*
G36*
X116680000Y-93255000D02*
X115220000Y-93255000D01*
X115220000Y-92245000D01*
X116680000Y-92245000D01*
X116680000Y-93255000D01*
X116680000Y-93255000D01*
G37*
G36*
X116680000Y-95755000D02*
X115220000Y-95755000D01*
X115220000Y-94745000D01*
X116680000Y-94745000D01*
X116680000Y-95755000D01*
X116680000Y-95755000D01*
G37*
G36*
X118130000Y-98505000D02*
X116370000Y-98505000D01*
X116370000Y-96995000D01*
X118130000Y-96995000D01*
X118130000Y-98505000D01*
X118130000Y-98505000D01*
G37*
G36*
X119380074Y-31880365D02*
X119374663Y-32267876D01*
X119374587Y-32268209D01*
X119374587Y-32268222D01*
X119299502Y-32598714D01*
X119161507Y-32908655D01*
X118965941Y-33185888D01*
X118720246Y-33419859D01*
X118433794Y-33601647D01*
X118117482Y-33724336D01*
X117783368Y-33783250D01*
X117444172Y-33776145D01*
X117112809Y-33703290D01*
X116801918Y-33567465D01*
X116523326Y-33373838D01*
X116287647Y-33129785D01*
X116103863Y-32844609D01*
X115978969Y-32529163D01*
X115917723Y-32195460D01*
X115922461Y-31856224D01*
X115992998Y-31524370D01*
X116126652Y-31212532D01*
X116318329Y-30932596D01*
X116560730Y-30695218D01*
X116844619Y-30509447D01*
X117159185Y-30382354D01*
X117492443Y-30318781D01*
X117831709Y-30321150D01*
X118164052Y-30389371D01*
X118476811Y-30520842D01*
X118758080Y-30710560D01*
X118997144Y-30951299D01*
X119184895Y-31233886D01*
X119314177Y-31547551D01*
X119380009Y-31880021D01*
X119380008Y-31880035D01*
X119380074Y-31880365D01*
X119380074Y-31880365D01*
G37*
G36*
X119812038Y-35912535D02*
X119809248Y-36112338D01*
X119809172Y-36112671D01*
X119809172Y-36112684D01*
X119770496Y-36282920D01*
X119699343Y-36442731D01*
X119598512Y-36585670D01*
X119471825Y-36706311D01*
X119324131Y-36800040D01*
X119161037Y-36863301D01*
X118988767Y-36893676D01*
X118813875Y-36890013D01*
X118643020Y-36852448D01*
X118482726Y-36782417D01*
X118339076Y-36682578D01*
X118217562Y-36556746D01*
X118122800Y-36409706D01*
X118058404Y-36247061D01*
X118026825Y-36074999D01*
X118029268Y-35900087D01*
X118065637Y-35728982D01*
X118134551Y-35568195D01*
X118233381Y-35423858D01*
X118358365Y-35301463D01*
X118504739Y-35205679D01*
X118666932Y-35140149D01*
X118838761Y-35107371D01*
X119013690Y-35108592D01*
X119185050Y-35143768D01*
X119346309Y-35211555D01*
X119491334Y-35309375D01*
X119614598Y-35433503D01*
X119711404Y-35579207D01*
X119778061Y-35740932D01*
X119778061Y-35740936D01*
X119811972Y-35912191D01*
X119811971Y-35912200D01*
X119812038Y-35912535D01*
X119812038Y-35912535D01*
G37*
G36*
X120980000Y-54305000D02*
X119520000Y-54305000D01*
X119520000Y-53295000D01*
X120980000Y-53295000D01*
X120980000Y-54305000D01*
X120980000Y-54305000D01*
G37*
G36*
X122005000Y-75030000D02*
X120995000Y-75030000D01*
X120995000Y-73570000D01*
X122005000Y-73570000D01*
X122005000Y-75030000D01*
X122005000Y-75030000D01*
G37*
G36*
X122005000Y-76930000D02*
X120995000Y-76930000D01*
X120995000Y-75470000D01*
X122005000Y-75470000D01*
X122005000Y-76930000D01*
X122005000Y-76930000D01*
G37*
G36*
X122352038Y-35912535D02*
X122349248Y-36112338D01*
X122349172Y-36112671D01*
X122349172Y-36112684D01*
X122310496Y-36282920D01*
X122239343Y-36442731D01*
X122138512Y-36585670D01*
X122011825Y-36706311D01*
X121864131Y-36800040D01*
X121701037Y-36863301D01*
X121528767Y-36893676D01*
X121353875Y-36890013D01*
X121183020Y-36852448D01*
X121022726Y-36782417D01*
X120879076Y-36682578D01*
X120757562Y-36556746D01*
X120662800Y-36409706D01*
X120598404Y-36247061D01*
X120566825Y-36074999D01*
X120569268Y-35900087D01*
X120605637Y-35728982D01*
X120674551Y-35568195D01*
X120773381Y-35423858D01*
X120898365Y-35301463D01*
X121044739Y-35205679D01*
X121206932Y-35140149D01*
X121378761Y-35107371D01*
X121553690Y-35108592D01*
X121725050Y-35143768D01*
X121886309Y-35211555D01*
X122031334Y-35309375D01*
X122154598Y-35433503D01*
X122251404Y-35579207D01*
X122318061Y-35740932D01*
X122318061Y-35740936D01*
X122351972Y-35912191D01*
X122351971Y-35912200D01*
X122352038Y-35912535D01*
X122352038Y-35912535D01*
G37*
G36*
X122580000Y-38905000D02*
X121120000Y-38905000D01*
X121120000Y-37895000D01*
X122580000Y-37895000D01*
X122580000Y-38905000D01*
X122580000Y-38905000D01*
G37*
G36*
X122880000Y-54305000D02*
X121420000Y-54305000D01*
X121420000Y-53295000D01*
X122880000Y-53295000D01*
X122880000Y-54305000D01*
X122880000Y-54305000D01*
G37*
G36*
X124480000Y-38905000D02*
X123020000Y-38905000D01*
X123020000Y-37895000D01*
X124480000Y-37895000D01*
X124480000Y-38905000D01*
X124480000Y-38905000D01*
G37*
G36*
X124892038Y-35912535D02*
X124889248Y-36112338D01*
X124889172Y-36112671D01*
X124889172Y-36112684D01*
X124850496Y-36282920D01*
X124779343Y-36442731D01*
X124678512Y-36585670D01*
X124551825Y-36706311D01*
X124404131Y-36800040D01*
X124241037Y-36863301D01*
X124068767Y-36893676D01*
X123893875Y-36890013D01*
X123723020Y-36852448D01*
X123562726Y-36782417D01*
X123419076Y-36682578D01*
X123297562Y-36556746D01*
X123202800Y-36409706D01*
X123138404Y-36247061D01*
X123106825Y-36074999D01*
X123109268Y-35900087D01*
X123145637Y-35728982D01*
X123214551Y-35568195D01*
X123313381Y-35423858D01*
X123438365Y-35301463D01*
X123584739Y-35205679D01*
X123746932Y-35140149D01*
X123918761Y-35107371D01*
X124093690Y-35108592D01*
X124265050Y-35143768D01*
X124426309Y-35211555D01*
X124571334Y-35309375D01*
X124694598Y-35433503D01*
X124791404Y-35579207D01*
X124858061Y-35740932D01*
X124858061Y-35740936D01*
X124891972Y-35912191D01*
X124891971Y-35912200D01*
X124892038Y-35912535D01*
X124892038Y-35912535D01*
G37*
G36*
X125005000Y-74380000D02*
X123495000Y-74380000D01*
X123495000Y-72620000D01*
X125005000Y-72620000D01*
X125005000Y-74380000D01*
X125005000Y-74380000D01*
G37*
G36*
X125005000Y-76880000D02*
X123495000Y-76880000D01*
X123495000Y-75120000D01*
X125005000Y-75120000D01*
X125005000Y-76880000D01*
X125005000Y-76880000D01*
G37*
G36*
X125380000Y-53705000D02*
X123920000Y-53705000D01*
X123920000Y-52695000D01*
X125380000Y-52695000D01*
X125380000Y-53705000D01*
X125380000Y-53705000D01*
G37*
G36*
X127000074Y-31880365D02*
X126994663Y-32267876D01*
X126994587Y-32268209D01*
X126994587Y-32268222D01*
X126919502Y-32598714D01*
X126781507Y-32908655D01*
X126585941Y-33185888D01*
X126340246Y-33419859D01*
X126053794Y-33601647D01*
X125737482Y-33724336D01*
X125403368Y-33783250D01*
X125064172Y-33776145D01*
X124732809Y-33703290D01*
X124421918Y-33567465D01*
X124143326Y-33373838D01*
X123907647Y-33129785D01*
X123723863Y-32844609D01*
X123598969Y-32529163D01*
X123537723Y-32195460D01*
X123542461Y-31856224D01*
X123612998Y-31524370D01*
X123746652Y-31212532D01*
X123938329Y-30932596D01*
X124180730Y-30695218D01*
X124464619Y-30509447D01*
X124779185Y-30382354D01*
X125112443Y-30318781D01*
X125451709Y-30321150D01*
X125784052Y-30389371D01*
X126096811Y-30520842D01*
X126378080Y-30710560D01*
X126617144Y-30951299D01*
X126804895Y-31233886D01*
X126934177Y-31547551D01*
X127000009Y-31880021D01*
X127000008Y-31880035D01*
X127000074Y-31880365D01*
X127000074Y-31880365D01*
G37*
G36*
X127280000Y-53705000D02*
X125820000Y-53705000D01*
X125820000Y-52695000D01*
X127280000Y-52695000D01*
X127280000Y-53705000D01*
X127280000Y-53705000D01*
G37*
G36*
X131755000Y-72130000D02*
X130245000Y-72130000D01*
X130245000Y-70370000D01*
X131755000Y-70370000D01*
X131755000Y-72130000D01*
X131755000Y-72130000D01*
G37*
G36*
X131755000Y-74630000D02*
X130245000Y-74630000D01*
X130245000Y-72870000D01*
X131755000Y-72870000D01*
X131755000Y-74630000D01*
X131755000Y-74630000D01*
G37*
G36*
X134505000Y-72530000D02*
X133495000Y-72530000D01*
X133495000Y-71070000D01*
X134505000Y-71070000D01*
X134505000Y-72530000D01*
X134505000Y-72530000D01*
G37*
G36*
X134505000Y-74430000D02*
X133495000Y-74430000D01*
X133495000Y-72970000D01*
X134505000Y-72970000D01*
X134505000Y-74430000D01*
X134505000Y-74430000D01*
G37*
G36*
X135005000Y-100130000D02*
X133495000Y-100130000D01*
X133495000Y-98370000D01*
X135005000Y-98370000D01*
X135005000Y-100130000D01*
X135005000Y-100130000D01*
G37*
G36*
X135005000Y-102630000D02*
X133495000Y-102630000D01*
X133495000Y-100870000D01*
X135005000Y-100870000D01*
X135005000Y-102630000D01*
X135005000Y-102630000D01*
G37*
G36*
X137755000Y-100130000D02*
X136245000Y-100130000D01*
X136245000Y-98370000D01*
X137755000Y-98370000D01*
X137755000Y-100130000D01*
X137755000Y-100130000D01*
G37*
G36*
X137755000Y-102630000D02*
X136245000Y-102630000D01*
X136245000Y-100870000D01*
X137755000Y-100870000D01*
X137755000Y-102630000D01*
X137755000Y-102630000D01*
G37*
G36*
X138578820Y-134280430D02*
X135169220Y-134280430D01*
X135169220Y-132219570D01*
X138578820Y-132219570D01*
X138578820Y-134280430D01*
X138578820Y-134280430D01*
G37*
G36*
X139930044Y-161399003D02*
X139926823Y-161629718D01*
X139926747Y-161630051D01*
X139926747Y-161630064D01*
X139882075Y-161826691D01*
X139799916Y-162011223D01*
X139683481Y-162176280D01*
X139537198Y-162315583D01*
X139366653Y-162423813D01*
X139178328Y-162496861D01*
X138979405Y-162531936D01*
X138777456Y-162527706D01*
X138580168Y-162484329D01*
X138395072Y-162403463D01*
X138229205Y-162288182D01*
X138088886Y-162142878D01*
X137979467Y-161973093D01*
X137905108Y-161785283D01*
X137868643Y-161586602D01*
X137871464Y-161384630D01*
X137913460Y-161187053D01*
X137993035Y-161001391D01*
X138107155Y-160834724D01*
X138251475Y-160693394D01*
X138420495Y-160582791D01*
X138607781Y-160507123D01*
X138806193Y-160469273D01*
X139008185Y-160470684D01*
X139206055Y-160511301D01*
X139392263Y-160589575D01*
X139559727Y-160702531D01*
X139702056Y-160845857D01*
X139813841Y-161014106D01*
X139890811Y-161200852D01*
X139929979Y-161398660D01*
X139929978Y-161398673D01*
X139930044Y-161399003D01*
X139930044Y-161399003D01*
G37*
G36*
X141280000Y-69130000D02*
X139720000Y-69130000D01*
X139720000Y-67370000D01*
X141280000Y-67370000D01*
X141280000Y-69130000D01*
X141280000Y-69130000D01*
G37*
G36*
X141280000Y-71830000D02*
X139720000Y-71830000D01*
X139720000Y-70070000D01*
X141280000Y-70070000D01*
X141280000Y-71830000D01*
X141280000Y-71830000D01*
G37*
G36*
X141630000Y-85005000D02*
X139870000Y-85005000D01*
X139870000Y-83495000D01*
X141630000Y-83495000D01*
X141630000Y-85005000D01*
X141630000Y-85005000D01*
G37*
G36*
X141630000Y-89005000D02*
X139870000Y-89005000D01*
X139870000Y-87495000D01*
X141630000Y-87495000D01*
X141630000Y-89005000D01*
X141630000Y-89005000D01*
G37*
G36*
X142470044Y-161399003D02*
X142466823Y-161629718D01*
X142466747Y-161630051D01*
X142466747Y-161630064D01*
X142422075Y-161826691D01*
X142339916Y-162011223D01*
X142223481Y-162176280D01*
X142077198Y-162315583D01*
X141906653Y-162423813D01*
X141718328Y-162496861D01*
X141519405Y-162531936D01*
X141317456Y-162527706D01*
X141120168Y-162484329D01*
X140935072Y-162403463D01*
X140769205Y-162288182D01*
X140628886Y-162142878D01*
X140519467Y-161973093D01*
X140445108Y-161785283D01*
X140408643Y-161586602D01*
X140411464Y-161384630D01*
X140453460Y-161187053D01*
X140533035Y-161001391D01*
X140647155Y-160834724D01*
X140791475Y-160693394D01*
X140960495Y-160582791D01*
X141147781Y-160507123D01*
X141346193Y-160469273D01*
X141548185Y-160470684D01*
X141746055Y-160511301D01*
X141932263Y-160589575D01*
X142099727Y-160702531D01*
X142242056Y-160845857D01*
X142353841Y-161014106D01*
X142430811Y-161200852D01*
X142469979Y-161398660D01*
X142469978Y-161398673D01*
X142470044Y-161399003D01*
X142470044Y-161399003D01*
G37*
G36*
X142830780Y-134280430D02*
X139421180Y-134280430D01*
X139421180Y-132219570D01*
X142830780Y-132219570D01*
X142830780Y-134280430D01*
X142830780Y-134280430D01*
G37*
G36*
X143592038Y-42112535D02*
X143589248Y-42312338D01*
X143589172Y-42312671D01*
X143589172Y-42312684D01*
X143550496Y-42482920D01*
X143479343Y-42642731D01*
X143378512Y-42785670D01*
X143251825Y-42906311D01*
X143104131Y-43000040D01*
X142941037Y-43063301D01*
X142768767Y-43093676D01*
X142593875Y-43090013D01*
X142423020Y-43052448D01*
X142262726Y-42982417D01*
X142119076Y-42882578D01*
X141997562Y-42756746D01*
X141902800Y-42609706D01*
X141838404Y-42447061D01*
X141806825Y-42274999D01*
X141809268Y-42100087D01*
X141845637Y-41928982D01*
X141914551Y-41768195D01*
X142013381Y-41623858D01*
X142138365Y-41501463D01*
X142284739Y-41405679D01*
X142446932Y-41340149D01*
X142618761Y-41307371D01*
X142793690Y-41308592D01*
X142965050Y-41343768D01*
X143126309Y-41411555D01*
X143271334Y-41509375D01*
X143394598Y-41633503D01*
X143491404Y-41779207D01*
X143558061Y-41940932D01*
X143558061Y-41940936D01*
X143591972Y-42112191D01*
X143591971Y-42112200D01*
X143592038Y-42112535D01*
X143592038Y-42112535D01*
G37*
G36*
X143592038Y-47192535D02*
X143589248Y-47392338D01*
X143589172Y-47392671D01*
X143589172Y-47392684D01*
X143550496Y-47562920D01*
X143479343Y-47722731D01*
X143378512Y-47865670D01*
X143251825Y-47986311D01*
X143104131Y-48080040D01*
X142941037Y-48143301D01*
X142768767Y-48173676D01*
X142593875Y-48170013D01*
X142423020Y-48132448D01*
X142262726Y-48062417D01*
X142119076Y-47962578D01*
X141997562Y-47836746D01*
X141902800Y-47689706D01*
X141838404Y-47527061D01*
X141806825Y-47354999D01*
X141809268Y-47180087D01*
X141845637Y-47008982D01*
X141914551Y-46848195D01*
X142013381Y-46703858D01*
X142138365Y-46581463D01*
X142284739Y-46485679D01*
X142446932Y-46420149D01*
X142618761Y-46387371D01*
X142793690Y-46388592D01*
X142965050Y-46423768D01*
X143126309Y-46491555D01*
X143271334Y-46589375D01*
X143394598Y-46713503D01*
X143491404Y-46859207D01*
X143558061Y-47020932D01*
X143558061Y-47020936D01*
X143591972Y-47192191D01*
X143591971Y-47192200D01*
X143592038Y-47192535D01*
X143592038Y-47192535D01*
G37*
G36*
X144130000Y-85005000D02*
X142370000Y-85005000D01*
X142370000Y-83495000D01*
X144130000Y-83495000D01*
X144130000Y-85005000D01*
X144130000Y-85005000D01*
G37*
G36*
X144130000Y-89005000D02*
X142370000Y-89005000D01*
X142370000Y-87495000D01*
X144130000Y-87495000D01*
X144130000Y-89005000D01*
X144130000Y-89005000D01*
G37*
G36*
X144630000Y-127880000D02*
X142370000Y-127880000D01*
X142370000Y-125120000D01*
X144630000Y-125120000D01*
X144630000Y-127880000D01*
X144630000Y-127880000D01*
G37*
G36*
X144680081Y-33815656D02*
X144674201Y-34236767D01*
X144674124Y-34237105D01*
X144674124Y-34237112D01*
X144592520Y-34596291D01*
X144592519Y-34596292D01*
X144442562Y-34933104D01*
X144230039Y-35234374D01*
X144230037Y-35234375D01*
X143963044Y-35488629D01*
X143963042Y-35488632D01*
X143651753Y-35686182D01*
X143308015Y-35819510D01*
X142944932Y-35883530D01*
X142944930Y-35883529D01*
X142576326Y-35875810D01*
X142216237Y-35796638D01*
X142216233Y-35796638D01*
X141878385Y-35649036D01*
X141575638Y-35438621D01*
X141319524Y-35173407D01*
X141119806Y-34863505D01*
X140984083Y-34520708D01*
X140917527Y-34158073D01*
X140922675Y-33789423D01*
X140999328Y-33428796D01*
X141144571Y-33089920D01*
X141352867Y-32785712D01*
X141616285Y-32527752D01*
X141924788Y-32325874D01*
X142266629Y-32187761D01*
X142628783Y-32118677D01*
X142997464Y-32121251D01*
X143358623Y-32195386D01*
X143698499Y-32338257D01*
X144004156Y-32544424D01*
X144263945Y-32806035D01*
X144263947Y-32806037D01*
X144467977Y-33113125D01*
X144608469Y-33453987D01*
X144608469Y-33453991D01*
X144680014Y-33815313D01*
X144680013Y-33815317D01*
X144680081Y-33815656D01*
X144680081Y-33815656D01*
G37*
G36*
X147130000Y-121255000D02*
X145370000Y-121255000D01*
X145370000Y-119745000D01*
X147130000Y-119745000D01*
X147130000Y-121255000D01*
X147130000Y-121255000D01*
G37*
G36*
X148630000Y-127880000D02*
X146370000Y-127880000D01*
X146370000Y-125120000D01*
X148630000Y-125120000D01*
X148630000Y-127880000D01*
X148630000Y-127880000D01*
G37*
G36*
X149130000Y-134505000D02*
X147370000Y-134505000D01*
X147370000Y-132995000D01*
X149130000Y-132995000D01*
X149130000Y-134505000D01*
X149130000Y-134505000D01*
G37*
G36*
X149180059Y-33864684D02*
X149175743Y-34173797D01*
X149175666Y-34174135D01*
X149175666Y-34174143D01*
X149115788Y-34437702D01*
X149005711Y-34684938D01*
X148849711Y-34906083D01*
X148653722Y-35092721D01*
X148425224Y-35237730D01*
X148172905Y-35335599D01*
X147906387Y-35382592D01*
X147635814Y-35376925D01*
X147371489Y-35318809D01*
X147123495Y-35210463D01*
X146901266Y-35056010D01*
X146713267Y-34861331D01*
X146566666Y-34633851D01*
X146467039Y-34382223D01*
X146418183Y-34116031D01*
X146421963Y-33845427D01*
X146478229Y-33580712D01*
X146584844Y-33331962D01*
X146737742Y-33108660D01*
X146931103Y-32919306D01*
X147157557Y-32771119D01*
X147408483Y-32669739D01*
X147674318Y-32619028D01*
X147944947Y-32620918D01*
X148210054Y-32675336D01*
X148459536Y-32780209D01*
X148683902Y-32931545D01*
X148874600Y-33123580D01*
X149024366Y-33348994D01*
X149127495Y-33599204D01*
X149179993Y-33864340D01*
X149179992Y-33864349D01*
X149180059Y-33864684D01*
X149180059Y-33864684D01*
G37*
G36*
X149630000Y-121255000D02*
X147870000Y-121255000D01*
X147870000Y-119745000D01*
X149630000Y-119745000D01*
X149630000Y-121255000D01*
X149630000Y-121255000D01*
G37*
G36*
X149680081Y-29315656D02*
X149674201Y-29736767D01*
X149674124Y-29737105D01*
X149674124Y-29737112D01*
X149592520Y-30096291D01*
X149592519Y-30096292D01*
X149442562Y-30433104D01*
X149230039Y-30734374D01*
X149230037Y-30734375D01*
X148963044Y-30988629D01*
X148963042Y-30988632D01*
X148651753Y-31186182D01*
X148308015Y-31319510D01*
X147944932Y-31383530D01*
X147944930Y-31383529D01*
X147576326Y-31375810D01*
X147216237Y-31296638D01*
X147216233Y-31296638D01*
X146878385Y-31149036D01*
X146575638Y-30938621D01*
X146319524Y-30673407D01*
X146119806Y-30363505D01*
X145984083Y-30020708D01*
X145917527Y-29658073D01*
X145922675Y-29289423D01*
X145999328Y-28928796D01*
X146144571Y-28589920D01*
X146352867Y-28285712D01*
X146616285Y-28027752D01*
X146924788Y-27825874D01*
X147266629Y-27687761D01*
X147628783Y-27618677D01*
X147997464Y-27621251D01*
X148358623Y-27695386D01*
X148698499Y-27838257D01*
X149004156Y-28044424D01*
X149263945Y-28306035D01*
X149263947Y-28306037D01*
X149467977Y-28613125D01*
X149608469Y-28953987D01*
X149608469Y-28953991D01*
X149680014Y-29315313D01*
X149680013Y-29315317D01*
X149680081Y-29315656D01*
X149680081Y-29315656D01*
G37*
G36*
X150530044Y-161399003D02*
X150526823Y-161629718D01*
X150526747Y-161630051D01*
X150526747Y-161630064D01*
X150482075Y-161826691D01*
X150399916Y-162011223D01*
X150283481Y-162176280D01*
X150137198Y-162315583D01*
X149966653Y-162423813D01*
X149778328Y-162496861D01*
X149579405Y-162531936D01*
X149377456Y-162527706D01*
X149180168Y-162484329D01*
X148995072Y-162403463D01*
X148829205Y-162288182D01*
X148688886Y-162142878D01*
X148579467Y-161973093D01*
X148505108Y-161785283D01*
X148468643Y-161586602D01*
X148471464Y-161384630D01*
X148513460Y-161187053D01*
X148593035Y-161001391D01*
X148707155Y-160834724D01*
X148851475Y-160693394D01*
X149020495Y-160582791D01*
X149207781Y-160507123D01*
X149406193Y-160469273D01*
X149608185Y-160470684D01*
X149806055Y-160511301D01*
X149992263Y-160589575D01*
X150159727Y-160702531D01*
X150302056Y-160845857D01*
X150413841Y-161014106D01*
X150490811Y-161200852D01*
X150529979Y-161398660D01*
X150529978Y-161398673D01*
X150530044Y-161399003D01*
X150530044Y-161399003D01*
G37*
G36*
X151630000Y-134505000D02*
X149870000Y-134505000D01*
X149870000Y-132995000D01*
X151630000Y-132995000D01*
X151630000Y-134505000D01*
X151630000Y-134505000D01*
G37*
G36*
X153070044Y-161399003D02*
X153066823Y-161629718D01*
X153066747Y-161630051D01*
X153066747Y-161630064D01*
X153022075Y-161826691D01*
X152939916Y-162011223D01*
X152823481Y-162176280D01*
X152677198Y-162315583D01*
X152506653Y-162423813D01*
X152318328Y-162496861D01*
X152119405Y-162531936D01*
X151917456Y-162527706D01*
X151720168Y-162484329D01*
X151535072Y-162403463D01*
X151369205Y-162288182D01*
X151228886Y-162142878D01*
X151119467Y-161973093D01*
X151045108Y-161785283D01*
X151008643Y-161586602D01*
X151011464Y-161384630D01*
X151053460Y-161187053D01*
X151133035Y-161001391D01*
X151247155Y-160834724D01*
X151391475Y-160693394D01*
X151560495Y-160582791D01*
X151747781Y-160507123D01*
X151946193Y-160469273D01*
X152148185Y-160470684D01*
X152346055Y-160511301D01*
X152532263Y-160589575D01*
X152699727Y-160702531D01*
X152842056Y-160845857D01*
X152953841Y-161014106D01*
X153030811Y-161200852D01*
X153069979Y-161398660D01*
X153069978Y-161398673D01*
X153070044Y-161399003D01*
X153070044Y-161399003D01*
G37*
G36*
X153752038Y-42112535D02*
X153749248Y-42312338D01*
X153749172Y-42312671D01*
X153749172Y-42312684D01*
X153710496Y-42482920D01*
X153639343Y-42642731D01*
X153538512Y-42785670D01*
X153411825Y-42906311D01*
X153264131Y-43000040D01*
X153101037Y-43063301D01*
X152928767Y-43093676D01*
X152753875Y-43090013D01*
X152583020Y-43052448D01*
X152422726Y-42982417D01*
X152279076Y-42882578D01*
X152157562Y-42756746D01*
X152062800Y-42609706D01*
X151998404Y-42447061D01*
X151966825Y-42274999D01*
X151969268Y-42100087D01*
X152005637Y-41928982D01*
X152074551Y-41768195D01*
X152173381Y-41623858D01*
X152298365Y-41501463D01*
X152444739Y-41405679D01*
X152606932Y-41340149D01*
X152778761Y-41307371D01*
X152953690Y-41308592D01*
X153125050Y-41343768D01*
X153286309Y-41411555D01*
X153431334Y-41509375D01*
X153554598Y-41633503D01*
X153651404Y-41779207D01*
X153718061Y-41940932D01*
X153718061Y-41940936D01*
X153751972Y-42112191D01*
X153751971Y-42112200D01*
X153752038Y-42112535D01*
X153752038Y-42112535D01*
G37*
G36*
X153752038Y-47192535D02*
X153749248Y-47392338D01*
X153749172Y-47392671D01*
X153749172Y-47392684D01*
X153710496Y-47562920D01*
X153639343Y-47722731D01*
X153538512Y-47865670D01*
X153411825Y-47986311D01*
X153264131Y-48080040D01*
X153101037Y-48143301D01*
X152928767Y-48173676D01*
X152753875Y-48170013D01*
X152583020Y-48132448D01*
X152422726Y-48062417D01*
X152279076Y-47962578D01*
X152157562Y-47836746D01*
X152062800Y-47689706D01*
X151998404Y-47527061D01*
X151966825Y-47354999D01*
X151969268Y-47180087D01*
X152005637Y-47008982D01*
X152074551Y-46848195D01*
X152173381Y-46703858D01*
X152298365Y-46581463D01*
X152444739Y-46485679D01*
X152606932Y-46420149D01*
X152778761Y-46387371D01*
X152953690Y-46388592D01*
X153125050Y-46423768D01*
X153286309Y-46491555D01*
X153431334Y-46589375D01*
X153554598Y-46713503D01*
X153651404Y-46859207D01*
X153718061Y-47020932D01*
X153718061Y-47020936D01*
X153751972Y-47192191D01*
X153751971Y-47192200D01*
X153752038Y-47192535D01*
X153752038Y-47192535D01*
G37*
G36*
X154680081Y-33815656D02*
X154674201Y-34236767D01*
X154674124Y-34237105D01*
X154674124Y-34237112D01*
X154592520Y-34596291D01*
X154592519Y-34596292D01*
X154442562Y-34933104D01*
X154230039Y-35234374D01*
X154230037Y-35234375D01*
X153963044Y-35488629D01*
X153963042Y-35488632D01*
X153651753Y-35686182D01*
X153308015Y-35819510D01*
X152944932Y-35883530D01*
X152944930Y-35883529D01*
X152576326Y-35875810D01*
X152216237Y-35796638D01*
X152216233Y-35796638D01*
X151878385Y-35649036D01*
X151575638Y-35438621D01*
X151319524Y-35173407D01*
X151119806Y-34863505D01*
X150984083Y-34520708D01*
X150917527Y-34158073D01*
X150922675Y-33789423D01*
X150999328Y-33428796D01*
X151144571Y-33089920D01*
X151352867Y-32785712D01*
X151616285Y-32527752D01*
X151924788Y-32325874D01*
X152266629Y-32187761D01*
X152628783Y-32118677D01*
X152997464Y-32121251D01*
X153358623Y-32195386D01*
X153698499Y-32338257D01*
X154004156Y-32544424D01*
X154263945Y-32806035D01*
X154263947Y-32806037D01*
X154467977Y-33113125D01*
X154608469Y-33453987D01*
X154608469Y-33453991D01*
X154680014Y-33815313D01*
X154680013Y-33815317D01*
X154680081Y-33815656D01*
X154680081Y-33815656D01*
G37*
G36*
X159880038Y-86663712D02*
X159877285Y-86860827D01*
X159877209Y-86861160D01*
X159877209Y-86861173D01*
X159839055Y-87029114D01*
X159768860Y-87186773D01*
X159669382Y-87327793D01*
X159544402Y-87446809D01*
X159398694Y-87539277D01*
X159237795Y-87601686D01*
X159067841Y-87631654D01*
X158895302Y-87628040D01*
X158726745Y-87590980D01*
X158568605Y-87521891D01*
X158426894Y-87423399D01*
X158307009Y-87299255D01*
X158213525Y-87154196D01*
X158149995Y-86993737D01*
X158118841Y-86823990D01*
X158121251Y-86651430D01*
X158157130Y-86482629D01*
X158225117Y-86324004D01*
X158322617Y-86181609D01*
X158445921Y-86060861D01*
X158590326Y-85966365D01*
X158750337Y-85901716D01*
X158919854Y-85869379D01*
X159092430Y-85870584D01*
X159261484Y-85905286D01*
X159420574Y-85972161D01*
X159563648Y-86068665D01*
X159685254Y-86191124D01*
X159780758Y-86334868D01*
X159846518Y-86494417D01*
X159879972Y-86663368D01*
X159879971Y-86663377D01*
X159880038Y-86663712D01*
X159880038Y-86663712D01*
G37*
G36*
X159880038Y-88663712D02*
X159877285Y-88860827D01*
X159877209Y-88861160D01*
X159877209Y-88861173D01*
X159839055Y-89029114D01*
X159768860Y-89186773D01*
X159669382Y-89327793D01*
X159544402Y-89446809D01*
X159398694Y-89539277D01*
X159237795Y-89601686D01*
X159067841Y-89631654D01*
X158895302Y-89628040D01*
X158726745Y-89590980D01*
X158568605Y-89521891D01*
X158426894Y-89423399D01*
X158307009Y-89299255D01*
X158213525Y-89154196D01*
X158149995Y-88993737D01*
X158118841Y-88823990D01*
X158121251Y-88651430D01*
X158157130Y-88482629D01*
X158225117Y-88324004D01*
X158322617Y-88181609D01*
X158445921Y-88060861D01*
X158590326Y-87966365D01*
X158750337Y-87901716D01*
X158919854Y-87869379D01*
X159092430Y-87870584D01*
X159261484Y-87905286D01*
X159420574Y-87972161D01*
X159563648Y-88068665D01*
X159685254Y-88191124D01*
X159780758Y-88334868D01*
X159846518Y-88494417D01*
X159879972Y-88663368D01*
X159879971Y-88663377D01*
X159880038Y-88663712D01*
X159880038Y-88663712D01*
G37*
G36*
X159880038Y-90663712D02*
X159877285Y-90860827D01*
X159877209Y-90861160D01*
X159877209Y-90861173D01*
X159839055Y-91029114D01*
X159768860Y-91186773D01*
X159669382Y-91327793D01*
X159544402Y-91446809D01*
X159398694Y-91539277D01*
X159237795Y-91601686D01*
X159067841Y-91631654D01*
X158895302Y-91628040D01*
X158726745Y-91590980D01*
X158568605Y-91521891D01*
X158426894Y-91423399D01*
X158307009Y-91299255D01*
X158213525Y-91154196D01*
X158149995Y-90993737D01*
X158118841Y-90823990D01*
X158121251Y-90651430D01*
X158157130Y-90482629D01*
X158225117Y-90324004D01*
X158322617Y-90181609D01*
X158445921Y-90060861D01*
X158590326Y-89966365D01*
X158750337Y-89901716D01*
X158919854Y-89869379D01*
X159092430Y-89870584D01*
X159261484Y-89905286D01*
X159420574Y-89972161D01*
X159563648Y-90068665D01*
X159685254Y-90191124D01*
X159780758Y-90334868D01*
X159846518Y-90494417D01*
X159879972Y-90663368D01*
X159879971Y-90663377D01*
X159880038Y-90663712D01*
X159880038Y-90663712D01*
G37*
G36*
X159880038Y-92663712D02*
X159877285Y-92860827D01*
X159877209Y-92861160D01*
X159877209Y-92861173D01*
X159839055Y-93029114D01*
X159768860Y-93186773D01*
X159669382Y-93327793D01*
X159544402Y-93446809D01*
X159398694Y-93539277D01*
X159237795Y-93601686D01*
X159067841Y-93631654D01*
X158895302Y-93628040D01*
X158726745Y-93590980D01*
X158568605Y-93521891D01*
X158426894Y-93423399D01*
X158307009Y-93299255D01*
X158213525Y-93154196D01*
X158149995Y-92993737D01*
X158118841Y-92823990D01*
X158121251Y-92651430D01*
X158157130Y-92482629D01*
X158225117Y-92324004D01*
X158322617Y-92181609D01*
X158445921Y-92060861D01*
X158590326Y-91966365D01*
X158750337Y-91901716D01*
X158919854Y-91869379D01*
X159092430Y-91870584D01*
X159261484Y-91905286D01*
X159420574Y-91972161D01*
X159563648Y-92068665D01*
X159685254Y-92191124D01*
X159780758Y-92334868D01*
X159846518Y-92494417D01*
X159879972Y-92663368D01*
X159879971Y-92663377D01*
X159880038Y-92663712D01*
X159880038Y-92663712D01*
G37*
G36*
X159880038Y-94663712D02*
X159877285Y-94860827D01*
X159877209Y-94861160D01*
X159877209Y-94861173D01*
X159839055Y-95029114D01*
X159768860Y-95186773D01*
X159669382Y-95327793D01*
X159544402Y-95446809D01*
X159398694Y-95539277D01*
X159237795Y-95601686D01*
X159067841Y-95631654D01*
X158895302Y-95628040D01*
X158726745Y-95590980D01*
X158568605Y-95521891D01*
X158426894Y-95423399D01*
X158307009Y-95299255D01*
X158213525Y-95154196D01*
X158149995Y-94993737D01*
X158118841Y-94823990D01*
X158121251Y-94651430D01*
X158157130Y-94482629D01*
X158225117Y-94324004D01*
X158322617Y-94181609D01*
X158445921Y-94060861D01*
X158590326Y-93966365D01*
X158750337Y-93901716D01*
X158919854Y-93869379D01*
X159092430Y-93870584D01*
X159261484Y-93905286D01*
X159420574Y-93972161D01*
X159563648Y-94068665D01*
X159685254Y-94191124D01*
X159780758Y-94334868D01*
X159846518Y-94494417D01*
X159879972Y-94663368D01*
X159879971Y-94663377D01*
X159880038Y-94663712D01*
X159880038Y-94663712D01*
G37*
G36*
X159880038Y-96663712D02*
X159877285Y-96860827D01*
X159877209Y-96861160D01*
X159877209Y-96861173D01*
X159839055Y-97029114D01*
X159768860Y-97186773D01*
X159669382Y-97327793D01*
X159544402Y-97446809D01*
X159398694Y-97539277D01*
X159237795Y-97601686D01*
X159067841Y-97631654D01*
X158895302Y-97628040D01*
X158726745Y-97590980D01*
X158568605Y-97521891D01*
X158426894Y-97423399D01*
X158307009Y-97299255D01*
X158213525Y-97154196D01*
X158149995Y-96993737D01*
X158118841Y-96823990D01*
X158121251Y-96651430D01*
X158157130Y-96482629D01*
X158225117Y-96324004D01*
X158322617Y-96181609D01*
X158445921Y-96060861D01*
X158590326Y-95966365D01*
X158750337Y-95901716D01*
X158919854Y-95869379D01*
X159092430Y-95870584D01*
X159261484Y-95905286D01*
X159420574Y-95972161D01*
X159563648Y-96068665D01*
X159685254Y-96191124D01*
X159780758Y-96334868D01*
X159846518Y-96494417D01*
X159879972Y-96663368D01*
X159879971Y-96663377D01*
X159880038Y-96663712D01*
X159880038Y-96663712D01*
G37*
G36*
X159880038Y-98663712D02*
X159877285Y-98860827D01*
X159877209Y-98861160D01*
X159877209Y-98861173D01*
X159839055Y-99029114D01*
X159768860Y-99186773D01*
X159669382Y-99327793D01*
X159544402Y-99446809D01*
X159398694Y-99539277D01*
X159237795Y-99601686D01*
X159067841Y-99631654D01*
X158895302Y-99628040D01*
X158726745Y-99590980D01*
X158568605Y-99521891D01*
X158426894Y-99423399D01*
X158307009Y-99299255D01*
X158213525Y-99154196D01*
X158149995Y-98993737D01*
X158118841Y-98823990D01*
X158121251Y-98651430D01*
X158157130Y-98482629D01*
X158225117Y-98324004D01*
X158322617Y-98181609D01*
X158445921Y-98060861D01*
X158590326Y-97966365D01*
X158750337Y-97901716D01*
X158919854Y-97869379D01*
X159092430Y-97870584D01*
X159261484Y-97905286D01*
X159420574Y-97972161D01*
X159563648Y-98068665D01*
X159685254Y-98191124D01*
X159780758Y-98334868D01*
X159846518Y-98494417D01*
X159879972Y-98663368D01*
X159879971Y-98663377D01*
X159880038Y-98663712D01*
X159880038Y-98663712D01*
G37*
G36*
X161880038Y-86663712D02*
X161877285Y-86860827D01*
X161877209Y-86861160D01*
X161877209Y-86861173D01*
X161839055Y-87029114D01*
X161768860Y-87186773D01*
X161669382Y-87327793D01*
X161544402Y-87446809D01*
X161398694Y-87539277D01*
X161237795Y-87601686D01*
X161067841Y-87631654D01*
X160895302Y-87628040D01*
X160726745Y-87590980D01*
X160568605Y-87521891D01*
X160426894Y-87423399D01*
X160307009Y-87299255D01*
X160213525Y-87154196D01*
X160149995Y-86993737D01*
X160118841Y-86823990D01*
X160121251Y-86651430D01*
X160157130Y-86482629D01*
X160225117Y-86324004D01*
X160322617Y-86181609D01*
X160445921Y-86060861D01*
X160590326Y-85966365D01*
X160750337Y-85901716D01*
X160919854Y-85869379D01*
X161092430Y-85870584D01*
X161261484Y-85905286D01*
X161420574Y-85972161D01*
X161563648Y-86068665D01*
X161685254Y-86191124D01*
X161780758Y-86334868D01*
X161846518Y-86494417D01*
X161879972Y-86663368D01*
X161879971Y-86663377D01*
X161880038Y-86663712D01*
X161880038Y-86663712D01*
G37*
G36*
X161880038Y-88663712D02*
X161877285Y-88860827D01*
X161877209Y-88861160D01*
X161877209Y-88861173D01*
X161839055Y-89029114D01*
X161768860Y-89186773D01*
X161669382Y-89327793D01*
X161544402Y-89446809D01*
X161398694Y-89539277D01*
X161237795Y-89601686D01*
X161067841Y-89631654D01*
X160895302Y-89628040D01*
X160726745Y-89590980D01*
X160568605Y-89521891D01*
X160426894Y-89423399D01*
X160307009Y-89299255D01*
X160213525Y-89154196D01*
X160149995Y-88993737D01*
X160118841Y-88823990D01*
X160121251Y-88651430D01*
X160157130Y-88482629D01*
X160225117Y-88324004D01*
X160322617Y-88181609D01*
X160445921Y-88060861D01*
X160590326Y-87966365D01*
X160750337Y-87901716D01*
X160919854Y-87869379D01*
X161092430Y-87870584D01*
X161261484Y-87905286D01*
X161420574Y-87972161D01*
X161563648Y-88068665D01*
X161685254Y-88191124D01*
X161780758Y-88334868D01*
X161846518Y-88494417D01*
X161879972Y-88663368D01*
X161879971Y-88663377D01*
X161880038Y-88663712D01*
X161880038Y-88663712D01*
G37*
G36*
X161880038Y-90663712D02*
X161877285Y-90860827D01*
X161877209Y-90861160D01*
X161877209Y-90861173D01*
X161839055Y-91029114D01*
X161768860Y-91186773D01*
X161669382Y-91327793D01*
X161544402Y-91446809D01*
X161398694Y-91539277D01*
X161237795Y-91601686D01*
X161067841Y-91631654D01*
X160895302Y-91628040D01*
X160726745Y-91590980D01*
X160568605Y-91521891D01*
X160426894Y-91423399D01*
X160307009Y-91299255D01*
X160213525Y-91154196D01*
X160149995Y-90993737D01*
X160118841Y-90823990D01*
X160121251Y-90651430D01*
X160157130Y-90482629D01*
X160225117Y-90324004D01*
X160322617Y-90181609D01*
X160445921Y-90060861D01*
X160590326Y-89966365D01*
X160750337Y-89901716D01*
X160919854Y-89869379D01*
X161092430Y-89870584D01*
X161261484Y-89905286D01*
X161420574Y-89972161D01*
X161563648Y-90068665D01*
X161685254Y-90191124D01*
X161780758Y-90334868D01*
X161846518Y-90494417D01*
X161879972Y-90663368D01*
X161879971Y-90663377D01*
X161880038Y-90663712D01*
X161880038Y-90663712D01*
G37*
G36*
X161880038Y-92663712D02*
X161877285Y-92860827D01*
X161877209Y-92861160D01*
X161877209Y-92861173D01*
X161839055Y-93029114D01*
X161768860Y-93186773D01*
X161669382Y-93327793D01*
X161544402Y-93446809D01*
X161398694Y-93539277D01*
X161237795Y-93601686D01*
X161067841Y-93631654D01*
X160895302Y-93628040D01*
X160726745Y-93590980D01*
X160568605Y-93521891D01*
X160426894Y-93423399D01*
X160307009Y-93299255D01*
X160213525Y-93154196D01*
X160149995Y-92993737D01*
X160118841Y-92823990D01*
X160121251Y-92651430D01*
X160157130Y-92482629D01*
X160225117Y-92324004D01*
X160322617Y-92181609D01*
X160445921Y-92060861D01*
X160590326Y-91966365D01*
X160750337Y-91901716D01*
X160919854Y-91869379D01*
X161092430Y-91870584D01*
X161261484Y-91905286D01*
X161420574Y-91972161D01*
X161563648Y-92068665D01*
X161685254Y-92191124D01*
X161780758Y-92334868D01*
X161846518Y-92494417D01*
X161879972Y-92663368D01*
X161879971Y-92663377D01*
X161880038Y-92663712D01*
X161880038Y-92663712D01*
G37*
G36*
X161880038Y-94663712D02*
X161877285Y-94860827D01*
X161877209Y-94861160D01*
X161877209Y-94861173D01*
X161839055Y-95029114D01*
X161768860Y-95186773D01*
X161669382Y-95327793D01*
X161544402Y-95446809D01*
X161398694Y-95539277D01*
X161237795Y-95601686D01*
X161067841Y-95631654D01*
X160895302Y-95628040D01*
X160726745Y-95590980D01*
X160568605Y-95521891D01*
X160426894Y-95423399D01*
X160307009Y-95299255D01*
X160213525Y-95154196D01*
X160149995Y-94993737D01*
X160118841Y-94823990D01*
X160121251Y-94651430D01*
X160157130Y-94482629D01*
X160225117Y-94324004D01*
X160322617Y-94181609D01*
X160445921Y-94060861D01*
X160590326Y-93966365D01*
X160750337Y-93901716D01*
X160919854Y-93869379D01*
X161092430Y-93870584D01*
X161261484Y-93905286D01*
X161420574Y-93972161D01*
X161563648Y-94068665D01*
X161685254Y-94191124D01*
X161780758Y-94334868D01*
X161846518Y-94494417D01*
X161879972Y-94663368D01*
X161879971Y-94663377D01*
X161880038Y-94663712D01*
X161880038Y-94663712D01*
G37*
G36*
X161880038Y-96663712D02*
X161877285Y-96860827D01*
X161877209Y-96861160D01*
X161877209Y-96861173D01*
X161839055Y-97029114D01*
X161768860Y-97186773D01*
X161669382Y-97327793D01*
X161544402Y-97446809D01*
X161398694Y-97539277D01*
X161237795Y-97601686D01*
X161067841Y-97631654D01*
X160895302Y-97628040D01*
X160726745Y-97590980D01*
X160568605Y-97521891D01*
X160426894Y-97423399D01*
X160307009Y-97299255D01*
X160213525Y-97154196D01*
X160149995Y-96993737D01*
X160118841Y-96823990D01*
X160121251Y-96651430D01*
X160157130Y-96482629D01*
X160225117Y-96324004D01*
X160322617Y-96181609D01*
X160445921Y-96060861D01*
X160590326Y-95966365D01*
X160750337Y-95901716D01*
X160919854Y-95869379D01*
X161092430Y-95870584D01*
X161261484Y-95905286D01*
X161420574Y-95972161D01*
X161563648Y-96068665D01*
X161685254Y-96191124D01*
X161780758Y-96334868D01*
X161846518Y-96494417D01*
X161879972Y-96663368D01*
X161879971Y-96663377D01*
X161880038Y-96663712D01*
X161880038Y-96663712D01*
G37*
G36*
X161880038Y-98663712D02*
X161877285Y-98860827D01*
X161877209Y-98861160D01*
X161877209Y-98861173D01*
X161839055Y-99029114D01*
X161768860Y-99186773D01*
X161669382Y-99327793D01*
X161544402Y-99446809D01*
X161398694Y-99539277D01*
X161237795Y-99601686D01*
X161067841Y-99631654D01*
X160895302Y-99628040D01*
X160726745Y-99590980D01*
X160568605Y-99521891D01*
X160426894Y-99423399D01*
X160307009Y-99299255D01*
X160213525Y-99154196D01*
X160149995Y-98993737D01*
X160118841Y-98823990D01*
X160121251Y-98651430D01*
X160157130Y-98482629D01*
X160225117Y-98324004D01*
X160322617Y-98181609D01*
X160445921Y-98060861D01*
X160590326Y-97966365D01*
X160750337Y-97901716D01*
X160919854Y-97869379D01*
X161092430Y-97870584D01*
X161261484Y-97905286D01*
X161420574Y-97972161D01*
X161563648Y-98068665D01*
X161685254Y-98191124D01*
X161780758Y-98334868D01*
X161846518Y-98494417D01*
X161879972Y-98663368D01*
X161879971Y-98663377D01*
X161880038Y-98663712D01*
X161880038Y-98663712D01*
G37*
M02*
